<svg width="109" height="110" viewBox="0 0 109 110" fill="none" xmlns="http://www.w3.org/2000/svg">
    <g clip-path="url(#clip0_2683_1476)">
        <path
            d="M0 95.8164C0 103.651 6.29262 110 14.0546 110H94.945C102.708 110 109 103.65 109 95.8164V14.184C109 6.34949 102.707 0 94.9454 0H14.055C6.29177 0 0 6.35035 0 14.1836V95.8164Z"
            fill="#563D7C" />
        <path
            d="M45.2001 48.657V33.0795H58.7872C60.0816 33.0795 61.3291 33.1882 62.5307 33.4061C63.7322 33.6235 64.7954 34.0119 65.7198 34.5718C66.6437 35.1317 67.3833 35.909 67.9381 36.9037C68.4925 37.8989 68.7701 39.1738 68.7701 40.7279C68.7701 43.5265 67.9381 45.5477 66.2741 46.7913C64.6106 48.0352 62.4847 48.657 59.8964 48.657H45.2001ZM30.6882 21.6992V88.3008H62.6695C65.6274 88.3008 68.5082 87.9278 71.312 87.1814C74.1157 86.4351 76.6113 85.2848 78.7989 83.7302C80.9862 82.1756 82.7272 80.1698 84.0211 77.7137C85.3155 75.2572 85.9623 72.3499 85.9623 68.9919C85.9623 64.8252 84.9608 61.2653 82.9584 58.3116C80.9555 55.3575 77.9205 53.2898 73.8535 52.1082C76.8114 50.6782 79.0454 48.8434 80.5553 46.6048C82.0647 44.3661 82.8196 41.568 82.8196 38.2095C82.8196 35.1003 82.3112 32.4887 81.2944 30.3742C80.2776 28.2601 78.8449 26.5654 76.9962 25.2905C75.1478 24.0157 72.9295 23.0983 70.3412 22.5388C67.7533 21.9789 64.8878 21.6992 61.7451 21.6992H30.6882ZM45.2001 76.9205V58.6377H61.0055C64.1482 58.6377 66.6748 59.3682 68.5853 60.83C70.4953 62.2914 71.4508 64.732 71.4508 68.1523C71.4508 69.8938 71.1578 71.3238 70.5724 72.4432C69.9869 73.5625 69.2014 74.4489 68.2153 75.1016C67.2296 75.7548 66.0893 76.221 64.7954 76.5011C63.501 76.7804 62.1458 76.9205 60.7283 76.9205H45.2001Z"
            fill="white" />
    </g>
    <defs>
        <clipPath id="clip0_2683_1476">
            <rect width="109" height="110" fill="white" />
        </clipPath>
    </defs>
</svg>