<svg width="110" height="110" viewBox="0 0 110 110" fill="none" xmlns="http://www.w3.org/2000/svg">
    <path fill-rule="evenodd" clip-rule="evenodd"
        d="M52.4861 7.53033C54.0421 6.65721 55.9579 6.65721 57.5117 7.53033C65.2002 11.8455 88.3369 24.8347 96.0277 29.1499C97.5838 30.0208 98.5417 31.6341 98.5417 33.3803C98.5417 42.0107 98.5417 67.9868 98.5417 76.6172C98.5417 78.3635 97.5838 79.9768 96.0277 80.8499C88.3392 85.1651 65.2025 98.1543 57.5117 102.469C55.9556 103.343 54.0398 103.343 52.4861 102.469C44.7975 98.1543 21.6608 85.1651 13.97 80.8499C12.4163 79.9768 11.4583 78.3657 11.4583 76.6195C11.4583 67.9891 11.4583 42.013 11.4583 33.3826C11.4583 31.6364 12.4163 30.023 13.9723 29.1499C21.6586 24.8347 44.7998 11.8455 52.4861 7.53033Z"
        fill="#00549D" />
    <path fill-rule="evenodd" clip-rule="evenodd"
        d="M12.155 78.8424C11.5454 78.0266 11.4583 77.252 11.4583 76.2093C11.4583 67.6293 11.4583 41.8022 11.4583 33.2199C11.4583 31.4828 12.414 29.8787 13.9654 29.0124C21.6265 24.7224 44.6852 11.8089 52.3463 7.51658C53.8977 6.64804 55.9992 6.66637 57.5506 7.53491C65.2117 11.8249 88.1925 24.6285 95.8536 28.9185C96.4723 29.2668 96.9444 29.6862 97.3661 30.2385L12.155 78.8424Z"
        fill="#0086D4" />
    <path fill-rule="evenodd" clip-rule="evenodd"
        d="M55 22.9167C72.7077 22.9167 87.0833 37.2924 87.0833 55.0001C87.0833 72.7078 72.7077 87.0834 55 87.0834C37.2923 87.0834 22.9167 72.7078 22.9167 55.0001C22.9167 37.2924 37.2923 22.9167 55 22.9167ZM55 38.9584C63.8527 38.9584 71.0417 46.1451 71.0417 55.0001C71.0417 63.8528 63.8527 71.0417 55 71.0417C46.1473 71.0417 38.9583 63.8528 38.9583 55.0001C38.9583 46.1451 46.145 38.9584 55 38.9584Z"
        fill="white" />
    <path fill-rule="evenodd" clip-rule="evenodd"
        d="M97.3615 30.2615C98.544 31.3683 98.521 33.0367 98.521 34.3498C98.521 43.0467 98.4477 67.7829 98.5417 76.4798C98.5508 77.3873 98.2506 78.3429 97.8015 79.0625L54.0673 55L97.3615 30.2615Z"
        fill="#0075C0" />
    <path fill-rule="evenodd" clip-rule="evenodd"
        d="M71.0417 48.125H75.625V61.875H71.0417V48.125ZM87.0833 48.125H91.6667V61.875H87.0833V48.125Z"
        fill="white" />
    <path fill-rule="evenodd" clip-rule="evenodd"
        d="M66.4583 52.7083H80.2083V57.2916H66.4583V52.7083ZM82.5 52.7083H96.25V57.2916H82.5V52.7083Z"
        fill="white" />
</svg>