<svg width="110" height="79" viewBox="0 0 110 79" fill="none" xmlns="http://www.w3.org/2000/svg">
    <g clip-path="url(#clip0_2716_2983)">
        <path
            d="M107.729 30.1042C105.252 28.3962 99.576 27.7556 95.138 28.6097C94.622 24.3396 92.2482 20.6032 88.1199 17.2939L85.7461 15.5859L84.0948 18.0412C82.0306 21.2437 80.9985 25.7273 81.3081 29.9974C81.4114 31.492 81.9274 34.1608 83.4755 36.5093C82.0306 37.3634 79.0376 38.4309 75.1157 38.4309H0.49619L0.289774 39.2849C-0.432683 43.555 -0.432683 56.8991 8.03038 67.1473C14.4293 74.9402 23.9244 78.8901 36.4126 78.8901C63.4531 78.8901 83.4755 65.973 92.8675 42.5942C96.5829 42.701 104.53 42.5942 108.555 34.5878C108.658 34.3743 108.865 33.9473 109.587 32.346L110 31.492L107.729 30.1042ZM60.1505 0H48.7976V10.6752H60.1505V0ZM60.1505 12.8103H48.7976V23.4855H60.1505V12.8103ZM46.7334 12.8103H35.3805V23.4855H46.7334V12.8103ZM33.3164 12.8103H21.9635V23.4855H33.3164V12.8103ZM19.8993 25.6206H8.54642V36.2958H19.8993V25.6206ZM33.3164 25.6206H21.9635V36.2958H33.3164V25.6206ZM46.7334 25.6206H35.3805V36.2958H46.7334V25.6206ZM60.1505 25.6206H48.7976V36.2958H60.1505V25.6206ZM73.5675 25.6206H62.2146V36.2958H73.5675V25.6206Z"
            fill="#2396ED" />
    </g>
    <defs>
        <clipPath id="clip0_2716_2983">
            <rect width="110" height="79" fill="white" />
        </clipPath>
    </defs>
</svg>
    