<svg width="11" height="12" viewBox="0 0 11 12" fill="none"
    xmlns="http://www.w3.org/2000/svg">
    <path
        d="M6 1.5C6 1.10156 6.32812 0.75 6.75 0.75H9.72656C9.84375 0.75 9.9375 0.773438 10.0312 0.820312C10.1016 0.84375 10.1953 0.914062 10.2656 0.984375C10.4062 1.125 10.4766 1.3125 10.5 1.5V4.5C10.5 4.92188 10.1484 5.25 9.75 5.25C9.32812 5.25 9 4.92188 9 4.5V3.32812L5.01562 7.28906C4.73438 7.59375 4.24219 7.59375 3.96094 7.28906C3.65625 7.00781 3.65625 6.51562 3.96094 6.23438L7.92188 2.25H6.75C6.32812 2.25 6 1.92188 6 1.5ZM0 3C0 2.17969 0.65625 1.5 1.5 1.5H3.75C4.14844 1.5 4.5 1.85156 4.5 2.25C4.5 2.67188 4.14844 3 3.75 3H1.5V9.75H8.25V7.5C8.25 7.10156 8.57812 6.75 9 6.75C9.39844 6.75 9.75 7.10156 9.75 7.5V9.75C9.75 10.5938 9.07031 11.25 8.25 11.25H1.5C0.65625 11.25 0 10.5938 0 9.75V3Z"
        fill="#525252" />
</svg>