<svg width="74" height="110" viewBox="0 0 74 110" fill="none" xmlns="http://www.w3.org/2000/svg">
    <g clip-path="url(#clip0_2683_1480)">
        <path
            d="M18.337 110C28.455 110 36.6667 101.787 36.6667 91.6666V73.3333H18.337C8.21902 73.3333 0.00732422 81.5466 0.00732422 91.6666C0.00732422 101.787 8.21902 110 18.337 110Z"
            fill="#0ACF83" />
        <path
            d="M0.00732422 55.0001C0.00732422 44.8801 8.21902 36.6667 18.337 36.6667H36.6667V73.3334H18.337C8.21902 73.3334 0.00732422 65.1201 0.00732422 55.0001Z"
            fill="#A259FF" />
        <path
            d="M0.00747681 18.3333C0.00747681 8.21333 8.21917 0 18.3371 0H36.6668V36.6667H18.3371C8.21917 36.6667 0.00747681 28.4533 0.00747681 18.3333Z"
            fill="#F24E1E" />
        <path
            d="M36.6667 0H54.9963C65.1143 0 73.326 8.21333 73.326 18.3333C73.326 28.4533 65.1143 36.6667 54.9963 36.6667H36.6667V0Z"
            fill="#FF7262" />
        <path
            d="M73.326 55.0001C73.326 65.1201 65.1143 73.3334 54.9963 73.3334C44.8783 73.3334 36.6667 65.1201 36.6667 55.0001C36.6667 44.8801 44.8783 36.6667 54.9963 36.6667C65.1143 36.6667 73.326 44.8801 73.326 55.0001Z"
            fill="#1ABCFE" />
    </g>
    <defs>
        <clipPath id="clip0_2683_1480">
            <rect width="73.3333" height="110" fill="white" />
        </clipPath>
    </defs>
</svg>