<svg width="110" height="110" viewBox="0 0 110 110" fill="none" xmlns="http://www.w3.org/2000/svg">
    <g clip-path="url(#clip0_2705_2921)">
        <path
            d="M55 1.375C24.75 1.375 0 26.125 0 56.375C0 80.7812 15.8125 101.406 37.4687 108.625C40.2187 109.313 41.25 107.594 41.25 105.875C41.25 104.5 41.25 101.063 41.25 96.5938C25.7812 100.031 22.6875 89.0312 22.6875 89.0312C20.2812 82.8438 16.5 81.125 16.5 81.125C11.6875 77.6875 16.8438 77.6875 16.8438 77.6875C22.3438 78.0313 25.0938 83.1875 25.0938 83.1875C29.9063 91.4375 37.8125 89.0313 41.25 87.6563C41.5938 84.2188 43.3125 81.8125 44.6875 80.4375C32.3125 79.0625 19.5937 74.25 19.5937 53.2813C19.5937 47.0938 21.6563 42.2813 25.0938 38.5C24.4063 37.125 22.6875 31.625 25.4375 24.0625C25.4375 24.0625 29.9063 22.6875 40.5625 29.5625C45.0313 28.1875 49.5 27.8438 54.3125 27.8438C59.125 27.8438 63.5937 28.5313 68.0625 29.5625C79.0625 22.6875 83.875 24.0625 83.875 24.0625C86.9687 31.625 84.9063 37.125 84.5625 38.5C88 42.2813 90.0625 47.0938 90.0625 53.2813C90.0625 74.25 77.3437 79.0625 64.9687 80.4375C67.0312 82.1562 68.75 85.5938 68.75 90.75C68.75 97.9687 68.75 104.156 68.75 105.875C68.75 107.25 69.7813 108.969 72.5313 108.625C94.5313 101.406 110.344 80.7812 110.344 56.375C110 26.125 85.25 1.375 55 1.375Z"
            fill="black" />
    </g>
    <defs>
        <clipPath id="clip0_2705_2921">
            <rect width="110" height="110" fill="white" />
        </clipPath>
    </defs>
</svg>
    