<svg width="82" height="110" viewBox="0 0 82 110" fill="none" xmlns="http://www.w3.org/2000/svg">
    <g clip-path="url(#clip0_2705_2927)">
        <path
            d="M26.2876 85.0347C26.2876 85.0347 22.0848 87.4748 29.2786 88.3005C37.9936 89.2931 42.4477 89.1508 52.0517 87.336C52.0517 87.336 54.5767 88.9167 58.103 90.2858C36.5734 99.4982 9.37723 89.7522 26.2876 85.0347Z"
            fill="#5382A1" />
        <path
            d="M23.6567 73.013C23.6567 73.013 18.9429 76.4967 26.142 77.2401C35.4516 78.199 42.8036 78.2774 55.5255 75.8317C55.5255 75.8317 57.2851 77.6127 60.0519 78.5867C34.0214 86.1862 5.02798 79.186 23.6567 73.013Z"
            fill="#5382A1" />
        <path
            d="M45.8352 52.6203C51.1401 58.7181 44.4414 64.2054 44.4414 64.2054C44.4414 64.2054 57.9114 57.2629 51.7252 48.5693C45.9475 40.4619 41.5168 36.4337 65.5029 22.5449C65.5029 22.5449 27.8527 31.9331 45.8352 52.6203Z"
            fill="#E76F00" />
        <path
            d="M74.3099 93.9266C74.3099 93.9266 77.42 96.4851 70.8846 98.4644C58.4575 102.223 19.1614 103.358 8.24512 98.6142C4.321 96.9098 11.6798 94.5445 13.9946 94.0482C16.4088 93.5255 17.7883 93.6229 17.7883 93.6229C13.4243 90.5536 -10.4189 99.6497 5.67716 102.255C49.5735 109.362 85.696 99.0543 74.3099 93.9266Z"
            fill="#5382A1" />
        <path
            d="M28.3086 60.5572C28.3086 60.5572 8.32013 65.2972 21.2302 67.0184C26.6812 67.7471 37.5477 67.5822 47.6695 66.7355C55.9417 66.0388 64.2479 64.5576 64.2479 64.5576C64.2479 64.5576 61.331 65.8047 59.2208 67.2434C38.9228 72.5732 -0.28904 70.0937 10.9996 64.6419C20.5463 60.0345 28.3086 60.5572 28.3086 60.5572Z"
            fill="#5382A1" />
        <path
            d="M64.1654 80.5678C84.7992 69.8628 75.259 59.5755 68.6 60.9614C66.9679 61.3006 66.2401 61.5945 66.2401 61.5945C66.2401 61.5945 66.846 60.6468 68.0033 60.2366C81.1769 55.6127 91.3082 73.8745 63.7507 81.1073C63.7507 81.1073 64.07 80.8226 64.1654 80.5678Z"
            fill="#5382A1" />
        <path
            d="M51.7253 0.118103C51.7253 0.118103 63.1526 11.531 40.8869 29.0807C23.0322 43.1587 36.8155 51.1855 40.8795 60.3565C30.4574 50.9683 22.809 42.7038 27.9401 35.0119C35.4715 23.721 56.3359 18.2467 51.7253 0.118103Z"
            fill="#E76F00" />
        <path
            d="M30.3362 109.576C50.142 110.842 80.5562 108.873 81.2765 99.5168C81.2765 99.5168 79.8919 103.064 64.908 105.881C48.0033 109.057 27.1537 108.686 14.7876 106.651C14.7876 106.651 17.3191 108.742 30.3362 109.576Z"
            fill="#5382A1" />
    </g>
    <defs>
        <clipPath id="clip0_2705_2927">
            <rect width="81.5179" height="110" fill="white" />
        </clipPath>
    </defs>
</svg>
    