<svg width="110" height="110" viewBox="0 0 110 110" fill="none" xmlns="http://www.w3.org/2000/svg">
    <g clip-path="url(#clip0_2716_2978)">
        <path d="M0 0H110V110H0V0Z" fill="#F7DF1E" />
        <path
            d="M28.923 91.924L37.341 86.8296C38.965 89.709 40.4423 92.1452 43.9859 92.1452C47.3826 92.1452 49.5241 90.8165 49.5241 85.6482V50.5006H59.8613V85.7944C59.8613 96.501 53.5854 101.374 44.429 101.374C36.1596 101.374 31.3594 97.0915 28.9229 91.9231"
            fill="black" />
        <path
            d="M65.4762 90.8164L73.8931 85.943C76.1088 89.5615 78.9886 92.2195 84.0831 92.2195C88.3663 92.2195 91.0976 90.078 91.0976 87.1244C91.0976 83.5801 88.2919 82.3247 83.5661 80.258L80.9825 79.1496C73.5244 75.9751 68.577 71.9879 68.577 63.5701C68.577 55.817 74.484 49.9097 83.7142 49.9097C90.2859 49.9097 95.0115 52.1989 98.4078 58.1799L90.3592 63.3483C88.587 60.1735 86.6678 58.9185 83.7144 58.9185C80.6869 58.9185 78.767 60.8383 78.767 63.3483C78.767 66.4496 80.6869 67.7052 85.1168 69.6252L87.7009 70.7327C96.4878 74.4987 101.435 78.3379 101.435 86.9767C101.435 96.281 94.1253 101.375 84.3049 101.375C74.7059 101.375 68.5031 96.7976 65.4762 90.8164Z"
            fill="black" />
    </g>
    <defs>
        <clipPath id="clip0_2716_2978">
            <rect width="110" height="110" fill="white" />
        </clipPath>
    </defs>
</svg>
    