<svg width="110" height="110" viewBox="0 0 110 110" fill="none" xmlns="http://www.w3.org/2000/svg">
<g clip-path="url(#clip0_2704_2807)">
<path d="M77.7723 38.9363C78.9712 41.5468 80.3093 44.0922 81.4986 46.7076C83.7873 51.7409 85.5256 57.0552 86.2477 62.5367C86.9697 68.0182 86.6556 73.6786 84.9435 78.9343C83.0075 84.8672 79.3321 90.1454 74.8289 94.4652C69.5017 99.5759 62.6634 103.516 55.2868 103.807C50.4803 103.996 45.6951 102.622 41.4387 100.381C37.8616 98.4985 34.596 95.9895 31.9905 92.8992C29.3851 89.8089 27.4506 86.129 26.5547 82.187C25.4516 77.333 25.9509 72.18 27.6203 67.4905C28.8144 64.1369 30.5844 61.0145 31.8444 57.6852C33.2214 54.0474 33.9903 50.1628 35.8147 46.7275C37.4679 43.6125 39.9482 40.9518 41.2656 37.6807C42.0525 35.727 42.3938 33.6286 42.9019 31.5843C43.41 29.5401 44.1214 27.4811 45.5051 25.893C47.1731 23.9794 49.6817 22.9422 52.2028 22.651C54.7238 22.3597 57.2759 22.753 59.7502 23.3174C61.7201 23.7666 63.6661 24.3245 65.5697 25.0016C67.1946 25.5797 68.8047 26.2527 70.2098 27.2528C72.1244 28.6151 73.5825 30.5335 74.7442 32.5763C75.9059 34.6191 76.7951 36.8014 77.776 38.9366L77.7723 38.9363Z" fill="#020204"/>
<path d="M56.605 103.853C58.6301 103.971 60.6515 104.167 62.6583 104.47C64.4228 104.738 66.1747 105.084 67.9088 105.506C70.6251 106.164 73.3318 107.004 76.1257 107.083C76.861 107.104 77.5985 107.071 78.3202 106.912C79.0419 106.752 79.7348 106.461 80.3103 106.002C81.1683 105.318 81.7095 104.287 81.9146 103.209C82.1197 102.13 81.9912 101.008 81.6753 99.9573C81.0438 97.8564 79.687 96.0636 78.5687 94.178C77.9262 93.0984 77.3537 91.9761 76.6578 90.9304C75.9618 89.8847 75.1297 88.9053 74.073 88.2241C72.6119 87.2823 70.8004 86.9752 69.0709 87.1475C67.3414 87.3198 65.6834 87.9447 64.1399 88.7441C61.9763 89.8641 59.9398 91.4025 58.7604 93.5344C58.3499 94.2763 58.0516 95.0735 57.703 95.8467C57.3543 96.6199 56.9459 97.3807 56.3553 97.9889C55.6962 98.6672 54.8413 99.1245 54.1597 99.7795C53.8191 100.111 53.5209 100.488 53.3497 100.928C53.1785 101.367 53.1317 101.869 53.2908 102.314C53.4001 102.619 53.6001 102.888 53.8468 103.098C54.0935 103.309 54.3851 103.463 54.691 103.569C55.3023 103.784 55.9614 103.816 56.6083 103.854L56.605 103.853Z" fill="#020204"/>
<path d="M50.5853 103.722C48.8974 103.761 47.2272 104.063 45.5777 104.405C43.9974 104.731 42.4244 105.095 40.8632 105.505C38.2291 106.197 35.5916 107.025 32.8687 107.082C32.1522 107.097 31.4305 107.059 30.7321 106.897C30.0336 106.735 29.3575 106.448 28.7971 106.001C27.9411 105.318 27.3969 104.288 27.1955 103.213C26.994 102.137 27.117 101.017 27.4293 99.9673C28.0541 97.8685 29.394 96.0716 30.4912 94.1769C31.1146 93.0999 31.6647 91.9802 32.3389 90.9341C33.0131 89.888 33.825 88.9064 34.8648 88.2226C36.2816 87.2911 38.0486 86.9755 39.7361 87.1416C41.4236 87.3076 43.0408 87.9296 44.529 88.7425C46.63 89.8902 48.5487 91.4695 49.7634 93.5292C50.6158 94.9762 51.1074 96.6313 52.1037 97.9837C52.6402 98.712 53.3188 99.3409 53.7607 100.128C53.9838 100.521 54.1473 100.954 54.1852 101.405C54.2231 101.857 54.13 102.325 53.8759 102.7C53.7084 102.947 53.4757 103.148 53.2157 103.295C52.9558 103.443 52.6689 103.54 52.3762 103.601C51.7871 103.723 51.1869 103.704 50.5886 103.719L50.5853 103.722ZM41.1541 33.4375C40.917 30.5839 40.97 27.7145 40.8669 24.8528C40.7645 22.1012 40.5112 19.3511 40.6036 16.5992C40.6979 13.8008 41.167 10.9656 42.413 8.45079C43.659 5.93595 45.6826 3.80847 48.1514 2.47778C50.4711 1.22588 53.1465 0.690881 55.7858 0.719601C59.3647 0.75863 62.9525 1.83968 65.8503 3.93918C67.6674 5.2544 69.1954 6.94999 70.4009 8.84145C71.4293 10.456 72.2283 12.2194 72.7298 14.07C73.7582 17.8625 73.5141 21.8567 73.7144 25.7774C73.904 29.4933 74.4987 33.2004 74.2962 36.9156C74.252 37.7256 74.1651 38.5482 73.8053 39.2721C73.4548 39.9772 72.8598 40.5442 72.176 40.9353C71.4923 41.3263 70.7227 41.5487 69.9447 41.6687C68.3883 41.9088 66.7966 41.7505 65.2288 41.8959C62.9533 42.1069 60.7827 42.9508 58.5245 43.3002C55.8366 43.7163 53.0909 43.4217 50.3695 43.3127C49.2796 43.2693 48.186 43.2557 47.1043 43.1198C46.0225 42.9839 44.9429 42.7221 43.9804 42.2089C43.3913 41.8929 42.8416 41.4817 42.399 40.9754C41.9564 40.4691 41.6184 39.8708 41.4501 39.2165C41.1972 38.2396 41.3304 37.2112 41.3341 36.202C41.3378 35.2793 41.2303 34.3599 41.15 33.4405L41.1541 33.4375Z" fill="#020204"/>
<path d="M45.4366 32.3381C45.0515 32.8204 44.8004 33.4011 44.6487 34.0001C44.497 34.5992 44.4418 35.2182 44.4178 35.8353C44.3707 37.0699 44.4458 38.328 44.1196 39.5195C43.7698 40.7935 42.987 41.8967 42.2204 42.9726C40.893 44.8357 39.5509 46.7466 38.8966 48.9382C38.5 50.2656 38.3679 51.6714 38.5107 53.0492C37.025 55.2312 35.7381 57.5487 34.6729 59.9641C33.058 63.6248 31.9497 67.5222 31.5598 71.5036C31.0826 76.3794 31.7063 81.3943 33.6316 85.8993C35.0235 89.1564 37.0994 92.1381 39.7755 94.4589C41.136 95.639 42.6475 96.6461 44.2676 97.4403C49.8691 100.193 56.7913 100.198 62.2997 97.2636C65.1783 95.7296 67.6084 93.4865 69.951 91.2169C71.3619 89.8501 72.7655 88.4509 73.8418 86.8073C75.9137 83.6437 76.6353 79.7981 77.0838 76.0432C77.8681 69.477 77.8931 62.5411 75.0145 56.588C74.0204 54.5344 72.7053 52.6525 71.1185 51.013C70.6969 48.1484 69.8644 45.3438 68.6545 42.713C67.7819 40.8149 66.7148 39.0081 65.904 37.0831C65.5712 36.2926 65.2781 35.4833 64.9124 34.7093C64.5468 33.9353 64.0877 33.1905 63.4676 32.5977C62.8332 31.9901 62.0427 31.5601 61.2083 31.2846C60.374 31.0092 59.4962 30.8844 58.6198 30.8402C56.8653 30.7518 55.1072 30.9812 53.3523 30.9116C51.955 30.8564 50.5621 30.6112 49.1658 30.6937C48.4677 30.7349 47.7703 30.8594 47.1223 31.1226C46.4742 31.3859 45.877 31.7917 45.4411 32.3377L45.4366 32.3381Z" fill="#FDFDFB"/>
<g filter="url(#filter0_f_2704_2807)">
<path d="M44.5764 38.8869C45.2035 40.7051 46.4653 42.2567 47.9587 43.4689C48.4558 43.8721 48.9831 44.2436 49.5663 44.5061C50.1495 44.7686 50.7932 44.9185 51.4302 44.864C52.0543 44.811 52.6478 44.5657 53.1939 44.2579C53.7399 43.9501 54.2454 43.5779 54.7746 43.2428C55.6814 42.6684 56.6524 42.2045 57.5939 41.689C58.7287 41.0678 59.8289 40.3634 60.7844 39.4945C61.2218 39.095 61.6298 38.6594 62.1129 38.3162C62.596 37.973 63.1744 37.7249 63.7654 37.765C64.2087 37.7952 64.6244 37.9837 65.0585 38.0772C65.2794 38.124 65.5003 38.1472 65.7202 38.1133C65.94 38.0795 66.1546 37.9867 66.3086 37.8261C66.4971 37.6299 66.5796 37.3475 66.5663 37.075C66.553 36.8025 66.4617 36.54 66.3343 36.2992C66.0803 35.8176 65.6955 35.4026 65.5243 34.886C65.3718 34.4258 65.4028 33.9287 65.416 33.4449C65.4293 32.9611 65.419 32.4544 65.1951 32.0247C65.025 31.697 64.74 31.4374 64.4138 31.2647C64.0875 31.092 63.7216 31.007 63.3548 30.9687C62.6203 30.8998 61.8842 31.0423 61.1478 31.0839C60.1699 31.1392 59.1882 31.0169 58.2106 31.0758C56.9919 31.1495 55.7963 31.503 54.575 31.5052C53.181 31.5077 51.7884 31.0515 50.4113 31.2695C49.8204 31.363 49.257 31.5781 48.6896 31.7673C48.1222 31.9566 47.536 32.1234 46.9381 32.1149C46.2591 32.105 45.6015 31.8701 44.924 31.8215C44.5852 31.7972 44.2384 31.8215 43.9203 31.9404C43.6021 32.0593 43.3146 32.2806 43.1588 32.5822C43.0693 32.7552 43.0252 32.9493 43.0167 33.1437C43.0082 33.3381 43.0351 33.5329 43.0822 33.7218C43.1761 34.0995 43.3488 34.4519 43.4873 34.8142C44.0002 36.1228 44.1103 37.5566 44.5687 38.8851L44.5764 38.8869Z" fill="black" fill-opacity="0.26"/>
</g>
<g opacity="0.3" filter="url(#filter1_f_2704_2807)">
<path d="M42.8282 33.705C44.0462 34.458 45.1394 35.3818 46.0573 36.4359C46.909 37.414 47.6332 38.5231 48.7452 39.2475C49.5306 39.7589 50.4739 40.0472 51.4309 40.1347C52.5547 40.2375 53.6917 40.0713 54.7749 39.7779C55.779 39.5059 56.7496 39.1234 57.6403 38.618C59.3333 37.6562 60.7479 36.2463 62.6111 35.6141C63.0187 35.4761 63.4432 35.3774 63.8361 35.2071C64.2289 35.0369 64.5983 34.7818 64.786 34.421C64.9701 34.0744 64.9591 33.6742 65.018 33.2933C65.0806 32.8863 65.222 32.4922 65.2993 32.0873C65.3766 31.6823 65.3858 31.2489 65.1962 30.8765C65.0386 30.5678 64.7525 30.3243 64.423 30.1693C64.0935 30.0143 63.7234 29.9441 63.3537 29.9272C62.6151 29.8933 61.8853 30.0679 61.1489 30.13C60.1732 30.2121 59.1908 30.0961 58.2118 30.1232C56.9937 30.1571 55.7934 30.4115 54.5761 30.4641C53.1872 30.5244 51.8021 30.3223 50.4124 30.2775C49.8115 30.2579 49.2066 30.2674 48.6141 30.3633C48.0217 30.4593 47.4403 30.6421 46.9388 30.9487C46.4528 31.2462 46.0562 31.6497 45.6107 31.9967C45.3879 32.1703 45.1512 32.3308 44.8912 32.4529C44.6313 32.575 44.3463 32.6581 44.0554 32.6709C43.9055 32.6777 43.7542 32.6659 43.6062 32.6869C43.482 32.7061 43.3632 32.7478 43.2566 32.8095C43.1501 32.8713 43.0578 32.9518 42.9852 33.0466C42.9126 33.1413 42.8611 33.2484 42.8336 33.3616C42.8062 33.4748 42.8033 33.5918 42.8252 33.706L42.8282 33.705Z" fill="black"/>
</g>
<path d="M45.9993 17.0752C45.3439 17.111 44.7161 17.414 44.2363 17.8621C43.7565 18.3102 43.4189 18.8975 43.2105 19.5205C42.7944 20.7665 42.8883 22.1171 42.9822 23.4235C43.068 24.6098 43.1552 25.8186 43.5997 26.9221C43.8217 27.4737 44.1336 27.9899 44.5496 28.4185C44.9657 28.8471 45.4893 29.1704 46.0659 29.3147C46.6072 29.4502 47.1845 29.4222 47.7166 29.2551C48.2486 29.0879 48.7343 28.7838 49.1327 28.3942C49.7144 27.8253 50.1058 27.0812 50.3304 26.2991C50.555 25.5171 50.6191 24.6967 50.6073 23.8837C50.5926 22.866 50.4601 21.8439 50.1412 20.8777C49.8223 19.9115 49.3142 18.9987 48.6047 18.2686C48.2611 17.9151 47.869 17.604 47.4264 17.386C46.9838 17.168 46.4901 17.0454 45.9978 17.0719L45.9993 17.0752Z" fill="url(#paint0_radial_2704_2807)"/>
<path d="M57.6042 17.0752C56.5806 17.7748 55.7227 18.7598 55.303 19.9288C54.7742 21.4024 54.9767 23.0512 55.4871 24.5314C56.0099 26.0473 56.884 27.4917 58.2044 28.4019C58.8646 28.857 59.6286 29.1689 60.4247 29.2635C61.2207 29.3582 62.0485 29.2286 62.7591 28.8585C63.6255 28.4071 64.2864 27.6166 64.6966 26.7303C65.1068 25.844 65.282 24.8635 65.3365 23.8878C65.4102 22.6451 65.285 21.3818 64.8763 20.2057C64.4326 18.928 63.6244 17.7498 62.4929 17.0145C61.9258 16.647 61.2807 16.3944 60.6114 16.302C59.942 16.2096 59.2472 16.2788 58.6172 16.5237C58.2582 16.6636 57.9224 16.8576 57.6046 17.076L57.6042 17.0752Z" fill="url(#paint1_radial_2704_2807)"/>
<g opacity="0.3" filter="url(#filter2_f_2704_2807)">
<path d="M45.7813 27.6766L43.8902 29.4016C43.5573 29.7367 43.2237 30.0953 43.0746 30.5431C42.942 30.9407 42.9671 31.3726 42.9015 31.7876C42.8794 31.9297 42.8463 32.0711 42.8456 32.2147C42.8444 32.2867 42.854 32.3585 42.8743 32.4276C42.8953 32.4964 42.9295 32.5612 42.9792 32.6139C43.061 32.7011 43.1773 32.7486 43.2944 32.7722C43.4115 32.7958 43.5319 32.7987 43.6508 32.8116C44.1869 32.8694 44.6811 33.1293 45.1251 33.4357L46.4322 34.3875C47.4374 35.026 48.6389 35.3099 49.8293 35.3551C51.0197 35.4004 52.2072 35.2189 53.3751 34.9851C54.303 34.7995 55.2286 34.5801 56.109 34.2325C57.4577 33.7008 58.6732 32.8823 59.8345 32.0152C60.3621 31.6212 60.8824 31.2151 61.3563 30.7577C61.5172 30.6024 61.673 30.4411 61.8453 30.299C62.0176 30.1568 62.2091 30.0331 62.4219 29.9646C62.7459 29.8604 63.0979 29.8902 63.4337 29.9462C63.6867 29.9886 63.9404 30.0456 64.1966 30.0346C64.3248 30.0294 64.4533 30.0073 64.5722 29.9595C64.6911 29.9116 64.8012 29.838 64.8826 29.7386C64.9888 29.6056 65.0463 29.4403 65.0453 29.2702C65.0461 29.1016 64.9938 28.9351 64.9091 28.7897C64.7379 28.4988 64.4422 28.3026 64.134 28.1656C63.7121 27.9778 63.2555 27.8857 62.8063 27.7768C61.4274 27.4439 60.0871 26.952 58.8164 26.3209C58.1846 26.0072 57.5704 25.6596 56.9489 25.3267C56.3097 24.9843 55.6583 24.6551 54.9643 24.4449C53.413 23.9747 51.7167 24.129 50.1861 24.6606C48.485 25.2512 46.947 26.3039 45.7801 27.6755L45.7813 27.6766Z" fill="black"/>
</g>
<path d="M49.0803 25.728C49.7309 24.9964 50.1761 24.1043 50.8013 23.3505C51.1143 22.9739 51.4744 22.6307 51.8993 22.387C52.3242 22.1432 52.8169 22.004 53.3047 22.046C53.8475 22.0931 54.3559 22.3634 54.7532 22.7364C55.1505 23.1094 55.4455 23.5832 55.6811 24.0711C55.9065 24.5417 56.0854 25.0432 56.4102 25.4519C56.7563 25.8878 57.2423 26.1853 57.6805 26.5281C57.8999 26.6994 58.1102 26.8853 58.2836 27.1025C58.457 27.3198 58.5929 27.5724 58.6481 27.8452C58.7024 28.1244 58.6788 28.4132 58.58 28.6799C58.4835 28.945 58.3197 29.1851 58.1161 29.381C57.7088 29.7731 57.1536 29.9848 56.5939 30.064C55.4746 30.2223 54.3423 29.8887 53.2123 29.9204C52.0683 29.9517 50.9508 30.3564 49.8072 30.3144C49.2353 30.2934 48.6554 30.1539 48.1856 29.8273C47.9486 29.665 47.7484 29.4547 47.5979 29.2101C47.4499 28.9653 47.3597 28.6836 47.3501 28.3979C47.3409 28.1254 47.4046 27.8529 47.5136 27.6026C47.6226 27.3522 47.7761 27.1232 47.9488 26.9118C48.2949 26.4891 48.7173 26.1364 49.0799 25.7284L49.0803 25.728Z" fill="url(#paint2_radial_2704_2807)"/>
<g filter="url(#filter3_f_2704_2807)">
<path d="M61.8358 5.47218C60.8919 6.13825 61.3043 6.96978 61.7103 7.8047C62.1163 8.63963 60.8176 11.046 60.8036 11.1495C60.7896 11.253 63.3598 9.92977 64.0602 9.06982C64.8875 8.05459 66.9778 10.4435 66.8645 10.0795C66.8653 9.42916 62.7802 4.8061 61.8363 5.47218H61.8358Z" fill="#7C7C7C"/>
</g>
<path d="M59.9652 20.1663C59.5805 20.194 59.2053 20.3254 58.879 20.5345C58.5528 20.7437 58.2741 21.0187 58.0554 21.3372C57.6183 21.9735 57.4257 22.7537 57.3952 23.5244C57.372 24.1032 57.4357 24.6897 57.6279 25.2365C57.8201 25.7833 58.1434 26.2896 58.59 26.6589C59.0466 27.037 59.6269 27.2642 60.2193 27.2922C60.8117 27.3202 61.4123 27.1497 61.8983 26.811C62.286 26.5411 62.5986 26.1695 62.8214 25.7531C63.0442 25.3367 63.1786 24.8757 63.2393 24.4073C63.3476 23.58 63.2253 22.7162 62.8428 21.9746C62.4602 21.233 61.8118 20.6222 61.0286 20.3339C60.6899 20.2087 60.3253 20.1439 59.9652 20.1697V20.1663Z" fill="#020204"/>
<g filter="url(#filter4_f_2704_2807)">
<path d="M60.8836 22.6904C60.5647 22.8163 60.0599 22.7372 59.9203 23.0502C59.8375 23.2357 59.9546 23.541 60.1424 23.6172C60.5224 23.7718 61.1115 23.492 61.2654 23.1109C61.3317 22.9452 61.2312 22.6838 61.0666 22.6138C61.0058 22.5881 60.9451 22.6654 60.8839 22.6897L60.8836 22.6904Z" fill="#141413"/>
</g>
<g filter="url(#filter5_f_2704_2807)">
<path d="M62.345 23.5188C62.7721 23.0917 62.0409 21.9576 61.4705 21.4937C61.0574 21.1575 59.8541 20.8051 59.9057 21.1715C59.9572 21.5379 60.4948 22.0059 60.8611 22.3634C61.3074 22.8034 62.1425 23.7221 62.345 23.5188Z" fill="url(#paint3_linear_2704_2807)"/>
</g>
<mask id="mask0_2704_2807" style="mask-type:luminance" maskUnits="userSpaceOnUse" x="54" y="16" width="12" height="13">
<path d="M57.6043 17.0752C56.6664 17.8584 55.6866 18.769 55.303 19.9288C54.8206 21.3869 54.7017 23.2121 55.4871 24.5314C56.9304 26.9549 60.0469 29.631 62.7591 28.8578C64.5541 28.346 65.0077 25.728 65.3365 23.887C65.5538 22.6694 65.556 21.2385 64.8763 20.205C63.5463 18.1824 61.037 16.5619 58.6168 16.5229C58.2324 16.5167 57.8988 16.8285 57.6043 17.0752Z" fill="white"/>
</mask>
<g mask="url(#mask0_2704_2807)">
<path d="M53.7382 20.8033C54.6192 20.0724 55.6353 19.522 56.7287 19.1832C58.9696 18.491 61.5154 18.7646 63.4956 20.0209C64.1793 20.4546 64.7887 20.9937 65.425 21.4952C66.0612 21.9967 66.7358 22.4672 67.5002 22.736C67.9126 22.8811 68.3537 22.9654 68.7889 22.9201C69.1821 22.8789 69.5621 22.7316 69.8876 22.5077C70.2131 22.2839 70.4859 21.9856 70.6903 21.6472C71.0997 20.9708 71.2315 20.1505 71.1609 19.3633C71.0198 17.7885 70.1314 16.3981 69.3868 15.0037C69.1538 14.567 68.9317 14.1226 68.6504 13.715C67.7877 12.4646 66.4143 11.6398 64.9739 11.1567C63.5335 10.6736 62.0113 10.4991 60.5039 10.3091C59.8316 10.2244 59.1515 10.1361 58.4788 10.2171C57.7056 10.3102 56.978 10.6221 56.2235 10.8154C55.8653 10.9074 55.5004 10.9719 55.1454 11.0746C54.7905 11.1773 54.4411 11.3213 54.1524 11.5518C53.7308 11.8891 53.4657 12.395 53.3508 12.9226C53.2359 13.4503 53.2624 13.9993 53.3464 14.5324C53.515 15.5987 53.9134 16.64 53.8759 17.7189C53.8501 18.4597 53.6174 19.1873 53.6457 19.9281C53.6542 20.149 53.6851 20.3615 53.7378 20.5724" fill="url(#paint4_linear_2704_2807)"/>
</g>
<g filter="url(#filter6_f_2704_2807)">
<path d="M61.1596 14.0424C60.984 14.2633 60.8253 14.5034 60.6993 14.7677C61.4895 14.9378 62.2458 15.2633 62.9196 15.7114C64.2249 16.5782 65.2161 17.8455 65.9113 19.2554C66.0733 19.0757 66.2213 18.8828 66.3487 18.6685C65.6498 17.2001 64.6388 15.872 63.2882 14.9754C62.6394 14.5446 61.9166 14.2191 61.16 14.0438L61.1596 14.0424Z" fill="url(#paint5_linear_2704_2807)"/>
</g>
<g filter="url(#filter7_f_2704_2807)">
<path d="M45.9249 14.7622C45.8358 14.7604 45.7492 14.7685 45.6598 14.7725L45.4867 14.7828C46.007 14.83 46.5243 14.9699 46.9941 15.1805C47.6348 15.4677 48.1996 15.8775 48.6971 16.344C49.6191 17.2075 50.3043 18.2734 50.7682 19.4038C50.6549 18.5496 50.3982 17.7207 50.009 16.9519C49.8271 16.742 49.6386 16.5358 49.4338 16.3444C48.9368 15.8782 48.3712 15.4688 47.7309 15.1809C47.1712 14.9294 46.5475 14.7729 45.9245 14.7618L45.9249 14.7622Z" fill="url(#paint6_linear_2704_2807)"/>
</g>
<path d="M44.4189 22.5063C44.2819 23.3333 44.2768 24.2008 44.561 24.9891C44.7451 25.5097 45.0581 25.9821 45.4344 26.3883C45.6811 26.6541 45.9602 26.8956 46.2872 27.0521C46.6142 27.2086 46.9927 27.2753 47.3439 27.1873C47.668 27.1063 47.9522 26.8964 48.1613 26.6361C48.3705 26.3757 48.5104 26.0642 48.6098 25.745C48.9033 24.8024 48.8565 23.7707 48.5649 22.8273C48.3524 22.1399 48.0008 21.4768 47.4503 21.0132C47.1878 20.7923 46.8804 20.6192 46.5464 20.5393C46.2124 20.4594 45.8505 20.4786 45.5383 20.6203C45.1914 20.7779 44.9226 21.078 44.7466 21.4157C44.5706 21.7533 44.4804 22.13 44.4182 22.5055L44.4189 22.5063Z" fill="#020204"/>
<g filter="url(#filter8_f_2704_2807)">
<path d="M46.1671 21.9079C46.2562 22.1413 46.5552 22.226 46.7194 22.4142C46.8788 22.5972 47.046 22.7861 47.1336 23.0125C47.3012 23.4455 46.9679 24.0877 47.3177 24.3933C47.4275 24.489 47.6473 24.4912 47.7552 24.3933C48.1768 24.0096 48.0829 23.2356 47.9164 22.6903C47.7655 22.1955 47.391 21.7271 46.9296 21.4918C46.7161 21.3832 46.3957 21.293 46.2131 21.4476C46.0953 21.5471 46.1122 21.7643 46.1671 21.9079Z" fill="url(#paint7_linear_2704_2807)"/>
</g>
<path d="M42.8768 32.7865C42.8989 32.8951 42.9405 33.0001 42.9972 33.0958C43.0952 33.2597 43.2381 33.3926 43.3923 33.5045C43.5466 33.6165 43.7138 33.7107 43.8754 33.812C44.7348 34.3521 45.4348 35.1117 46.057 35.9133C46.8917 36.9892 47.63 38.1833 48.7449 38.9657C49.5321 39.518 50.474 39.8329 51.4306 39.929C52.5536 40.042 53.6914 39.8605 54.7746 39.5416C55.7784 39.2459 56.7493 38.831 57.64 38.2823C59.3337 37.2381 60.7476 35.7075 62.6108 35.0212C63.0184 34.8713 63.4429 34.7642 63.8354 34.5793C64.2279 34.3945 64.5976 34.1176 64.7854 33.7258C64.9695 33.3495 64.9584 32.915 65.0173 32.5015C65.0799 32.0597 65.2213 31.6318 65.2987 31.1922C65.376 30.7526 65.3852 30.282 65.1956 29.8777C65.038 29.5426 64.7519 29.2783 64.4223 29.11C64.0928 28.9417 63.7227 28.8655 63.3531 28.8471C62.6144 28.8103 61.8847 28.9999 61.1483 29.0673C60.1725 29.1564 59.1901 29.0312 58.2111 29.0599C56.9931 29.0967 55.7927 29.3711 54.5754 29.43C53.1866 29.4974 51.801 29.2827 50.4118 29.2275C49.8101 29.2032 49.2041 29.2091 48.6105 29.3103C48.017 29.4116 47.4341 29.6137 46.9389 29.9558C46.4565 30.2894 46.0714 30.7437 45.6281 31.1281C45.4064 31.3203 45.1678 31.4963 44.9042 31.6241C44.6405 31.7519 44.3493 31.8318 44.0558 31.8255C43.9086 31.8218 43.7502 31.7972 43.6066 31.8428C43.5168 31.8712 43.4373 31.9264 43.3695 31.9923C43.3018 32.0582 43.2462 32.1348 43.1935 32.2132C43.071 32.3951 42.9643 32.587 42.8743 32.7869L42.8768 32.7865Z" fill="url(#paint8_radial_2704_2807)"/>
<g filter="url(#filter9_f_2704_2807)">
<path d="M48.328 34.2832C48.1904 34.8775 48.2778 35.5016 48.5733 36.0352C48.8688 36.5688 49.3515 36.974 49.9283 37.1725C50.6566 37.4155 51.4773 37.2962 52.1577 36.9413C52.5517 36.7351 52.9126 36.4457 53.1408 36.0635C53.2563 35.8724 53.3321 35.66 53.3636 35.439C53.3931 35.2181 53.3728 34.9898 53.2955 34.7818C53.2108 34.5535 53.0598 34.3517 52.8735 34.1941C52.6872 34.0365 52.4667 33.9224 52.2354 33.8458C51.7722 33.6926 51.2744 33.6897 50.7869 33.7132C50.0482 33.7487 49.3134 33.8414 48.5891 33.9905" fill="#D9B30D"/>
</g>
<g filter="url(#filter10_f_2704_2807)">
<path d="M45.938 29.7112L44.5028 30.655C44.2609 30.8265 44.0116 31.0121 43.8842 31.2794C43.7936 31.4691 43.773 31.6844 43.7737 31.8943C43.7745 32.1042 43.7848 32.3156 43.7568 32.5203C43.7384 32.6624 43.7001 32.8023 43.6935 32.9456C43.6898 33.0174 43.6953 33.0892 43.7141 33.1591C43.732 33.2289 43.7668 33.2932 43.8153 33.3465C43.879 33.4139 43.9656 33.4555 44.0547 33.4828C44.1438 33.51 44.2351 33.5233 44.3257 33.5454C44.7583 33.647 45.1346 33.9125 45.4649 34.2096L46.4369 35.1213C47.3711 35.8812 48.6094 36.1964 49.8097 36.2159C51.01 36.2355 52.2045 35.984 53.3794 35.7189L56.1134 34.9663C57.4768 34.4637 58.7423 33.7026 59.8388 32.7489C60.3359 32.3167 60.8024 31.8417 61.3606 31.4915C61.854 31.1815 62.4074 30.9768 62.9093 30.6804C62.9542 30.6538 62.9988 30.6266 63.0389 30.5931C63.079 30.5596 63.1148 30.5202 63.1383 30.4734C63.1788 30.3924 63.1788 30.2967 63.1531 30.2098C63.1273 30.1229 63.0772 30.0463 63.0205 29.9763C62.9579 29.899 62.8868 29.8283 62.8106 29.7635C62.2863 29.3143 61.5746 29.1516 60.8864 29.0971C60.1982 29.0426 59.5019 29.0812 58.8244 28.9675C58.1838 28.857 57.5751 28.6214 56.9569 28.4236C56.3084 28.2139 55.6451 28.0527 54.9727 27.9413C53.3912 27.6835 51.763 27.7329 50.1945 28.0591C48.7003 28.3702 47.2599 28.9318 45.9454 29.7087L45.938 29.7112Z" fill="#604405"/>
</g>
<path d="M45.7812 28.0448C45.0705 28.5234 44.4313 29.1063 43.8901 29.7698C43.5808 30.1491 43.2995 30.5614 43.1437 31.0261C43.0211 31.3914 42.9795 31.778 42.9022 32.1554C42.8727 32.2968 42.8396 32.4389 42.8396 32.5825C42.84 32.6547 42.8492 32.7272 42.8713 32.7961C42.8934 32.8649 42.9294 32.9294 42.9795 32.9813C43.0624 33.0674 43.1783 33.1138 43.2954 33.1381C43.4125 33.1624 43.5326 33.1658 43.6511 33.1794C44.1869 33.2401 44.6799 33.5005 45.1239 33.8061L46.4325 34.7553C47.4392 35.3923 48.6399 35.6751 49.83 35.7211C51.02 35.7671 52.2075 35.5863 53.3758 35.3529C54.3036 35.1677 55.2293 34.9479 56.1097 34.6003C57.458 34.0686 58.6739 33.2501 59.8352 32.383C60.3628 31.989 60.8831 31.5828 61.357 31.1255C61.5179 30.9702 61.6736 30.8089 61.8459 30.6668C62.0183 30.5246 62.2097 30.4009 62.4225 30.3324C62.7466 30.2282 63.0986 30.258 63.4344 30.314C63.6873 30.3564 63.941 30.4134 64.1973 30.4024C64.3254 30.3972 64.4539 30.3751 64.5729 30.3273C64.6918 30.2794 64.8019 30.2058 64.8833 30.1063C64.9895 29.9734 65.0469 29.8081 65.046 29.638C65.0467 29.4694 64.9945 29.3029 64.9098 29.1575C64.7386 28.8666 64.4429 28.6704 64.1347 28.5334C63.7127 28.3456 63.2562 28.2535 62.807 28.1446C61.428 27.8117 60.0878 27.3198 58.8171 26.6887C58.1853 26.375 57.5711 26.0274 56.9496 25.6945C56.3104 25.3521 55.659 25.0229 54.9649 24.8127C53.4137 24.3425 51.7174 24.4968 50.1868 25.0284C48.4856 25.619 46.9477 26.6717 45.7808 28.0433L45.7812 28.0448Z" fill="url(#paint9_linear_2704_2807)"/>
<g filter="url(#filter11_f_2704_2807)">
<path d="M56.68 28.3858C56.5968 28.2805 56.4775 28.2061 56.3486 28.1685C56.2197 28.131 56.0817 28.1317 55.9495 28.1501C55.6844 28.1954 55.4472 28.3342 55.2256 28.4907C54.596 28.9237 54.04 29.4584 53.555 30.0482C52.9125 30.8288 52.3823 31.7317 52.2045 32.7269C52.175 32.8944 52.1548 33.0657 52.1758 33.235C52.1967 33.4044 52.2615 33.5719 52.3819 33.6927C52.4873 33.7988 52.6308 33.8636 52.7789 33.8849C52.9269 33.9063 53.0793 33.8856 53.2207 33.8378C53.5042 33.7421 53.7399 33.5432 53.9623 33.3444C55.1906 32.2453 56.3015 30.926 56.7459 29.3383C56.7901 29.1789 56.8284 29.0158 56.8269 28.8505C56.8254 28.6851 56.7824 28.5154 56.68 28.3858Z" fill="#F6DA4A"/>
</g>
<g opacity="0.8" filter="url(#filter12_f_2704_2807)">
<path d="M53.738 26.1102C53.8227 26.3834 54.2638 26.3385 54.5186 26.4692C54.7421 26.5841 54.9214 26.8363 55.1729 26.8437C55.4123 26.8511 55.7856 26.7609 55.8173 26.5234C55.8585 26.2093 55.3997 26.0097 55.1048 25.8945C54.7256 25.7464 54.2384 25.6713 53.8824 25.8694C53.8006 25.9147 53.7115 26.0211 53.7395 26.1106L53.738 26.1102Z" fill="url(#paint10_radial_2704_2807)"/>
</g>
<g opacity="0.8" filter="url(#filter13_f_2704_2807)">
<path d="M49.532 25.9519C49.2051 25.8451 48.6642 26.422 48.8405 26.7177C48.8891 26.7987 49.0375 26.9018 49.1373 26.8466C49.2883 26.7637 49.4113 26.4673 49.5744 26.3514C49.6834 26.274 49.6591 25.9935 49.5317 25.9522L49.532 25.9519Z" fill="url(#paint11_radial_2704_2807)"/>
</g>
<g filter="url(#filter14_f_2704_2807)">
<path d="M63.9501 31.5643C64.5311 31.5643 65.0675 30.9817 65.148 30.263C65.2286 29.5443 64.8229 28.9617 64.2418 28.9617C63.6607 28.9617 63.1244 29.5443 63.0438 30.263C62.9633 30.9817 63.369 31.5643 63.9501 31.5643Z" fill="url(#paint12_linear_2704_2807)"/>
</g>
<mask id="mask1_2704_2807" style="mask-type:luminance" maskUnits="userSpaceOnUse" x="42" y="16" width="9" height="14">
<path d="M45.9991 17.0752C44.6029 18.8389 42.8627 21.3795 42.9824 23.4268C43.1021 25.474 44.4037 28.5577 46.0661 29.318C47.7286 30.0784 48.1848 29.3228 49.1333 28.3975C50.0818 27.4722 50.5545 25.692 50.6083 23.887C50.6621 22.0821 49.4908 19.498 48.6053 18.2719C47.7197 17.0458 47.395 15.3115 45.9984 17.0752H45.9991Z" fill="white"/>
</mask>
<g mask="url(#mask1_2704_2807)">
<path d="M44.5852 19.7134C45.5739 19.1243 46.7779 18.988 47.9238 19.0963C49.0696 19.2045 50.179 19.5411 51.2891 19.8437C52.1036 20.0654 52.9284 20.2708 53.6917 20.631C54.455 20.9911 55.1645 21.5205 55.585 22.2522L55.7838 22.6064C55.8552 22.7212 55.9396 22.831 56.0474 22.912C56.1553 22.993 56.2894 23.046 56.4245 23.0386C56.4922 23.035 56.5593 23.0166 56.6174 22.9819C56.6756 22.9473 56.7253 22.8972 56.7566 22.8376C56.7927 22.7687 56.8037 22.6888 56.7997 22.6108C56.7936 22.5331 56.7792 22.4563 56.7566 22.3818C56.4786 21.3681 55.8232 20.5083 55.3243 19.5834L54.4782 17.8911C53.4406 15.9912 51.7372 14.4978 49.802 13.529C47.8667 12.5603 45.705 12.0945 43.5436 11.9678C41.0398 11.8213 38.5287 12.1188 36.058 12.5533C34.9865 12.7418 33.9003 12.9638 32.9518 13.4966C32.478 13.7628 32.0435 14.1067 31.7044 14.5313C31.3652 14.9558 31.1241 15.4647 31.046 16.003C30.9709 16.5222 31.0497 17.0561 31.2301 17.548C31.4105 18.0399 31.6933 18.4898 32.0243 18.8963C32.686 19.7093 33.534 20.3449 34.3153 21.043C35.0966 21.7411 35.8249 22.5128 36.695 23.0913C37.1317 23.3803 37.6056 23.6197 38.11 23.7603C38.6144 23.901 39.152 23.9407 39.6653 23.8354C40.1974 23.7264 40.69 23.4654 41.1212 23.1351C41.5523 22.8048 41.9261 22.4061 42.2803 21.9944C42.9891 21.1711 43.6511 20.269 44.5841 19.713L44.5852 19.7134Z" fill="url(#paint13_radial_2704_2807)"/>
</g>
<path d="M79.458 55.0327C81.6985 56.835 83.1201 59.5564 83.5598 62.3979C83.9029 64.6145 83.6798 66.8881 83.1805 69.0742C82.6812 71.2602 81.9095 73.3733 81.1436 75.4809C80.838 76.3215 80.5316 77.1699 80.4101 78.0558C80.2886 78.9417 80.3659 79.8799 80.7931 80.6656C81.2828 81.5662 82.197 82.1863 83.1798 82.4783C84.15 82.7666 85.1975 82.7603 86.1799 82.5158C87.1623 82.2713 88.0787 81.793 88.8781 81.1719C90.9091 79.5949 92.1345 77.14 92.6087 74.6134C93.083 72.0868 92.865 69.477 92.4246 66.9437C91.8234 63.49 90.8112 60.1135 89.5232 56.852C88.5758 54.4531 87.4671 52.0948 85.9185 50.0328C84.4026 48.0151 82.4916 46.3165 81.0066 44.276C79.9745 42.8584 79.1479 41.2751 77.9115 40.032C77.2929 39.4105 76.5712 38.8788 75.7538 38.5611C74.9364 38.2433 74.0185 38.1501 73.1746 38.388C72.0626 38.701 71.1494 39.5773 70.6697 40.6274C70.1899 41.6775 70.1015 42.8819 70.2897 44.0223C70.5327 45.4932 71.205 46.8585 71.9635 48.1425C72.8203 49.5921 73.8126 50.9876 75.1065 52.0653C76.4567 53.1902 78.0897 53.9321 79.4587 55.0331L79.458 55.0327Z" fill="#020204"/>
<mask id="mask2_2704_2807" style="mask-type:luminance" maskUnits="userSpaceOnUse" x="70" y="38" width="23" height="45">
<path d="M79.4576 55.0327C81.7127 56.8454 83.1226 59.5679 83.5597 62.3979C84.2438 66.8274 82.6803 71.2625 81.1433 75.4813C80.8371 76.3227 80.5286 77.1751 80.4067 78.0569C80.2849 78.9388 80.3618 79.8788 80.7928 80.666C81.2813 81.5589 82.1918 82.1849 83.1796 82.4787C84.1505 82.7674 85.2016 82.7585 86.1841 82.5126C87.1666 82.2666 88.0808 81.7879 88.8782 81.1723C90.9324 79.589 92.1612 77.1272 92.6268 74.6021C93.0923 72.0769 92.8667 69.473 92.4206 66.9442C91.8122 63.4941 90.8049 60.1177 89.5192 56.8524C88.5753 54.4565 87.4695 52.0989 85.9138 50.0333C84.3971 48.0192 82.4793 46.3144 81.002 44.2764C79.9779 42.861 79.1652 41.2829 77.9312 40.0391C77.3141 39.4168 76.5903 38.8848 75.7682 38.5663C74.9462 38.2478 74.0199 38.1524 73.1693 38.3888C72.6052 38.5457 72.0852 38.8443 71.6557 39.2357C71.2261 39.6271 70.8861 40.1105 70.6462 40.636C70.1663 41.6864 70.0925 42.8864 70.2844 44.0227C70.5318 45.4893 71.2006 46.8553 71.9585 48.1429C72.811 49.5907 73.8021 50.9854 75.1014 52.0658C76.4509 53.1877 78.086 53.934 79.4535 55.0335" fill="white"/>
</mask>
<g mask="url(#mask2_2704_2807)">
<g filter="url(#filter15_f_2704_2807)">
<path d="M74.1844 51.5598L74.7467 52.0661C76.1213 53.191 76.8534 54.4539 78.2472 55.5556C80.5282 57.3579 82.8429 60.4689 83.2905 63.3099C83.6399 65.5265 83.1781 66.7306 82.6139 69.3441C82.0497 71.9576 80.451 75.6581 79.5873 78.178C79.2424 79.1832 80.2845 78.7683 80.1481 79.8276C80.0795 80.3479 80.0751 80.8744 80.135 81.3958L80.1612 81.0931C80.3273 79.6486 80.7696 78.2598 81.252 76.8974C82.1794 74.2751 83.244 71.7057 83.978 69.0149C84.712 66.3241 84.6303 64.3888 84.2479 62.0765C83.7662 59.1691 82.0749 56.4845 79.6795 54.7124C77.9851 53.4594 75.9883 52.656 74.1856 51.5598H74.1844Z" fill="#838384"/>
</g>
</g>
<g opacity="0.25" filter="url(#filter16_f_2704_2807)">
<path d="M39.2553 49.9305C39.6293 50.4917 39.0228 52.4262 47.7404 51.1879C47.7404 51.1879 46.2095 51.3562 44.7002 51.7049C42.3541 52.4903 40.3098 53.3681 38.733 54.5309C37.1706 55.6804 36.0269 57.1808 34.5933 58.4695C34.5933 58.4695 36.9147 54.2278 37.4932 52.9513C38.0716 51.6747 37.3963 51.7362 37.8544 49.8532C38.3126 47.9702 39.4325 46.1686 39.4325 46.1686C39.4325 46.1686 38.5179 48.8233 39.2553 49.9302V49.9305Z" fill="url(#paint14_radial_2704_2807)"/>
</g>
<g opacity="0.42" filter="url(#filter17_f_2704_2807)">
<path d="M67.2881 49.4242C65.5115 50.6614 64.4706 50.5152 62.3147 50.7571C60.1589 50.999 54.3254 50.9118 54.3254 50.9118C54.3254 50.9118 55.1701 50.8959 57.0421 51.2446C58.914 51.5933 62.7319 51.9265 64.8819 52.7451C67.0318 53.5636 67.8157 53.797 69.1225 54.6229C70.9819 55.799 72.3472 57.6411 74.1253 58.9298C74.1253 58.9298 74.2114 57.2198 73.4934 55.9429C72.7754 54.666 70.8424 52.653 70.2783 50.7733C69.7142 48.8936 69.441 45.2017 69.441 45.2017C69.441 45.2017 69.0654 48.186 67.2884 49.4235L67.2881 49.4242Z" fill="url(#paint15_radial_2704_2807)"/>
</g>
<g opacity="0.2" filter="url(#filter18_f_2704_2807)">
<path d="M50.5789 46.7813L50.3223 48.3808C50.2707 48.6422 50.2136 48.9036 50.1161 49.1514C50.0185 49.3992 49.8789 49.6345 49.6816 49.8127C49.5085 49.9688 49.2972 50.0763 49.0851 50.1735C48.2574 50.5528 47.3715 50.8043 46.4679 50.9173L47.5486 51.016C47.775 51.0407 48.0022 51.0683 48.2231 51.125C48.444 51.1817 48.6594 51.2723 48.8432 51.403C49.045 51.5503 49.2033 51.752 49.3218 51.9722C49.5575 52.4111 49.6363 52.9159 49.6801 53.4082C49.7353 54.0426 49.7398 54.6822 49.6923 55.317C49.735 54.8921 49.8241 54.4716 49.9574 54.0658C50.1978 53.3346 50.5848 52.649 51.1062 52.0827C51.3131 51.8581 51.5406 51.6519 51.791 51.4759C52.567 50.9347 53.5174 50.7034 54.4554 50.8275C53.5041 50.8662 52.5686 50.5758 51.8065 50.0053C51.4228 49.7162 51.0885 49.3561 50.8565 48.9356C50.4962 48.2767 50.3975 47.5061 50.58 46.7776L50.5789 46.7813Z" fill="url(#paint16_radial_2704_2807)"/>
</g>
<g opacity="0.1" filter="url(#filter19_f_2704_2807)">
<path d="M48.3071 59.3149C47.8542 61.0389 47.5431 62.7971 47.3771 64.5718C47.1425 67.08 47.1988 69.6059 47.0641 72.1218C46.9536 74.2567 46.6996 76.4136 47.07 78.519C47.2467 79.5231 47.5645 80.5018 48.0107 81.4186C48.0816 81.0687 48.1334 80.7152 48.1661 80.3597C48.3233 78.6527 48.0358 76.9401 47.9386 75.2287C47.7685 72.229 48.1838 69.227 48.3528 66.2306C48.4826 63.9268 48.4672 61.6171 48.3068 59.3153L48.3071 59.3149Z" fill="black"/>
</g>
<g filter="url(#filter20_f_2704_2807)">
<path d="M68.9958 33.4604C68.1997 34.1857 69.3691 35.2749 69.9236 36.5548C70.2683 37.3501 71.2223 38.4713 72.1446 38.2919C72.8387 38.1568 73.2691 37.1579 73.2036 36.4546C73.0769 35.0959 71.9307 34.7782 71.0986 34.3116C70.4395 33.942 69.5547 32.9515 68.9961 33.4611L68.9958 33.4604Z" fill="#838384"/>
</g>
<g opacity="0.2" filter="url(#filter21_f_2704_2807)">
<path d="M94.5374 92.8407C94.3623 93.4161 94.1011 93.9634 93.7623 94.4648C93.0136 95.5738 91.927 96.4089 90.8407 97.1785C88.988 98.4915 87.0585 99.6963 85.3344 101.192C84.1789 102.192 83.1262 103.313 82.1496 104.493C81.3147 105.502 80.5298 106.562 79.5785 107.459C78.6181 108.365 77.4876 109.097 76.2693 109.496C74.7879 109.981 73.2226 109.957 71.7956 109.591C70.7956 109.335 69.8204 108.889 69.2011 108.083C68.5791 107.274 68.3776 106.186 68.3057 105.118C68.1783 103.229 68.404 101.3 68.6094 99.3833C68.7803 97.7904 68.9376 96.1965 69.0026 94.6069C69.116 91.7158 68.9281 88.8497 68.5368 86.0377C68.4714 85.5664 68.3999 85.0922 68.4396 84.6069C68.4793 84.1216 68.6419 83.6171 68.9825 83.2427C69.2971 82.8966 69.7361 82.6918 70.1736 82.591C70.611 82.4901 71.0546 82.4805 71.4943 82.4731C72.5303 82.4455 73.5723 82.3848 74.5928 82.4753C75.2367 82.5328 75.8682 82.6502 76.511 82.7121C77.584 82.8152 78.6964 82.7611 79.7728 82.4455C80.9314 82.106 82.0362 81.469 83.2136 81.2941C83.6964 81.2223 84.1815 81.2304 84.6504 81.2963C85.1294 81.3634 85.6062 81.4959 85.9745 81.7883C86.2543 82.0107 86.4592 82.3159 86.6195 82.6414C86.8577 83.1263 87.0052 83.6613 87.0884 84.2099C87.1629 84.696 87.189 85.1967 87.3145 85.6669C87.5206 86.4402 87.9875 87.0978 88.5497 87.6331C89.112 88.1685 89.7691 88.5912 90.4251 89.008C91.0793 89.423 91.7364 89.8354 92.4348 90.1774C92.7626 90.338 93.0995 90.483 93.4125 90.6683C93.7256 90.8535 94.0175 91.0806 94.2254 91.3807C94.5075 91.7876 94.6209 92.3208 94.5362 92.8443" fill="url(#paint17_linear_2704_2807)"/>
</g>
<mask id="mask3_2704_2807" style="mask-type:luminance" maskUnits="userSpaceOnUse" x="70" y="77" width="32" height="34">
<path d="M101.883 94.2192C102.218 94.8072 101.305 95.4667 100.846 95.9637C99.8365 97.0584 98.4712 97.7687 97.2024 98.5485C95.0248 99.8869 92.5557 100.722 90.4201 102.126C88.9903 103.066 87.7219 104.233 86.4214 105.345C85.3087 106.297 84.4029 107.509 83.1694 108.297C81.9359 109.086 80.5758 109.827 79.1228 110.01C77.3617 110.231 75.4879 109.915 73.8575 109.213C72.7179 108.722 71.5894 107.968 70.9255 106.919C70.2579 105.864 70.167 104.512 70.1033 103.265C69.9903 101.034 70.6052 98.8243 70.9052 96.6103C71.1556 94.7685 71.5875 92.9492 71.7374 91.0964C72.0099 87.7303 71.4502 84.3185 71.8552 80.966C71.9859 79.8846 71.7889 78.5138 72.596 77.7833C73.3464 77.1039 74.5954 77.3709 75.6079 77.3919C76.8396 77.4176 78.0499 77.7417 79.2495 78.0241C80.0065 78.2019 80.7216 78.5432 81.4852 78.6905C82.7518 78.9346 84.0501 79.083 85.3392 79.0411C86.7329 78.9954 88.0776 78.3798 89.472 78.3912C90.0434 78.396 90.6222 78.495 91.1605 78.6857C91.7066 78.879 92.2607 79.1298 92.6786 79.5308C92.9971 79.8364 93.2052 80.2513 93.3709 80.6612C93.6183 81.2731 93.7 81.9418 93.8006 82.5942C93.8897 83.1738 93.7442 83.7983 93.953 84.3469C94.6268 86.1143 96.0065 87.5602 97.3497 88.8916C97.9915 89.6041 98.8335 90.1929 99.6204 90.6693C100.456 91.1752 101.229 91.5714 101.632 92.4426C101.875 92.9894 101.432 93.827 101.883 94.2196L101.883 94.2192Z" fill="white"/>
</mask>
<g mask="url(#mask3_2704_2807)">
<path d="M101.883 94.2192C101.636 94.8525 101.284 95.4442 100.846 95.9638C99.88 97.1107 98.5382 97.8674 97.2024 98.5486C94.9232 99.7099 92.5623 100.729 90.4201 102.126C88.9848 103.062 87.66 104.161 86.4214 105.345C85.362 106.358 84.3572 107.439 83.1694 108.298C81.9705 109.163 80.5846 109.79 79.1228 110.01C77.3444 110.277 75.507 109.931 73.8575 109.213C72.7021 108.71 71.5908 107.989 70.9255 106.919C70.2576 105.845 70.1051 104.53 70.1033 103.265C70.1003 101.027 70.5149 98.8096 70.9052 96.6103C71.2292 94.7796 71.5385 92.9449 71.7374 91.0965C72.0993 87.7348 72.0967 84.3388 71.8552 80.9661C71.8184 80.4012 71.7676 79.8309 71.8523 79.2709C71.9369 78.7108 72.1671 78.1526 72.596 77.7833C72.9926 77.442 73.5239 77.2914 74.0468 77.2627C74.5696 77.2339 75.0902 77.3168 75.6079 77.3923C76.8278 77.5705 78.0572 77.7108 79.2495 78.0245C80.0017 78.2222 80.7344 78.4884 81.4852 78.6909C82.7382 79.0297 84.0501 79.1917 85.3392 79.0415C86.7273 78.8794 88.075 78.3577 89.4719 78.3916C90.0452 78.4056 90.6134 78.5138 91.1605 78.6861C91.7184 78.8621 92.2688 79.114 92.6786 79.5312C92.9901 79.8478 93.2074 80.2473 93.3709 80.6616C93.6139 81.2779 93.7446 81.9344 93.8005 82.5946C93.8503 83.1793 93.8422 83.7707 93.953 84.3473C94.1352 85.2954 94.6331 86.16 95.252 86.9008C95.871 87.6416 96.6144 88.2705 97.3493 88.892C98.0857 89.5106 98.8258 90.1274 99.62 90.6697C99.9926 90.9245 100.377 91.1631 100.731 91.4429C101.085 91.7228 101.41 92.0494 101.631 92.4426C101.931 92.9765 102.023 93.6238 101.883 94.2196L101.883 94.2192Z" fill="url(#paint18_linear_2704_2807)"/>
</g>
<mask id="mask4_2704_2807" style="mask-type:luminance" maskUnits="userSpaceOnUse" x="70" y="77" width="32" height="34">
<path d="M101.883 94.2192C102.218 94.8072 101.305 95.4667 100.846 95.9637C99.8365 97.0584 98.4712 97.7687 97.2024 98.5485C95.0248 99.8869 92.5557 100.722 90.4201 102.126C88.9903 103.066 87.7219 104.233 86.4214 105.345C85.3087 106.297 84.4029 107.509 83.1694 108.297C81.9359 109.086 80.5758 109.827 79.1228 110.01C77.3617 110.231 75.4879 109.915 73.8575 109.213C72.7179 108.722 71.5894 107.968 70.9255 106.919C70.2579 105.864 70.167 104.512 70.1033 103.265C69.9903 101.034 70.6052 98.8243 70.9052 96.6103C71.1556 94.7685 71.5875 92.9492 71.7374 91.0964C72.0099 87.7303 71.4502 84.3185 71.8552 80.966C71.9859 79.8846 71.7889 78.5138 72.596 77.7833C73.3464 77.1039 74.5954 77.3709 75.6079 77.3919C76.8396 77.4176 78.0499 77.7417 79.2495 78.0241C80.0065 78.2019 80.7216 78.5432 81.4852 78.6905C82.7518 78.9346 84.0501 79.083 85.3392 79.0411C86.7329 78.9954 88.0776 78.3798 89.472 78.3912C90.0434 78.396 90.6222 78.495 91.1605 78.6857C91.7066 78.879 92.2607 79.1298 92.6786 79.5308C92.9971 79.8364 93.2052 80.2513 93.3709 80.6612C93.6183 81.2731 93.7 81.9418 93.8006 82.5942C93.8897 83.1738 93.7442 83.7983 93.953 84.3469C94.6268 86.1143 96.0065 87.5602 97.3497 88.8916C97.9915 89.6041 98.8335 90.1929 99.6204 90.6693C100.456 91.1752 101.229 91.5714 101.632 92.4426C101.875 92.9894 101.432 93.827 101.883 94.2196L101.883 94.2192Z" fill="white"/>
</mask>
<g mask="url(#mask4_2704_2807)">
<g filter="url(#filter22_f_2704_2807)">
<path d="M100.736 93.0586C100.508 93.6295 100.188 94.1594 99.789 94.6271C98.9046 95.6633 97.6792 96.3407 96.4612 96.9505C94.3797 97.9925 92.2257 98.9086 90.268 100.167C88.9594 101.008 87.7495 101.995 86.6161 103.061C85.6477 103.971 84.7291 104.945 83.6462 105.715C82.5489 106.495 81.2831 107.058 79.9505 107.254C78.3267 107.493 76.6514 107.183 75.1425 106.537C74.0905 106.087 73.0743 105.444 72.4649 104.475C71.8589 103.512 71.7175 102.329 71.7138 101.19C71.709 99.1781 72.0886 97.188 72.4465 95.2078C72.7437 93.5619 73.0264 91.9131 73.2065 90.2506C73.5342 87.2284 73.5187 84.176 73.314 81.1431C73.2798 80.635 73.2404 80.1217 73.3184 79.6187C73.3965 79.1158 73.6049 78.6146 73.9908 78.2822C74.3527 77.9703 74.8387 77.8337 75.3163 77.8087C75.7939 77.7836 76.2688 77.8609 76.7412 77.9302C77.8543 78.094 78.977 78.2174 80.0661 78.4983C80.7528 78.6758 81.4226 78.9151 82.1078 79.0977C83.2529 79.4033 84.4503 79.5488 85.6279 79.4129C86.8945 79.2667 88.1269 78.798 89.402 78.8286C89.9248 78.8415 90.444 78.939 90.9447 79.0937C91.4536 79.2505 91.9573 79.4744 92.331 79.8533C92.6131 80.1386 92.8078 80.4991 92.9629 80.8695C93.1934 81.4207 93.3432 82.0099 93.3554 82.6075C93.3683 83.2312 93.2316 83.8575 93.3163 84.4754C93.3848 84.9772 93.5973 85.4504 93.8686 85.8782C94.14 86.3061 94.4703 86.6919 94.7976 87.0786C95.4298 87.826 96.0642 88.5871 96.857 89.1608C97.7598 89.814 98.8313 90.1954 99.764 90.8055C100.042 90.9874 100.311 91.1929 100.507 91.4609C100.671 91.6893 100.777 91.9537 100.817 92.2317C100.857 92.5098 100.829 92.7933 100.737 93.0586H100.736Z" fill="#CD8907"/>
</g>
</g>
<mask id="mask5_2704_2807" style="mask-type:luminance" maskUnits="userSpaceOnUse" x="70" y="77" width="32" height="34">
<path d="M101.883 94.2191C102.218 94.8072 101.305 95.4669 100.846 95.9637C99.836 97.0586 98.4707 97.7687 97.2015 98.5487C95.024 99.8872 92.5553 100.727 90.4191 102.126C88.9895 103.067 87.7215 104.234 86.4202 105.345C85.3075 106.297 84.4018 107.51 83.1679 108.297C81.934 109.085 80.5742 109.826 79.121 110.01C77.3598 110.231 75.4862 109.915 73.8604 109.213C72.7208 108.722 71.5878 107.968 70.9284 106.919C70.2609 105.864 70.1696 104.512 70.1065 103.265C69.9928 101.034 70.6081 98.8246 70.9086 96.6108C71.1586 94.7686 71.5904 92.9491 71.7406 91.0969C72.0129 87.7311 71.4536 84.319 71.8585 80.9663C71.9847 79.885 71.792 78.5143 72.5991 77.7838C73.3495 77.1045 74.5982 77.3754 75.6107 77.3926C76.8426 77.4189 78.0529 77.7429 79.2519 78.0247C80.0094 78.2026 80.724 78.5442 81.4879 78.6917C82.7504 78.9358 84.0525 79.0842 85.342 79.042C86.7358 78.9966 88.08 78.3804 89.4747 78.3922C90.0462 78.3968 90.6249 78.4966 91.1636 78.6871C91.7094 78.8804 92.2637 79.1318 92.6816 79.532C93.0001 79.8378 93.2076 80.2526 93.3734 80.6664C93.6209 81.2789 93.7025 81.9468 93.8027 82.5993C93.8919 83.1787 93.7463 83.804 93.9555 84.3516C94.6288 86.119 96.0092 87.565 97.3517 88.8963C97.9935 89.6087 98.8356 90.1976 99.6226 90.6741C100.458 91.18 101.23 91.5761 101.634 92.4473C101.877 92.994 101.434 93.8321 101.886 94.2246L101.883 94.2191Z" fill="white"/>
</mask>
<g mask="url(#mask5_2704_2807)">
<g filter="url(#filter23_f_2704_2807)">
<path d="M100.606 92.4155C100.353 92.9895 100.024 93.5245 99.6339 93.9991C98.7279 95.1008 97.5044 95.8594 96.2154 96.3458C94.0935 97.1476 91.7771 97.2551 89.6944 98.168C88.4251 98.7243 87.2829 99.5624 86.1256 100.355C85.1905 100.995 84.2351 101.612 83.2083 102.059C82.0488 102.565 80.8153 102.849 79.578 103.048C78.7911 103.176 77.9944 103.268 77.1994 103.224C76.4044 103.18 75.6069 102.994 74.9058 102.589C74.3738 102.281 73.8958 101.839 73.6113 101.265C73.2956 100.627 73.2409 99.8782 73.2485 99.1549C73.2679 97.2283 73.6803 95.3226 73.6677 93.3961C73.6567 91.719 73.3247 90.0633 73.2291 88.3895C73.0452 85.1702 73.7363 81.8951 73.1281 78.7371C73.0313 78.2316 72.9 77.7266 72.9063 77.2102C72.9097 76.9516 72.9484 76.693 73.0389 76.4539C73.1294 76.2147 73.2758 75.9978 73.4703 75.8467C73.6344 75.7197 73.828 75.6426 74.0271 75.6076C74.2261 75.5727 74.4298 75.5795 74.6297 75.6108C75.0287 75.673 75.4091 75.8295 75.7976 75.9452C76.9094 76.2764 78.084 76.2692 79.2136 76.5192C79.9227 76.6762 80.6095 76.9321 81.3111 77.1245C82.4895 77.4421 83.7183 77.5841 84.927 77.4421C86.2274 77.2901 87.4971 76.8182 88.8043 76.8522C89.34 76.8658 89.872 76.9657 90.3888 77.1199C90.9056 77.2742 91.4219 77.492 91.8129 77.8868C92.0949 78.1717 92.2969 78.5356 92.4619 78.9122C92.7017 79.4622 92.8688 80.0602 92.865 80.6673C92.8629 80.9835 92.8145 81.2971 92.7863 81.6111C92.7581 81.9251 92.7493 82.2481 92.8242 82.5535C92.8991 82.8588 93.0574 83.1374 93.2379 83.3884C93.4184 83.6393 93.623 83.8693 93.8094 84.1152C94.3321 84.8036 94.7058 85.6058 95.1128 86.3794C95.5197 87.153 95.9764 87.919 96.6194 88.4757C97.4948 89.2343 98.6302 89.5374 99.6057 90.1364C99.8919 90.312 100.168 90.5175 100.369 90.7988C100.53 91.0252 100.636 91.2914 100.677 91.5733C100.719 91.8551 100.694 92.1435 100.605 92.4123L100.606 92.4155Z" fill="#F5C021"/>
</g>
</g>
<g filter="url(#filter24_f_2704_2807)">
<path d="M72.9068 79.0395C74.113 78.7129 75.1403 79.6275 76.0152 80.3179C76.5804 80.8003 77.397 80.6788 78.0907 80.7016C79.2395 80.66 80.3828 80.8942 81.5324 80.7517C83.795 80.5602 86.0127 80.0042 88.286 79.9048C89.3722 79.8363 90.5909 79.7733 91.5291 80.4074C91.9095 80.671 92.4669 81.7845 92.8421 81.3666C92.6875 80.1964 91.8196 79.0631 90.655 78.7516C89.7437 78.608 88.814 78.8584 87.8971 78.7774C85.164 78.7122 82.4503 78.2048 79.7105 78.3502C77.8047 78.3668 75.9007 78.2784 73.9978 78.2041C73.2503 78.0513 72.9863 78.7159 72.5802 78.9699" fill="url(#paint19_linear_2704_2807)"/>
</g>
<g opacity="0.75" filter="url(#filter25_f_2704_2807)">
<path d="M78.3148 56.7901C78.752 56.7225 81.4508 59.017 81.0819 59.873C80.713 60.7291 80.0198 60.2116 79.5239 60.2173C79.028 60.2231 77.6716 60.8388 77.4444 60.4503C77.2172 60.0618 78.0444 59.1542 78.4773 58.3961C78.8259 57.7853 77.8774 56.8621 78.3149 56.7944L78.3148 56.7901Z" fill="#7C7C7C"/>
</g>
<g opacity="0.25" filter="url(#filter26_f_2704_2807)">
<path d="M40.2338 42.3493C40.1901 41.8206 39.4353 41.7416 39.0987 42.005C38.8144 42.228 38.5477 42.9885 38.793 43.2861C39.1916 43.7684 40.2933 43.0745 40.2338 42.35L40.2338 42.3493Z" fill="#7C7C7C"/>
</g>
<g opacity="0.35" filter="url(#filter27_f_2704_2807)">
<path d="M89.1719 80.8771C88.9646 80.4713 88.5876 80.1679 88.1667 79.9923C87.7459 79.8166 87.2841 79.7603 86.8287 79.764C85.9174 79.7713 85.0116 80.0085 84.104 79.9297C83.337 79.8634 82.609 79.5751 81.8579 79.3932C81.0858 79.2091 80.2665 79.1355 79.4996 79.3405C78.6799 79.5637 77.9568 80.1116 77.5039 80.8299C77.1048 81.4632 76.9148 82.2118 76.8559 82.9581C76.7969 83.7045 76.8606 84.4553 76.9361 85.2005C76.9906 85.7396 77.0517 86.2794 77.1821 86.8059C77.3124 87.3324 77.5149 87.8453 77.8323 88.2842C78.2889 88.9161 78.9675 89.3667 79.6991 89.6374C80.9077 90.0791 82.2373 90.0558 83.4298 89.5722C85.5138 88.6675 87.2775 87.0448 88.3527 85.0433C88.7374 84.3268 89.0364 83.5631 89.2297 82.7733C89.3063 82.4592 89.3667 82.1393 89.3696 81.816C89.3726 81.4927 89.3155 81.1643 89.1686 80.8771H89.1719Z" fill="url(#paint20_radial_2704_2807)"/>
</g>
<g opacity="0.35" filter="url(#filter28_f_2704_2807)">
<path d="M89.1719 80.4513C88.9646 80.158 88.5876 79.9387 88.1667 79.8117C87.7459 79.6847 87.2841 79.644 86.8287 79.6466C85.9174 79.652 85.0116 79.8234 84.104 79.7664C83.337 79.7185 82.609 79.5101 81.8579 79.3786C81.0858 79.2455 80.2665 79.1923 79.4996 79.3405C78.6799 79.5018 77.9568 79.8979 77.5039 80.4172C77.1048 80.8751 76.9148 81.4162 76.8559 81.9558C76.7969 82.4953 76.8606 83.0381 76.9361 83.5769C76.9906 83.9665 77.0517 84.3568 77.1821 84.7374C77.3124 85.1181 77.5149 85.4889 77.8323 85.8061C78.2889 86.2629 78.9675 86.5887 79.6991 86.7844C80.9077 87.1037 82.2373 87.0869 83.4298 86.7373C85.5138 86.0832 87.2775 84.9102 88.3527 83.4632C88.7374 82.9452 89.0364 82.3931 89.2297 81.8222C89.3063 81.5951 89.3667 81.3638 89.3696 81.1301C89.3726 80.8964 89.3155 80.6589 89.1686 80.4513H89.1719Z" fill="url(#paint21_radial_2704_2807)"/>
</g>
<path d="M90.904 77.0801C90.7549 76.6736 90.4923 76.3135 90.1713 76.0233C89.8502 75.7332 89.4717 75.5108 89.0729 75.3414C88.2757 75.0027 87.4086 74.8775 86.5573 74.7169L84.1537 74.2467C83.3179 74.1046 82.4533 74.014 81.626 74.2007C80.9021 74.3638 80.2327 74.7383 79.6848 75.2391C79.1369 75.7398 78.7091 76.3643 78.4016 77.0433C77.8596 78.2326 77.6891 79.571 77.7926 80.8737C77.8699 81.8432 78.1148 82.8421 78.7536 83.5763C79.2691 84.1691 80.0007 84.5392 80.7544 84.7619C82.0524 85.146 83.467 85.1257 84.7531 84.7049C86.892 83.982 88.7418 82.5905 90.0295 80.736C90.4493 80.1284 90.8071 79.4664 90.9695 78.7466C91.0932 78.1943 91.0977 77.6125 90.904 77.0841V77.0801Z" fill="#020204"/>
<mask id="mask6_2704_2807" style="mask-type:luminance" maskUnits="userSpaceOnUse" x="77" y="74" width="15" height="12">
<path d="M90.904 77.0801C90.7549 76.6736 90.4923 76.3135 90.1713 76.0233C89.8502 75.7332 89.4717 75.5108 89.0729 75.3414C88.2757 75.0027 87.4086 74.8775 86.5573 74.7169L84.1537 74.2467C83.3179 74.1046 82.4533 74.014 81.626 74.2007C80.9021 74.3638 80.2327 74.7383 79.6848 75.2391C79.1369 75.7398 78.7091 76.3643 78.4016 77.0433C77.8596 78.2326 77.6891 79.571 77.7926 80.8737C77.8699 81.8432 78.1148 82.8421 78.7536 83.5763C79.2691 84.1691 80.0007 84.5392 80.7544 84.7619C82.0523 85.146 83.467 85.1257 84.7531 84.7049C86.892 83.982 88.7418 82.5905 90.0295 80.736C90.4492 80.1284 90.8071 79.4664 90.9695 78.7466C91.0932 78.1943 91.0977 77.6125 90.904 77.0841" fill="white"/>
</mask>
<g mask="url(#mask6_2704_2807)">
<g filter="url(#filter29_f_2704_2807)">
<path d="M82.0788 73.8133C81.8782 73.8242 81.6784 73.8474 81.4805 73.8825C80.2028 74.1097 79.0331 74.9172 78.374 76.0343C77.9089 76.8307 77.6963 77.7494 77.7642 78.6692C77.7911 78.0278 77.9594 77.4 78.2705 76.8392C78.7985 75.8885 79.7551 75.1712 80.8251 74.9754C81.4879 74.8546 82.1624 74.9275 82.8274 75.01C83.4655 75.0895 84.1088 75.1731 84.7377 75.3093C85.7097 75.5199 86.6722 75.8432 87.4881 76.4139C87.6781 76.5465 87.8563 76.6975 88.0058 76.8742C88.1553 77.0509 88.2717 77.2564 88.3166 77.4839C88.3821 77.8168 88.2871 78.1662 88.1215 78.4619C87.9558 78.7576 87.7293 79.0168 87.4881 79.2557C87.293 79.4494 87.085 79.6365 86.8784 79.8191C87.821 79.6365 88.7754 79.378 89.5589 78.8297C89.8903 78.5978 90.1904 78.3198 90.3874 77.9667C90.5844 77.6135 90.668 77.1861 90.5715 76.7932C90.5063 76.5281 90.3616 76.2843 90.1804 76.08C89.9993 75.8756 89.7828 75.7073 89.5593 75.5509C88.5725 74.8597 87.4182 74.4168 86.2226 74.2732C85.4568 74.1322 84.6835 74.0132 83.9103 73.916C83.3053 73.8402 82.6879 73.7787 82.0803 73.8129L82.0788 73.8133Z" fill="url(#paint22_radial_2704_2807)"/>
</g>
</g>
<mask id="mask7_2704_2807" style="mask-type:luminance" maskUnits="userSpaceOnUse" x="77" y="74" width="15" height="12">
<path d="M90.904 77.0801C90.7549 76.6736 90.4923 76.3135 90.1713 76.0233C89.8502 75.7332 89.4717 75.5108 89.0729 75.3414C88.2757 75.0027 87.4086 74.8775 86.5573 74.7169L84.1537 74.2467C83.3179 74.1046 82.4533 74.014 81.626 74.2007C80.9021 74.3638 80.2327 74.7383 79.6848 75.2391C79.1369 75.7398 78.7091 76.3643 78.4016 77.0433C77.8596 78.2326 77.6891 79.571 77.7926 80.8737C77.8699 81.8432 78.1148 82.8421 78.7536 83.5763C79.2691 84.1691 80.0007 84.5392 80.7544 84.7619C82.0523 85.146 83.467 85.1257 84.7531 84.7049C86.892 83.982 88.7418 82.5905 90.0295 80.736C90.4492 80.1284 90.8071 79.4664 90.9695 78.7466C91.0932 78.1943 91.0977 77.6125 90.904 77.0841" fill="white"/>
</mask>
<g mask="url(#mask7_2704_2807)">
<g filter="url(#filter30_f_2704_2807)">
<path d="M82.0788 73.8133C81.8782 73.8242 81.6784 73.8474 81.4805 73.8825C80.2028 74.1097 79.0331 74.9172 78.374 76.0343C77.9089 76.8307 77.6963 77.7494 77.7642 78.6692C77.7911 78.0278 77.9594 77.4 78.2705 76.8392C78.7985 75.8885 79.7551 75.1712 80.8251 74.9754C81.4879 74.8546 82.1624 74.9275 82.8274 75.01C83.4655 75.0895 84.1088 75.1731 84.7377 75.3093C85.7097 75.5199 86.6722 75.8432 87.4881 76.4139C87.6781 76.5465 87.8563 76.6975 88.0058 76.8742C88.1553 77.0509 88.2717 77.2564 88.3166 77.4839C88.3821 77.8168 88.2871 78.1662 88.1215 78.4619C87.9558 78.7576 87.7293 79.0168 87.4881 79.2557C87.293 79.4494 87.085 79.6365 86.8784 79.8191C87.821 79.6365 88.7754 79.378 89.5589 78.8297C89.8903 78.5978 90.1904 78.3198 90.3874 77.9667C90.5844 77.6135 90.668 77.1861 90.5715 76.7932C90.5063 76.5281 90.3616 76.2843 90.1804 76.08C89.9993 75.8756 89.7828 75.7073 89.5593 75.5509C88.5725 74.8597 87.4182 74.4168 86.2226 74.2732C85.4568 74.1322 84.6835 74.0132 83.9103 73.916C83.3053 73.8402 82.6879 73.7787 82.0803 73.8129L82.0788 73.8133Z" fill="url(#paint23_linear_2704_2807)"/>
</g>
</g>
<path d="M40.2059 39.9271L33.9752 47.7279C32.6743 49.3406 31.3425 50.9659 30.4956 52.857C29.7681 54.4819 29.4242 56.247 28.9252 57.9566C28.3589 59.8978 27.5901 61.7749 26.7271 63.6034C25.9299 65.2916 25.0517 66.9404 24.1717 68.5874C23.5318 69.7856 22.8812 71.0102 22.6591 72.3505C22.4839 73.4094 22.5855 74.5022 22.8558 75.5413C23.126 76.5804 23.5554 77.5701 24.048 78.526C26.1346 82.6039 29.2655 86.1191 32.974 88.8081C34.6567 90.0283 36.4598 91.0836 38.3505 91.9474C39.3749 92.415 40.4545 92.8326 41.5804 92.8521C42.1438 92.8617 42.7123 92.7692 43.2278 92.5428C43.7433 92.3163 44.2035 91.9522 44.5102 91.4798C44.8869 90.8988 45.0147 90.1771 44.9392 89.4889C44.8637 88.8007 44.5949 88.1439 44.2348 87.5522C43.3511 86.1077 41.9648 85.0631 40.6279 84.0273C37.7412 81.7909 34.9483 79.4321 32.2763 76.9431C31.5215 76.2398 30.7674 75.5152 30.2401 74.6293C29.7268 73.7662 29.4492 72.7831 29.2614 71.7967C28.7459 69.0904 28.8785 66.2431 29.799 63.6472C30.1591 62.6317 30.6348 61.6619 31.0943 60.6869C31.8897 58.9968 32.6434 57.2751 33.6902 55.7282C34.9929 53.8025 36.7341 52.1714 37.7957 50.1028C38.6919 48.3575 39.0549 46.3943 39.4018 44.4627L40.2059 39.9271Z" fill="#020204"/>
<mask id="mask8_2704_2807" style="mask-type:luminance" maskUnits="userSpaceOnUse" x="22" y="39" width="24" height="54">
<path d="M40.0446 39.996C40.0446 39.996 38.1645 42.3322 37.1369 43.769C36.1092 45.2057 35.0245 46.2175 33.9751 47.7272C32.9257 49.2368 31.2633 51.2001 30.4956 52.8562C29.7279 54.5124 29.6413 56.1833 28.9252 57.9559C28.209 59.7284 27.5628 61.8743 26.727 63.6027C25.8912 65.331 24.7497 67.1687 24.1717 68.5867C23.5936 70.0046 22.7688 70.6943 22.6591 72.3497C22.5494 74.0052 22.4466 75.4121 24.0479 78.5252C25.6493 81.6384 30.3943 86.6283 32.974 88.8074C35.5536 90.9864 36.4314 91.4676 38.3505 91.9467C40.2696 92.4257 43.4523 93.0505 44.5105 91.479C45.5688 89.9075 45.3471 89.2827 44.2344 87.5518C43.1217 85.8209 42.4578 85.5996 40.6275 84.027C38.7971 82.4544 33.7652 78.5506 32.2758 76.9427C30.7865 75.3348 29.659 75.6864 30.2397 74.6289C30.8203 73.5714 29.427 73.1524 29.261 71.7963C28.9797 69.4969 29.6086 64.9109 29.7986 63.6468C29.9886 62.3828 30.2492 62.5702 31.0939 60.6865C31.9386 58.8027 32.6124 57.5111 33.6897 55.7279C34.7671 53.9447 36.8655 51.9987 37.7952 50.1024C38.7249 48.2062 39.0854 46.1553 39.4013 44.4623C39.7173 42.7693 40.0446 39.996 40.0446 39.996Z" fill="white"/>
</mask>
<g mask="url(#mask8_2704_2807)">
<g opacity="0.95" filter="url(#filter31_f_2704_2807)">
<path d="M34.2527 54.5982C33.3968 55.3868 32.6586 56.2942 32.0608 57.2927C31.0784 58.9349 30.4996 60.7789 29.786 62.5544C29.2543 63.8762 28.6354 65.2029 28.561 66.6253C28.5231 67.3558 28.631 68.0856 28.6556 68.8168C28.6803 69.5481 28.6122 70.308 28.2506 70.9465C27.9513 71.4804 27.4531 71.9002 26.8761 72.1041C27.6601 72.3682 28.3453 72.8645 28.8405 73.5272C29.251 74.0796 29.5135 74.7254 29.87 75.313C30.1597 75.791 30.5154 76.2336 30.9536 76.5815C31.3918 76.9295 31.9146 77.178 32.4695 77.2491C32.8513 77.2954 33.2385 77.2587 33.6049 77.1417C33.9712 77.0246 34.308 76.8299 34.5922 76.5708C33.8834 69.9299 34.5325 63.1472 36.4884 56.7614C36.6118 56.3582 36.7414 55.9521 36.772 55.5316C36.8025 55.1111 36.7241 54.6671 36.4686 54.332C36.3323 54.1534 36.149 54.0117 35.942 53.924C35.7351 53.8364 35.5053 53.8044 35.2829 53.8313C35.0605 53.8581 34.8448 53.9439 34.6644 54.078C34.4839 54.212 34.3396 54.3935 34.2494 54.599L34.2527 54.5982Z" fill="#7C7C7C"/>
</g>
</g>
<mask id="mask9_2704_2807" style="mask-type:luminance" maskUnits="userSpaceOnUse" x="10" y="75" width="36" height="35">
<path d="M25.1386 75.4938C25.7277 75.2497 26.3897 75.2051 27.0164 75.3207C27.6431 75.4364 28.2352 75.7074 28.7628 76.0653C29.8174 76.7818 30.5994 77.8245 31.3487 78.8562C33.069 81.2253 34.7252 83.6436 36.2256 86.1577C37.4429 88.1968 38.5615 90.3026 39.968 92.2158C40.8863 93.4648 41.9221 94.6239 42.8448 95.8691C43.7675 97.1144 44.5857 98.4672 44.9951 99.9625C45.5268 101.905 45.321 104.047 44.396 105.836C43.7454 107.096 42.748 108.175 41.5344 108.907C40.3208 109.639 38.8943 110.017 37.4782 109.964C35.227 109.879 33.1702 108.754 31.0774 107.92C26.8135 106.222 22.1815 105.689 17.7863 104.367C16.435 103.96 15.1072 103.479 13.7471 103.105C13.1432 102.939 12.5283 102.793 11.9576 102.534C11.3869 102.276 10.853 101.89 10.5356 101.35C10.2904 100.932 10.1865 100.44 10.1932 99.9558C10.1998 99.4713 10.3132 98.993 10.4782 98.5375C10.8081 97.6266 11.3409 96.8018 11.7006 95.9023C12.2879 94.4331 12.3936 92.8138 12.3144 91.2334C12.2352 89.6531 11.9793 88.0871 11.8707 86.5094C11.8228 85.8046 11.8044 85.0907 11.9388 84.3973C12.0732 83.704 12.3718 83.0258 12.8807 82.5361C13.3498 82.0843 13.9724 81.8162 14.6098 81.683C15.2471 81.5497 15.904 81.5441 16.5554 81.5585C17.2067 81.5729 17.8588 81.6078 18.5083 81.5548C19.1578 81.5018 19.8092 81.356 20.3751 81.0327C20.9127 80.7256 21.3523 80.2687 21.7169 79.7683C22.0814 79.2679 22.3759 78.7204 22.6779 78.1799C22.9798 77.6393 23.292 77.1003 23.6875 76.6238C24.0829 76.1474 24.5675 75.7317 25.1393 75.4945" fill="white"/>
</mask>
<g mask="url(#mask9_2704_2807)">
<path d="M25.1386 75.4938C25.7277 75.2497 26.3897 75.2051 27.0164 75.3207C27.6431 75.4364 28.2352 75.7074 28.7628 76.0653C29.8174 76.7818 30.5994 77.8245 31.3487 78.8562C33.069 81.2253 34.7252 83.6436 36.2256 86.1577C37.4429 88.1968 38.5615 90.3026 39.968 92.2158C40.8863 93.4648 41.9221 94.6239 42.8448 95.8691C43.7675 97.1144 44.5857 98.4672 44.9951 99.9625C45.5268 101.905 45.321 104.047 44.396 105.836C43.7454 107.096 42.748 108.175 41.5344 108.907C40.3208 109.639 38.8943 110.017 37.4782 109.964C35.227 109.879 33.1702 108.754 31.0774 107.92C26.8135 106.222 22.1815 105.689 17.7863 104.367C16.435 103.96 15.1072 103.479 13.7471 103.105C13.1432 102.939 12.5283 102.793 11.9576 102.534C11.3869 102.276 10.853 101.89 10.5356 101.35C10.2904 100.932 10.1865 100.44 10.1932 99.9558C10.1998 99.4713 10.3132 98.993 10.4782 98.5375C10.8081 97.6266 11.3409 96.8018 11.7006 95.9023C12.2879 94.4331 12.3936 92.8138 12.3144 91.2334C12.2352 89.6531 11.9793 88.0871 11.8707 86.5094C11.8228 85.8046 11.8044 85.0907 11.9388 84.3973C12.0732 83.704 12.3718 83.0258 12.8807 82.5361C13.3498 82.0843 13.9724 81.8162 14.6098 81.683C15.2471 81.5497 15.904 81.5441 16.5554 81.5585C17.2067 81.5729 17.8588 81.6078 18.5083 81.5548C19.1578 81.5018 19.8092 81.356 20.3751 81.0327C20.9127 80.7256 21.3523 80.2687 21.7169 79.7683C22.0814 79.2679 22.3759 78.7204 22.6779 78.1799C22.9798 77.6393 23.292 77.1003 23.6875 76.6238C24.0829 76.1474 24.5675 75.7317 25.1393 75.4945L25.1386 75.4938Z" fill="url(#paint24_linear_2704_2807)"/>
<g filter="url(#filter32_f_2704_2807)">
<path d="M26.0676 76.51C26.6033 76.2943 27.2068 76.2707 27.7698 76.3981C28.3328 76.5255 28.856 76.8031 29.3118 77.1518C30.2242 77.8565 30.8583 78.8507 31.4673 79.8286C32.9291 82.1973 34.3577 84.591 35.7075 87.0333C36.7301 88.8717 37.7051 90.7496 38.9614 92.4385C39.795 93.5586 40.7461 94.5852 41.597 95.6924C42.4479 96.7996 43.206 98.0054 43.5827 99.3497C44.0673 101.083 43.871 102.995 43.0322 104.59C42.4249 105.741 41.5086 106.699 40.3863 107.357C39.2612 108.011 37.9724 108.328 36.6722 108.273C34.611 108.178 32.7288 107.148 30.7883 106.45C27.0684 105.1 23.0365 104.919 19.2208 103.865C17.8529 103.494 16.5193 102.999 15.1448 102.653C14.5365 102.499 13.9176 102.374 13.3399 102.13C12.7622 101.886 12.2179 101.507 11.9046 100.964C11.6715 100.56 11.5784 100.085 11.5927 99.6189C11.6071 99.1527 11.7253 98.6984 11.8873 98.2587C12.2194 97.3872 12.7415 96.6018 13.0766 95.7273C13.5847 94.4114 13.6473 92.9643 13.5531 91.5571C13.4588 90.1498 13.2143 88.755 13.1285 87.347C13.0902 86.7174 13.0843 86.0804 13.2117 85.4633C13.3391 84.8462 13.6079 84.2482 14.0568 83.8019C14.5428 83.3196 15.2129 83.0567 15.8893 82.9536C16.5657 82.8505 17.2539 82.8954 17.9347 82.9562C18.6155 83.0169 19.2989 83.0935 19.9819 83.0526C20.6649 83.0118 21.3575 82.8453 21.9223 82.4609C22.4367 82.113 22.823 81.6052 23.1168 81.0625C23.4106 80.5198 23.6205 79.9376 23.8444 79.3625C24.0682 78.7874 24.3109 78.213 24.6625 77.7056C25.0142 77.1982 25.4858 76.7464 26.0639 76.5144" fill="#D99A03"/>
</g>
<g filter="url(#filter33_f_2704_2807)">
<path d="M25.5715 75.1717C26.0907 74.9142 26.7019 74.8615 27.2712 74.9775C27.8404 75.0936 28.3677 75.3717 28.8161 75.7354C29.7127 76.4586 30.2816 77.4982 30.8118 78.5143C32.0287 80.8484 33.1621 83.2331 34.6183 85.4309C35.6751 87.0219 36.8938 88.5106 37.9623 90.0972C39.4116 92.2487 40.5898 94.6157 41.0759 97.1509C41.4028 98.8561 41.3925 100.694 40.5707 102.234C40.0294 103.245 39.1531 104.078 38.1174 104.594C37.0816 105.109 35.8923 105.323 34.7336 105.221C32.9095 105.06 31.2526 104.163 29.5356 103.537C26.4887 102.427 23.1959 102.162 20.0602 101.324C18.7377 100.971 17.446 100.516 16.1021 100.24C15.5107 100.116 14.9076 100.026 14.3431 99.8129C13.7787 99.5996 13.2437 99.2467 12.955 98.7245C12.7525 98.3571 12.6836 97.9272 12.7142 97.5106C12.7448 97.0941 12.8688 96.688 13.0327 96.3022C13.3597 95.5306 13.8427 94.8233 14.1005 94.0256C14.4735 92.8533 14.3203 91.5823 14.0401 90.3851C13.7599 89.1878 13.3563 88.013 13.2323 86.7908C13.177 86.2466 13.1781 85.6916 13.3022 85.1582C13.4263 84.6249 13.6804 84.1125 14.0791 83.7299C14.592 83.2374 15.3104 82.9923 16.0244 82.9236C16.7383 82.8549 17.4574 82.9489 18.1673 83.0501C18.8772 83.1514 19.5915 83.2671 20.3084 83.2309C21.0253 83.1948 21.7547 83.0103 22.3162 82.5714C22.8715 82.1375 23.2205 81.4913 23.4208 80.8227C23.6212 80.1541 23.686 79.4551 23.7681 78.7631C23.8502 78.071 23.9522 77.3724 24.221 76.7273C24.4897 76.0822 24.9426 75.4877 25.5759 75.1735L25.5715 75.1717Z" fill="#F5BD0C"/>
</g>
<g filter="url(#filter34_f_2704_2807)">
<path d="M32.0719 80.9984C33.0314 82.7338 33.6169 84.7254 34.5683 86.4755C35.4439 88.0852 36.4403 89.7429 37.3299 91.2275C37.7257 91.8884 38.6491 92.9047 39.5833 94.4813C40.4294 95.91 41.2836 97.9045 41.7619 98.5743C41.4873 97.79 40.9224 95.685 40.2486 94.1842C39.6227 92.7813 38.8863 91.9816 38.4345 91.2275C37.5449 89.7429 36.5872 88.4085 35.6729 86.9932C34.4118 85.0409 33.4505 82.8564 32.0719 80.9988V80.9984Z" fill="url(#paint25_linear_2704_2807)"/>
</g>
</g>
</g>
<defs>
<filter id="filter0_f_2704_2807" x="42.1428" y="30.0779" width="25.2972" height="15.6696" filterUnits="userSpaceOnUse" color-interpolation-filters="sRGB">
<feFlood flood-opacity="0" result="BackgroundImageFix"/>
<feBlend mode="normal" in="SourceGraphic" in2="BackgroundImageFix" result="shape"/>
<feGaussianBlur stdDeviation="0.436168" result="effect1_foregroundBlur_2704_2807"/>
</filter>
<filter id="filter1_f_2704_2807" x="42.4274" y="29.5396" width="23.3069" height="11.0089" filterUnits="userSpaceOnUse" color-interpolation-filters="sRGB">
<feFlood flood-opacity="0" result="BackgroundImageFix"/>
<feBlend mode="normal" in="SourceGraphic" in2="BackgroundImageFix" result="shape"/>
<feGaussianBlur stdDeviation="0.191623" result="effect1_foregroundBlur_2704_2807"/>
</filter>
<filter id="filter2_f_2704_2807" x="42.2623" y="23.5813" width="23.3661" height="12.3639" filterUnits="userSpaceOnUse" color-interpolation-filters="sRGB">
<feFlood flood-opacity="0" result="BackgroundImageFix"/>
<feBlend mode="normal" in="SourceGraphic" in2="BackgroundImageFix" result="shape"/>
<feGaussianBlur stdDeviation="0.291564" result="effect1_foregroundBlur_2704_2807"/>
</filter>
<filter id="filter3_f_2704_2807" x="59.9446" y="4.54775" width="7.78329" height="7.46652" filterUnits="userSpaceOnUse" color-interpolation-filters="sRGB">
<feFlood flood-opacity="0" result="BackgroundImageFix"/>
<feBlend mode="normal" in="SourceGraphic" in2="BackgroundImageFix" result="shape"/>
<feGaussianBlur stdDeviation="0.429496" result="effect1_foregroundBlur_2704_2807"/>
</filter>
<filter id="filter4_f_2704_2807" x="59.7866" y="22.502" width="1.60607" height="1.26525" filterUnits="userSpaceOnUse" color-interpolation-filters="sRGB">
<feFlood flood-opacity="0" result="BackgroundImageFix"/>
<feBlend mode="normal" in="SourceGraphic" in2="BackgroundImageFix" result="shape"/>
<feGaussianBlur stdDeviation="0.0533428" result="effect1_foregroundBlur_2704_2807"/>
</filter>
<filter id="filter5_f_2704_2807" x="59.6817" y="20.7936" width="3.01371" height="2.97648" filterUnits="userSpaceOnUse" color-interpolation-filters="sRGB">
<feFlood flood-opacity="0" result="BackgroundImageFix"/>
<feBlend mode="normal" in="SourceGraphic" in2="BackgroundImageFix" result="shape"/>
<feGaussianBlur stdDeviation="0.111184" result="effect1_foregroundBlur_2704_2807"/>
</filter>
<filter id="filter6_f_2704_2807" x="60.6359" y="13.9789" width="5.77624" height="5.33984" filterUnits="userSpaceOnUse" color-interpolation-filters="sRGB">
<feFlood flood-opacity="0" result="BackgroundImageFix"/>
<feBlend mode="normal" in="SourceGraphic" in2="BackgroundImageFix" result="shape"/>
<feGaussianBlur stdDeviation="0.0317057" result="effect1_foregroundBlur_2704_2807"/>
</filter>
<filter id="filter7_f_2704_2807" x="45.4289" y="14.704" width="5.39718" height="4.75765" filterUnits="userSpaceOnUse" color-interpolation-filters="sRGB">
<feFlood flood-opacity="0" result="BackgroundImageFix"/>
<feBlend mode="normal" in="SourceGraphic" in2="BackgroundImageFix" result="shape"/>
<feGaussianBlur stdDeviation="0.0289208" result="effect1_foregroundBlur_2704_2807"/>
</filter>
<filter id="filter8_f_2704_2807" x="45.9051" y="21.1452" width="2.37172" height="3.54055" filterUnits="userSpaceOnUse" color-interpolation-filters="sRGB">
<feFlood flood-opacity="0" result="BackgroundImageFix"/>
<feBlend mode="normal" in="SourceGraphic" in2="BackgroundImageFix" result="shape"/>
<feGaussianBlur stdDeviation="0.109899" result="effect1_foregroundBlur_2704_2807"/>
</filter>
<filter id="filter9_f_2704_2807" x="47.8792" y="33.3172" width="5.88242" height="4.36802" filterUnits="userSpaceOnUse" color-interpolation-filters="sRGB">
<feFlood flood-opacity="0" result="BackgroundImageFix"/>
<feBlend mode="normal" in="SourceGraphic" in2="BackgroundImageFix" result="shape"/>
<feGaussianBlur stdDeviation="0.192591" result="effect1_foregroundBlur_2704_2807"/>
</filter>
<filter id="filter10_f_2704_2807" x="43.3676" y="27.452" width="20.1281" height="9.08985" filterUnits="userSpaceOnUse" color-interpolation-filters="sRGB">
<feFlood flood-opacity="0" result="BackgroundImageFix"/>
<feBlend mode="normal" in="SourceGraphic" in2="BackgroundImageFix" result="shape"/>
<feGaussianBlur stdDeviation="0.162385" result="effect1_foregroundBlur_2704_2807"/>
</filter>
<filter id="filter11_f_2704_2807" x="51.8034" y="27.7741" width="5.38731" height="6.48301" filterUnits="userSpaceOnUse" color-interpolation-filters="sRGB">
<feFlood flood-opacity="0" result="BackgroundImageFix"/>
<feBlend mode="normal" in="SourceGraphic" in2="BackgroundImageFix" result="shape"/>
<feGaussianBlur stdDeviation="0.18188" result="effect1_foregroundBlur_2704_2807"/>
</filter>
<filter id="filter12_f_2704_2807" x="53.6871" y="25.7024" width="2.17983" height="1.18886" filterUnits="userSpaceOnUse" color-interpolation-filters="sRGB">
<feFlood flood-opacity="0" result="BackgroundImageFix"/>
<feBlend mode="normal" in="SourceGraphic" in2="BackgroundImageFix" result="shape"/>
<feGaussianBlur stdDeviation="0.0235651" result="effect1_foregroundBlur_2704_2807"/>
</filter>
<filter id="filter13_f_2704_2807" x="48.7589" y="25.8917" width="0.931663" height="1.0176" filterUnits="userSpaceOnUse" color-interpolation-filters="sRGB">
<feFlood flood-opacity="0" result="BackgroundImageFix"/>
<feBlend mode="normal" in="SourceGraphic" in2="BackgroundImageFix" result="shape"/>
<feGaussianBlur stdDeviation="0.0235651" result="effect1_foregroundBlur_2704_2807"/>
</filter>
<filter id="filter14_f_2704_2807" x="62.8872" y="28.8153" width="2.41731" height="2.89533" filterUnits="userSpaceOnUse" color-interpolation-filters="sRGB">
<feFlood flood-opacity="0" result="BackgroundImageFix"/>
<feBlend mode="normal" in="SourceGraphic" in2="BackgroundImageFix" result="shape"/>
<feGaussianBlur stdDeviation="0.073168" result="effect1_foregroundBlur_2704_2807"/>
</filter>
<filter id="filter15_f_2704_2807" x="73.6" y="50.9753" width="11.5191" height="31.0049" filterUnits="userSpaceOnUse" color-interpolation-filters="sRGB">
<feFlood flood-opacity="0" result="BackgroundImageFix"/>
<feBlend mode="normal" in="SourceGraphic" in2="BackgroundImageFix" result="shape"/>
<feGaussianBlur stdDeviation="0.292242" result="effect1_foregroundBlur_2704_2807"/>
</filter>
<filter id="filter16_f_2704_2807" x="34.2973" y="45.8726" width="13.7391" height="12.893" filterUnits="userSpaceOnUse" color-interpolation-filters="sRGB">
<feFlood flood-opacity="0" result="BackgroundImageFix"/>
<feBlend mode="normal" in="SourceGraphic" in2="BackgroundImageFix" result="shape"/>
<feGaussianBlur stdDeviation="0.147995" result="effect1_foregroundBlur_2704_2807"/>
</filter>
<filter id="filter17_f_2704_2807" x="53.8379" y="44.7141" width="20.7783" height="14.7033" filterUnits="userSpaceOnUse" color-interpolation-filters="sRGB">
<feFlood flood-opacity="0" result="BackgroundImageFix"/>
<feBlend mode="normal" in="SourceGraphic" in2="BackgroundImageFix" result="shape"/>
<feGaussianBlur stdDeviation="0.243791" result="effect1_foregroundBlur_2704_2807"/>
</filter>
<filter id="filter18_f_2704_2807" x="46.1316" y="46.4412" width="8.6601" height="9.2121" filterUnits="userSpaceOnUse" color-interpolation-filters="sRGB">
<feFlood flood-opacity="0" result="BackgroundImageFix"/>
<feBlend mode="normal" in="SourceGraphic" in2="BackgroundImageFix" result="shape"/>
<feGaussianBlur stdDeviation="0.168169" result="effect1_foregroundBlur_2704_2807"/>
</filter>
<filter id="filter19_f_2704_2807" x="46.2564" y="58.6954" width="2.80294" height="23.3427" filterUnits="userSpaceOnUse" color-interpolation-filters="sRGB">
<feFlood flood-opacity="0" result="BackgroundImageFix"/>
<feBlend mode="normal" in="SourceGraphic" in2="BackgroundImageFix" result="shape"/>
<feGaussianBlur stdDeviation="0.309774" result="effect1_foregroundBlur_2704_2807"/>
</filter>
<filter id="filter20_f_2704_2807" x="68.3405" y="32.9323" width="5.25572" height="5.76475" filterUnits="userSpaceOnUse" color-interpolation-filters="sRGB">
<feFlood flood-opacity="0" result="BackgroundImageFix"/>
<feBlend mode="normal" in="SourceGraphic" in2="BackgroundImageFix" result="shape"/>
<feGaussianBlur stdDeviation="0.193019" result="effect1_foregroundBlur_2704_2807"/>
</filter>
<filter id="filter21_f_2704_2807" x="67.3096" y="80.2844" width="28.2132" height="30.5377" filterUnits="userSpaceOnUse" color-interpolation-filters="sRGB">
<feFlood flood-opacity="0" result="BackgroundImageFix"/>
<feBlend mode="normal" in="SourceGraphic" in2="BackgroundImageFix" result="shape"/>
<feGaussianBlur stdDeviation="0.479548" result="effect1_foregroundBlur_2704_2807"/>
</filter>
<filter id="filter22_f_2704_2807" x="69.6662" y="75.7562" width="33.216" height="33.6258" filterUnits="userSpaceOnUse" color-interpolation-filters="sRGB">
<feFlood flood-opacity="0" result="BackgroundImageFix"/>
<feBlend mode="normal" in="SourceGraphic" in2="BackgroundImageFix" result="shape"/>
<feGaussianBlur stdDeviation="1.0238" result="effect1_foregroundBlur_2704_2807"/>
</filter>
<filter id="filter23_f_2704_2807" x="71.2927" y="73.9708" width="31.0175" height="30.8779" filterUnits="userSpaceOnUse" color-interpolation-filters="sRGB">
<feFlood flood-opacity="0" result="BackgroundImageFix"/>
<feBlend mode="normal" in="SourceGraphic" in2="BackgroundImageFix" result="shape"/>
<feGaussianBlur stdDeviation="0.806721" result="effect1_foregroundBlur_2704_2807"/>
</filter>
<filter id="filter24_f_2704_2807" x="72.375" y="77.9763" width="20.6724" height="3.68829" filterUnits="userSpaceOnUse" color-interpolation-filters="sRGB">
<feFlood flood-opacity="0" result="BackgroundImageFix"/>
<feBlend mode="normal" in="SourceGraphic" in2="BackgroundImageFix" result="shape"/>
<feGaussianBlur stdDeviation="0.102615" result="effect1_foregroundBlur_2704_2807"/>
</filter>
<filter id="filter25_f_2704_2807" x="76.4236" y="55.8066" width="5.67487" height="5.75434" filterUnits="userSpaceOnUse" color-interpolation-filters="sRGB">
<feFlood flood-opacity="0" result="BackgroundImageFix"/>
<feBlend mode="normal" in="SourceGraphic" in2="BackgroundImageFix" result="shape"/>
<feGaussianBlur stdDeviation="0.491044" result="effect1_foregroundBlur_2704_2807"/>
</filter>
<filter id="filter26_f_2704_2807" x="38.4224" y="41.5845" width="2.08782" height="2.13579" filterUnits="userSpaceOnUse" color-interpolation-filters="sRGB">
<feFlood flood-opacity="0" result="BackgroundImageFix"/>
<feBlend mode="normal" in="SourceGraphic" in2="BackgroundImageFix" result="shape"/>
<feGaussianBlur stdDeviation="0.137066" result="effect1_foregroundBlur_2704_2807"/>
</filter>
<filter id="filter27_f_2704_2807" x="75.6142" y="77.9986" width="14.974" height="13.1724" filterUnits="userSpaceOnUse" color-interpolation-filters="sRGB">
<feFlood flood-opacity="0" result="BackgroundImageFix"/>
<feBlend mode="normal" in="SourceGraphic" in2="BackgroundImageFix" result="shape"/>
<feGaussianBlur stdDeviation="0.609264" result="effect1_foregroundBlur_2704_2807"/>
</filter>
<filter id="filter28_f_2704_2807" x="76.3603" y="78.7789" width="13.482" height="8.70584" filterUnits="userSpaceOnUse" color-interpolation-filters="sRGB">
<feFlood flood-opacity="0" result="BackgroundImageFix"/>
<feBlend mode="normal" in="SourceGraphic" in2="BackgroundImageFix" result="shape"/>
<feGaussianBlur stdDeviation="0.236245" result="effect1_foregroundBlur_2704_2807"/>
</filter>
<filter id="filter29_f_2704_2807" x="77.3127" y="73.3641" width="13.7382" height="6.8942" filterUnits="userSpaceOnUse" color-interpolation-filters="sRGB">
<feFlood flood-opacity="0" result="BackgroundImageFix"/>
<feBlend mode="normal" in="SourceGraphic" in2="BackgroundImageFix" result="shape"/>
<feGaussianBlur stdDeviation="0.219584" result="effect1_foregroundBlur_2704_2807"/>
</filter>
<filter id="filter30_f_2704_2807" x="77.3127" y="73.3641" width="13.7382" height="6.8942" filterUnits="userSpaceOnUse" color-interpolation-filters="sRGB">
<feFlood flood-opacity="0" result="BackgroundImageFix"/>
<feBlend mode="normal" in="SourceGraphic" in2="BackgroundImageFix" result="shape"/>
<feGaussianBlur stdDeviation="0.219584" result="effect1_foregroundBlur_2704_2807"/>
</filter>
<filter id="filter31_f_2704_2807" x="26.3911" y="53.337" width="10.8721" height="24.4166" filterUnits="userSpaceOnUse" color-interpolation-filters="sRGB">
<feFlood flood-opacity="0" result="BackgroundImageFix"/>
<feBlend mode="normal" in="SourceGraphic" in2="BackgroundImageFix" result="shape"/>
<feGaussianBlur stdDeviation="0.242506" result="effect1_foregroundBlur_2704_2807"/>
</filter>
<filter id="filter32_f_2704_2807" x="9.91005" y="74.6391" width="35.6144" height="35.3213" filterUnits="userSpaceOnUse" color-interpolation-filters="sRGB">
<feFlood flood-opacity="0" result="BackgroundImageFix"/>
<feBlend mode="normal" in="SourceGraphic" in2="BackgroundImageFix" result="shape"/>
<feGaussianBlur stdDeviation="0.840631" result="effect1_foregroundBlur_2704_2807"/>
</filter>
<filter id="filter33_f_2704_2807" x="11.6725" y="73.8843" width="30.6387" height="32.3959" filterUnits="userSpaceOnUse" color-interpolation-filters="sRGB">
<feFlood flood-opacity="0" result="BackgroundImageFix"/>
<feBlend mode="normal" in="SourceGraphic" in2="BackgroundImageFix" result="shape"/>
<feGaussianBlur stdDeviation="0.517366" result="effect1_foregroundBlur_2704_2807"/>
</filter>
<filter id="filter34_f_2704_2807" x="31.9134" y="80.8399" width="10.0071" height="17.893" filterUnits="userSpaceOnUse" color-interpolation-filters="sRGB">
<feFlood flood-opacity="0" result="BackgroundImageFix"/>
<feBlend mode="normal" in="SourceGraphic" in2="BackgroundImageFix" result="shape"/>
<feGaussianBlur stdDeviation="0.0792644" result="effect1_foregroundBlur_2704_2807"/>
</filter>
<radialGradient id="paint0_radial_2704_2807" cx="0" cy="0" r="1" gradientUnits="userSpaceOnUse" gradientTransform="translate(1422.29 2074.43) rotate(-2.41003) scale(91.6387 224.299)">
<stop stop-color="#FEFEFC"/>
<stop offset="0.757" stop-color="#FEFEFC"/>
<stop offset="1" stop-color="#D4D4D4"/>
</radialGradient>
<radialGradient id="paint1_radial_2704_2807" cx="0" cy="0" r="1" gradientUnits="userSpaceOnUse" gradientTransform="translate(2553.04 2172.61) rotate(-1.81001) scale(164.065 237.09)">
<stop stop-color="#FEFEFC"/>
<stop offset="0.757" stop-color="#FEFEFC"/>
<stop offset="1" stop-color="#D4D4D4"/>
</radialGradient>
<radialGradient id="paint2_radial_2704_2807" cx="0" cy="0" r="1" gradientUnits="userSpaceOnUse" gradientTransform="translate(2723.58 -716.704) rotate(-36.0085) scale(150.311 99.7138)">
<stop stop-color="#020204"/>
<stop offset="0.734" stop-color="#020204"/>
<stop offset="1" stop-color="#5C5C5C"/>
</radialGradient>
<linearGradient id="paint3_linear_2704_2807" x1="838.355" y1="357.157" x2="855.318" y2="377.542" gradientUnits="userSpaceOnUse">
<stop stop-color="#949494" stop-opacity="0.392"/>
<stop offset="0.5" stop-color="#949494"/>
<stop offset="1" stop-color="#949494" stop-opacity="0.392"/>
</linearGradient>
<linearGradient id="paint4_linear_2704_2807" x1="1615.5" y1="1539.7" x2="1922.18" y2="1791.61" gradientUnits="userSpaceOnUse">
<stop stop-color="#747474"/>
<stop offset="0.125" stop-color="#8C8C8C"/>
<stop offset="0.25" stop-color="#A4A4A4"/>
<stop offset="0.5" stop-color="#D4D4D4"/>
<stop offset="0.619" stop-color="#D4D4D4"/>
<stop offset="1" stop-color="#7C7C7C"/>
</linearGradient>
<linearGradient id="paint5_linear_2704_2807" x1="148.321" y1="564.341" x2="222.611" y2="640.346" gradientUnits="userSpaceOnUse">
<stop stop-color="#646464" stop-opacity="0"/>
<stop offset="0.306" stop-color="#646464" stop-opacity="0.583"/>
<stop offset="0.47" stop-color="#646464"/>
<stop offset="0.728" stop-color="#646464" stop-opacity="0.257"/>
<stop offset="1" stop-color="#646464" stop-opacity="0"/>
</linearGradient>
<linearGradient id="paint6_linear_2704_2807" x1="-90.634" y1="509.9" x2="-28.6471" y2="577.822" gradientUnits="userSpaceOnUse">
<stop stop-color="#646464" stop-opacity="0"/>
<stop offset="0.306" stop-color="#646464" stop-opacity="0.583"/>
<stop offset="0.47" stop-color="#646464"/>
<stop offset="0.728" stop-color="#646464" stop-opacity="0.257"/>
<stop offset="1" stop-color="#646464" stop-opacity="0"/>
</linearGradient>
<linearGradient id="paint7_linear_2704_2807" x1="363.093" y1="430.882" x2="384.199" y2="454.397" gradientUnits="userSpaceOnUse">
<stop stop-color="#757574" stop-opacity="0"/>
<stop offset="0.263" stop-color="#757574"/>
<stop offset="0.5" stop-color="#757574"/>
<stop offset="1" stop-color="#757574" stop-opacity="0"/>
</linearGradient>
<radialGradient id="paint8_radial_2704_2807" cx="0" cy="0" r="1" gradientUnits="userSpaceOnUse" gradientTransform="translate(6746.35 -1089.06) rotate(-22.428) scale(708.202 246.043)">
<stop stop-color="#D2940A"/>
<stop offset="0.751" stop-color="#D89C08"/>
<stop offset="0.866" stop-color="#B67E07"/>
<stop offset="1" stop-color="#946106"/>
</radialGradient>
<linearGradient id="paint9_linear_2704_2807" x1="1083.37" y1="1797.03" x2="2337.36" y2="1777.56" gradientUnits="userSpaceOnUse">
<stop stop-color="#AD780A"/>
<stop offset="0.12" stop-color="#D89E08"/>
<stop offset="0.255" stop-color="#EDB80B"/>
<stop offset="0.392" stop-color="#EBC80D"/>
<stop offset="0.527" stop-color="#F5D838"/>
<stop offset="0.769" stop-color="#F6D811"/>
<stop offset="1" stop-color="#F5CD31"/>
</linearGradient>
<radialGradient id="paint10_radial_2704_2807" cx="0" cy="0" r="1" gradientUnits="userSpaceOnUse" gradientTransform="translate(215.729 119.896) scale(6.73659 2.06239)">
<stop stop-color="#3A2903"/>
<stop offset="0.555" stop-color="#735208"/>
<stop offset="1" stop-color="#AC8C04"/>
</radialGradient>
<radialGradient id="paint11_radial_2704_2807" cx="0" cy="0" r="1" gradientUnits="userSpaceOnUse" gradientTransform="translate(101.667 172.267) scale(1.2854 1.52378)">
<stop stop-color="#3A2903"/>
<stop offset="0.555" stop-color="#735208"/>
<stop offset="1" stop-color="#AC8C04"/>
</radialGradient>
<linearGradient id="paint12_linear_2704_2807" x1="528.766" y1="437.621" x2="530.101" y2="444.544" gradientUnits="userSpaceOnUse">
<stop stop-color="#F5CE2D"/>
<stop offset="1" stop-color="#D79B08"/>
</linearGradient>
<radialGradient id="paint13_radial_2704_2807" cx="0" cy="0" r="1" gradientUnits="userSpaceOnUse" gradientTransform="translate(1465.58 73.9278) rotate(-9.34942) scale(186.889 80.1632)">
<stop stop-color="#C8C8C8"/>
<stop offset="1" stop-color="#797978"/>
</radialGradient>
<radialGradient id="paint14_radial_2704_2807" cx="0" cy="0" r="1" gradientUnits="userSpaceOnUse" gradientTransform="translate(-2930.15 2117.97) rotate(180) scale(251.518 257.203)">
<stop/>
<stop offset="1" stop-opacity="0.25"/>
</radialGradient>
<radialGradient id="paint15_radial_2704_2807" cx="0" cy="0" r="1" gradientUnits="userSpaceOnUse" gradientTransform="translate(6129.34 2520.84) scale(542.425 287.043)">
<stop/>
<stop offset="1" stop-opacity="0.25"/>
</radialGradient>
<radialGradient id="paint16_radial_2704_2807" cx="0" cy="0" r="1" gradientUnits="userSpaceOnUse" gradientTransform="translate(2141.03 2098.56) scale(86.624 99.0216)">
<stop/>
<stop offset="1" stop-opacity="0.25"/>
</radialGradient>
<linearGradient id="paint17_linear_2704_2807" x1="812.05" y1="9351.13" x2="926.805" y2="10138.1" gradientUnits="userSpaceOnUse">
<stop/>
<stop offset="1" stop-opacity="0"/>
</linearGradient>
<linearGradient id="paint18_linear_2704_2807" x1="14146.2" y1="12279.8" x2="15746.9" y2="9763.59" gradientUnits="userSpaceOnUse">
<stop stop-color="#3E2A06"/>
<stop offset="1" stop-color="#AD780A"/>
</linearGradient>
<linearGradient id="paint19_linear_2704_2807" x1="987.69" y1="1027.42" x2="986.931" y2="1069.64" gradientUnits="userSpaceOnUse">
<stop stop-color="#F3CD0C"/>
<stop offset="1" stop-color="#F3CD0C" stop-opacity="0"/>
</linearGradient>
<radialGradient id="paint20_radial_2704_2807" cx="0" cy="0" r="1" gradientUnits="userSpaceOnUse" gradientTransform="translate(4687.97 6105.35) rotate(15) scale(286.038 257.106)">
<stop stop-color="#110800"/>
<stop offset="0.591" stop-color="#A65A00" stop-opacity="0.8"/>
<stop offset="1" stop-color="#FF921E" stop-opacity="0"/>
</radialGradient>
<radialGradient id="paint21_radial_2704_2807" cx="0" cy="0" r="1" gradientUnits="userSpaceOnUse" gradientTransform="translate(4687.97 4435.7) rotate(10.9628) scale(281.427 188.914)">
<stop stop-color="#110800"/>
<stop offset="0.591" stop-color="#A65A00" stop-opacity="0.8"/>
<stop offset="1" stop-color="#FF921E" stop-opacity="0"/>
</radialGradient>
<radialGradient id="paint22_radial_2704_2807" cx="0" cy="0" r="1" gradientUnits="userSpaceOnUse" gradientTransform="translate(1746.97 1094.21) rotate(23.5217) scale(103.77 22.4349)">
<stop stop-color="#7C7C7C"/>
<stop offset="1" stop-color="#7C7C7C" stop-opacity="0.33"/>
</radialGradient>
<linearGradient id="paint23_linear_2704_2807" x1="4687.99" y1="1754.41" x2="4726.33" y2="1750.99" gradientUnits="userSpaceOnUse">
<stop stop-color="#7C7C7C"/>
<stop offset="1" stop-color="#7C7C7C" stop-opacity="0.33"/>
</linearGradient>
<linearGradient id="paint24_linear_2704_2807" x1="4331.04" y1="10541.4" x2="5979.03" y2="13336.8" gradientUnits="userSpaceOnUse">
<stop stop-color="#B98309"/>
<stop offset="1" stop-color="#382605"/>
</linearGradient>
<linearGradient id="paint25_linear_2704_2807" x1="1689.46" y1="5744.35" x2="2007.95" y2="6074.89" gradientUnits="userSpaceOnUse">
<stop stop-color="#EBC40C"/>
<stop offset="1" stop-color="#EBC40C" stop-opacity="0"/>
</linearGradient>
<clipPath id="clip0_2704_2807">
<rect width="110" height="110" fill="white"/>
</clipPath>
</defs>
</svg>
