<svg width="21" height="21" viewBox="0 0 21 21" fill="none" xmlns="http://www.w3.org/2000/svg">
    <rect width="21" height="21" rx="2" fill="#171717" />
    <g clip-path="url(#clip0_2728_6860)">
        <path
            d="M11.509 10.5C11.509 12.9462 9.52055 14.9297 7.0665 14.9297C6.48401 14.9305 5.90707 14.8165 5.36862 14.5943C4.83017 14.3721 4.34076 14.0461 3.92833 13.6347C3.5159 13.2234 3.18852 12.7348 2.9649 12.197C2.74127 11.6591 2.62578 11.0825 2.625 10.5C2.625 8.05285 4.61344 6.07032 7.0665 6.07032C7.64907 6.06941 8.22612 6.18328 8.76468 6.40541C9.30324 6.62755 9.79277 6.9536 10.2053 7.36495C10.6178 7.77629 10.9453 8.26488 11.169 8.8028C11.3927 9.34072 11.5082 9.91743 11.509 10.5V10.5ZM16.3816 10.5C16.3816 12.8034 15.3874 14.6698 14.1609 14.6698C12.9344 14.6698 11.9401 12.8025 11.9401 10.5C11.9401 8.19657 12.9344 6.33019 14.1609 6.33019C15.3874 6.33019 16.3816 8.19755 16.3816 10.5ZM18.375 10.5C18.375 12.5633 18.0255 14.2357 17.5934 14.2357C17.1623 14.2357 16.8128 12.5623 16.8128 10.5C16.8128 8.43676 17.1622 6.7643 17.5944 6.7643C18.0255 6.7643 18.375 8.43676 18.375 10.5Z"
            fill="white" />
    </g>
    <defs>
        <clipPath id="clip0_2728_6860">
            <rect width="15.75" height="15.75" fill="white" transform="translate(2.625 2.625)" />
        </clipPath>
    </defs>
</svg>
