<svg width="51" height="110" viewBox="0 0 51 110" fill="none" xmlns="http://www.w3.org/2000/svg">
    <g clip-path="url(#clip0_2714_2970)">
        <path fill-rule="evenodd" clip-rule="evenodd"
            d="M27.5905 110L24.6123 109C24.6123 109 24.9758 94.0711 19.5283 92.9995C15.8964 88.8569 20.1095 -82.7141 33.1831 92.428C33.1831 92.428 28.6803 94.6426 27.8811 98.4286C27.009 102.143 27.5901 110 27.5901 110H27.5905Z"
            fill="white" />
        <path fill-rule="evenodd" clip-rule="evenodd"
            d="M27.5905 110L24.6123 109C24.6123 109 24.9758 94.0711 19.5283 92.9995C15.8964 88.8569 20.1095 -82.7141 33.1831 92.428C33.1831 92.428 28.6803 94.6426 27.8811 98.4286C27.009 102.143 27.5901 110 27.5901 110H27.5905Z"
            fill="#A6A385" />
        <path fill-rule="evenodd" clip-rule="evenodd"
            d="M29.1889 95.572C29.1889 95.572 55.2658 78.7146 49.1642 43.6428C43.2802 18.1431 29.4065 9.78569 27.8815 6.57121C26.211 4.28528 24.6135 0.285767 24.6135 0.285767L25.7033 71.2144C25.7033 71.2862 23.4508 92.9295 29.1897 95.5729"
            fill="white" />
        <path fill-rule="evenodd" clip-rule="evenodd"
            d="M29.1889 95.572C29.1889 95.572 55.2658 78.7146 49.1642 43.6428C43.2802 18.1431 29.4065 9.78569 27.8815 6.57121C26.211 4.28528 24.6135 0.285767 24.6135 0.285767L25.7033 71.2144C25.7033 71.2862 23.4508 92.9295 29.1897 95.5729"
            fill="#499D4A" />
        <path fill-rule="evenodd" clip-rule="evenodd"
            d="M23.088 96.501C23.088 96.501 -1.39103 80.0719 0.0618392 51.1434C1.44174 22.2143 18.7294 7.99989 22.0712 5.42908C24.2498 3.14272 24.3228 2.28507 24.4683 0C25.9933 3.21448 25.7031 48.0724 25.9203 53.3575C26.5744 73.7147 24.758 92.6437 23.088 96.5006V96.501Z"
            fill="white" />
        <path fill-rule="evenodd" clip-rule="evenodd"
            d="M23.088 96.501C23.088 96.501 -1.39103 80.0719 0.0618392 51.1434C1.44174 22.2143 18.7294 7.99989 22.0712 5.42908C24.2498 3.14272 24.3228 2.28507 24.4683 0C25.9933 3.21448 25.7031 48.0724 25.9203 53.3575C26.5744 73.7147 24.758 92.6437 23.088 96.5006V96.501Z"
            fill="#58AA50" />
    </g>
    <defs>
        <clipPath id="clip0_2714_2970">
            <rect width="50.0893" height="110" fill="white" />
        </clipPath>
    </defs>
</svg>
    