<svg width="445" height="301" viewBox="0 0 445 301" fill="none" xmlns="http://www.w3.org/2000/svg">
	<g clip-path="url(#clip0_2804_12266)">
		<path d="M125.134 92.5181H20.2659V163.186H125.134V92.5181Z" fill="white" />
		<path
			d="M125.476 163.528H19.9238V92.176H125.476V163.528ZM20.6078 162.844H124.792V92.86H20.6078V162.844Z"
			fill="#EBEBEB" />
		<path
			d="M30.3993 97.8648C30.3993 99.1986 29.3179 100.28 27.9841 100.28C26.6503 100.28 25.5688 99.1986 25.5688 97.8648C25.5688 96.531 26.6503 95.4496 27.9841 95.4496C29.3179 95.4503 30.3993 96.531 30.3993 97.8648Z"
			fill="#37474F" />
		<path
			d="M40.2605 97.8648C40.2605 99.1986 39.1791 100.28 37.8453 100.28C36.5115 100.28 35.4301 99.1986 35.4301 97.8648C35.4301 96.531 36.5115 95.4496 37.8453 95.4496C39.1797 95.4503 40.2605 96.531 40.2605 97.8648Z"
			fill="#EBEBEB" />
		<path
			d="M50.1224 97.8648C50.1224 99.1986 49.041 100.28 47.7072 100.28C46.3734 100.28 45.292 99.1986 45.292 97.8648C45.292 96.531 46.3734 95.4496 47.7072 95.4496C49.041 95.4503 50.1224 96.531 50.1224 97.8648Z"
			fill="#FFC727" />
		<path d="M125.134 102.822H20.2659V103.506H125.134V102.822Z" fill="#EBEBEB" />
		<path d="M441.138 141.821H336.27V212.489H441.138V141.821Z" fill="white" />
		<path
			d="M441.48 212.832H335.928V141.479H441.48V212.832ZM336.612 212.148H440.796V142.163H336.612V212.148Z"
			fill="#EBEBEB" />
		<path
			d="M346.403 147.168C346.403 148.502 345.322 149.583 343.988 149.583C342.654 149.583 341.573 148.502 341.573 147.168C341.573 145.834 342.654 144.753 343.988 144.753C345.322 144.753 346.403 145.834 346.403 147.168Z"
			fill="#37474F" />
		<path
			d="M356.264 147.168C356.264 148.502 355.183 149.583 353.849 149.583C352.515 149.583 351.434 148.502 351.434 147.168C351.434 145.834 352.515 144.753 353.849 144.753C355.184 144.753 356.264 145.834 356.264 147.168Z"
			fill="#EBEBEB" />
		<path
			d="M366.126 147.168C366.126 148.502 365.045 149.583 363.711 149.583C362.377 149.583 361.296 148.502 361.296 147.168C361.296 145.834 362.377 144.753 363.711 144.753C365.045 144.753 366.126 145.834 366.126 147.168Z"
			fill="#FFC727" />
		<path d="M441.138 152.125H336.27V152.809H441.138V152.125Z" fill="#EBEBEB" />
		<path
			d="M93.9641 161.872C93.9641 168.017 88.9927 172.975 82.8607 172.975C82.663 172.975 82.4783 172.975 82.2937 172.962C82.2937 172.962 62.8557 173.002 62.539 173.002C56.407 173.002 51.4357 168.03 51.4357 161.897C51.4357 155.765 56.407 150.794 62.539 150.794H82.109C82.3593 150.781 82.6097 150.767 82.8607 150.767C88.9927 150.768 93.9641 155.739 93.9641 161.872Z"
			fill="#A6A6A6" />
		<path
			d="M62.6652 162.237C62.6706 161.806 62.8314 161.433 63.0496 161.08C63.1467 160.923 63.2548 160.774 63.3581 160.62L64.0284 159.949C64.2876 159.763 64.5414 159.566 64.8075 159.391C65.88 158.679 67.0735 158.271 68.3253 158.023C71.2391 157.445 74.1536 157.461 77.0661 158.034C78.3014 158.276 79.4786 158.681 80.5381 159.382C80.8137 159.564 81.0757 159.765 81.3445 159.959L81.9916 160.605C82.153 160.861 82.3384 161.106 82.4676 161.378C82.588 161.632 82.6482 161.915 82.7426 162.211C82.64 162.22 82.5921 162.226 82.5449 162.227C80.705 162.23 78.865 162.231 77.0251 162.237C76.9129 162.237 76.8568 162.2 76.8034 162.105C76.4457 161.469 75.9074 161.11 75.1714 161.064C73.5079 160.959 71.8438 160.956 70.1803 161.066C69.445 161.114 68.908 161.476 68.551 162.113C68.5079 162.19 68.4716 162.244 68.3636 162.245C66.4956 162.242 64.6276 162.245 62.7589 162.246C62.7308 162.245 62.7028 162.24 62.6652 162.237Z"
			fill="white" />
		<path
			d="M62.6587 165.465C62.6573 164.816 62.6573 164.168 62.6573 163.519C62.6573 163.469 62.6615 163.419 62.6628 163.384C64.55 163.382 66.4269 163.38 68.3188 163.377C68.3127 163.503 68.301 163.647 68.3003 163.791C68.2983 164.343 68.3017 164.897 68.301 165.449C68.3004 165.93 68.0623 166.168 67.5815 166.169C66.1765 166.171 64.7716 166.172 63.3667 166.172C62.8981 166.173 62.6601 165.936 62.6587 165.465Z"
			fill="white" />
		<path
			d="M77.0604 165.495C77.0686 164.785 77.0953 164.075 77.1137 163.369C78.9256 163.367 80.8032 163.364 82.6904 163.362C82.6924 163.395 82.6979 163.439 82.6979 163.482C82.6993 164.142 82.7013 164.802 82.7006 165.463C82.6999 165.911 82.4585 166.154 82.0112 166.155C80.5898 166.157 79.1678 166.159 77.7464 166.157C77.3162 166.158 77.0556 165.915 77.0604 165.495Z"
			fill="white" />
		<path
			d="M435.151 144.02C434.538 143.031 434.571 141.793 435.173 140.796C435.337 140.525 435.495 140.249 435.645 139.968C435.798 139.683 435.942 139.397 436.078 139.109C436.574 138.061 437.583 137.351 438.742 137.315L442.708 137.191L442.307 124.272L438.314 124.395C437.156 124.431 436.107 123.782 435.552 122.764C435.251 122.215 434.922 121.68 434.564 121.163C433.898 120.199 433.785 118.958 434.339 117.926L436.209 114.438L424.814 108.327L422.943 111.815C422.389 112.848 421.294 113.44 420.123 113.418C419.493 113.407 418.865 113.428 418.241 113.482C417.086 113.582 415.966 113.067 415.354 112.082L413.248 108.689L402.264 115.502L404.363 118.891C404.964 119.86 404.96 121.081 404.367 122.055C404.194 122.34 404.027 122.631 403.869 122.927C403.71 123.224 403.56 123.523 403.418 123.825C402.932 124.863 401.912 125.544 400.766 125.579L396.796 125.699L397.198 138.619L401.153 138.494C402.293 138.457 403.367 139.056 403.911 140.058C404.237 140.66 404.6 141.244 404.995 141.808C405.649 142.739 405.704 143.964 405.166 144.966L403.296 148.453L414.692 154.564L416.562 151.077C417.116 150.044 418.214 149.451 419.386 149.475C420.017 149.487 420.647 149.466 421.272 149.414C422.428 149.315 423.55 149.832 424.162 150.819L426.258 154.204L437.242 147.391L435.151 144.02ZM416.008 141.358C409.487 138.857 407.102 130.955 411.151 125.264C413.906 121.39 419.063 119.841 423.501 121.546C430.02 124.05 432.399 131.931 428.353 137.624C425.599 141.499 420.446 143.061 416.008 141.358Z"
			fill="#EBEBEB" />
		<path
			d="M389.464 105.813C388.756 105.405 388.368 104.629 388.41 103.814C388.421 103.593 388.427 103.371 388.427 103.147C388.427 102.922 388.421 102.698 388.41 102.476C388.369 101.664 388.756 100.89 389.46 100.484L391.869 99.0947L387.343 91.2513L384.936 92.6391C384.23 93.0468 383.361 93.0064 382.678 92.5598C382.303 92.3142 381.913 92.0885 381.512 91.8833C380.788 91.5146 380.323 90.7827 380.323 89.9708V87.1979H371.263V89.9708C371.263 90.7834 370.798 91.5146 370.074 91.8833C369.672 92.0878 369.283 92.3142 368.907 92.5598C368.224 93.0057 367.355 93.0461 366.649 92.6391L364.242 91.2513L359.717 99.0947L362.134 100.491C362.838 100.898 363.224 101.67 363.182 102.48C363.171 102.701 363.166 102.924 363.166 103.147C363.166 103.37 363.171 103.592 363.182 103.814C363.224 104.628 362.835 105.405 362.128 105.812L359.717 107.199L364.243 115.043L366.643 113.656C367.349 113.247 368.217 113.287 368.9 113.732C369.277 113.979 369.669 114.205 370.073 114.41C370.798 114.779 371.264 115.511 371.264 116.324V119.096H380.322V116.324C380.322 115.511 380.789 114.779 381.513 114.41C381.916 114.205 382.308 113.979 382.686 113.732C383.369 113.287 384.237 113.248 384.943 113.656L387.344 115.043L391.869 107.199L389.464 105.813ZM375.796 110.569C371.7 110.569 368.375 107.244 368.375 103.147C368.375 99.0509 371.7 95.7335 375.796 95.7335C379.892 95.7335 383.21 99.0509 383.21 103.147C383.21 107.244 379.892 110.569 375.796 110.569Z"
			fill="#EBEBEB" />
		<path
			d="M60.9844 84.8052L65.5097 92.6486L67.9099 91.2622C68.6158 90.8538 69.4838 90.8935 70.1671 91.3388C70.5446 91.585 70.9359 91.8114 71.3401 92.0166C72.0645 92.3853 72.531 93.1172 72.531 93.9298V96.702H81.5892V93.9298C81.5892 93.1165 82.0557 92.3846 82.78 92.0166C83.1843 91.8114 83.5755 91.585 83.9531 91.3388C84.6357 90.8935 85.5044 90.8545 86.2103 91.2622L88.6111 92.6486L93.1365 84.8052L90.7254 83.4167C90.0181 83.0097 89.6289 82.234 89.6706 81.4187C89.6816 81.1978 89.6878 80.9755 89.6878 80.7518C89.6878 80.5288 89.6823 80.3065 89.6706 80.0856C89.6289 79.2744 90.0154 78.5021 90.7185 78.0958L93.1365 76.6991L88.6111 68.8557L86.2041 70.2435C85.4976 70.6512 84.6289 70.6108 83.9463 70.1642C83.5707 69.9186 83.1809 69.6929 82.7787 69.4884C82.055 69.119 81.5899 68.3878 81.5899 67.5759V64.803H72.5317V67.5759C72.5317 68.3885 72.0665 69.1197 71.3429 69.4884C70.9407 69.6929 70.5515 69.9193 70.176 70.1642C69.4933 70.6101 68.6247 70.6505 67.9181 70.2435L65.5111 68.8557L60.9857 76.6991L63.3934 78.0883C64.0979 78.4946 64.4851 79.2682 64.444 80.0801C64.4331 80.3017 64.427 80.5261 64.427 80.7518C64.427 80.9748 64.4324 81.1971 64.444 81.4187C64.4858 82.2334 64.0973 83.0097 63.39 83.4174L60.9844 84.8052ZM69.6425 80.7525C69.6425 76.656 72.9605 73.3386 77.0563 73.3386C81.1528 73.3386 84.4777 76.656 84.4777 80.7525C84.4777 84.849 81.1528 88.1739 77.0563 88.1739C72.9605 88.1739 69.6425 84.849 69.6425 80.7525Z"
			fill="#EBEBEB" />
		<path
			d="M241.643 91.9651C247.008 70.4057 233.88 48.5789 212.321 43.2135C190.762 37.8481 168.935 50.9759 163.57 72.5352C158.204 94.0946 171.332 115.921 192.891 121.287C214.451 126.652 236.277 113.524 241.643 91.9651Z"
			fill="#EBEBEB" />
		<path
			d="M232.386 89.7162C236.506 73.2671 226.512 56.592 210.063 52.4713C193.614 48.3506 176.939 58.3446 172.818 74.7937C168.698 91.2427 178.692 107.918 195.141 112.039C211.59 116.159 228.265 106.165 232.386 89.7162Z"
			fill="white" />
		<path
			d="M223.884 87.6048C226.846 75.8538 219.72 63.9267 207.969 60.965C196.218 58.0033 184.291 65.1285 181.329 76.8796C178.368 88.6306 185.493 100.558 197.244 103.519C208.995 106.481 220.922 99.3559 223.884 87.6048Z"
			fill="#EBEBEB" />
		<path
			d="M214.368 85.2272C216.016 78.7333 212.088 72.1328 205.594 70.4847C199.1 68.8366 192.499 72.765 190.851 79.2589C189.203 85.7528 193.132 92.3533 199.626 94.0014C206.119 95.6495 212.72 91.7212 214.368 85.2272Z"
			fill="white" />
		<path
			d="M207.924 83.6051C208.673 80.6705 206.9 77.6848 203.966 76.9365C201.031 76.1881 198.045 77.9605 197.297 80.8951C196.549 83.8297 198.321 86.8154 201.256 87.5637C204.19 88.3121 207.176 86.5398 207.924 83.6051Z"
			fill="#EBEBEB" />
		<path d="M251.302 32.4465L205.224 78.5244L206.33 79.6301L252.408 33.5521L251.302 32.4465Z"
			fill="#C7C7C7" />
		<path d="M208.63 80.6369L202.606 82.2505L204.22 76.2272L208.63 80.6369Z" fill="#A6A6A6" />
		<path
			d="M259.567 29.9997L250.927 38.6393L244.15 40.7064L246.217 33.93L254.857 25.2897L252.789 32.0667L259.567 29.9997Z"
			fill="#A6A6A6" />
		<path
			d="M-3.01416 246.959L53.3645 246.793L109.743 246.733L222.5 246.618L335.257 246.732L391.635 246.791L448.014 246.959L391.635 247.127L335.257 247.186L222.5 247.3L109.743 247.185L53.3645 247.125L-3.01416 246.959Z"
			fill="#263238" />
		<path d="M139.655 250.992H45.3912L38.0929 186.97H132.358L139.655 250.992Z" fill="#37474F" />
		<path d="M134.519 246.698H49.5485L43.2297 191.264H128.2L134.519 246.698Z" fill="white" />
		<path d="M192.935 246.698H96.1857V250.996H192.935V246.698Z" fill="#37474F" />
		<path d="M192.935 246.698H144.24V250.996H192.935V246.698Z" fill="#263238" />
		<path d="M104.503 191.266L49.5027 246.267L47.8611 231.882L88.4702 191.266H104.503Z"
			fill="#EBEBEB" />
		<path d="M133.081 234.071L120.454 246.698H104.421L131.439 219.68L133.081 234.071Z"
			fill="#EBEBEB" />
		<path d="M53.7572 191.266L44.3111 200.713L43.7502 195.808L48.292 191.266H53.7572Z"
			fill="#EBEBEB" />
		<path d="M130.386 210.432L94.1199 246.698H88.6479L129.825 205.521L130.386 210.432Z"
			fill="#EBEBEB" />
		<path d="M60.8845 191.266L45.0362 207.115L44.8994 205.884L59.5165 191.266H60.8845Z"
			fill="#EBEBEB" />
		<path d="M112.362 191.266L56.9309 246.698H55.5629L110.994 191.266H112.362Z" fill="#EBEBEB" />
		<path d="M129.462 202.327L85.0913 246.698H83.7233L129.326 201.096L129.462 202.327Z"
			fill="#EBEBEB" />
		<path d="M304.787 250.992H399.051L406.348 186.97H312.084L304.787 250.992Z" fill="#37474F" />
		<path d="M309.923 246.698H394.893L401.212 191.264H316.242L309.923 246.698Z" fill="white" />
		<path d="M348.256 246.698H251.507V250.996H348.256V246.698Z" fill="#37474F" />
		<path d="M300.202 246.698H251.507V250.996H300.202V246.698Z" fill="#263238" />
		<path d="M398.767 212.737L396.701 230.836L380.839 246.698H364.806L398.767 212.737Z"
			fill="#EBEBEB" />
		<path d="M368.637 191.266L313.212 246.698H309.922L311.564 232.313L352.611 191.266H368.637Z"
			fill="#EBEBEB" />
		<path d="M332.528 191.266L314.149 209.646L314.854 203.469L327.056 191.266H332.528Z"
			fill="#EBEBEB" />
		<path d="M392.987 191.266L337.556 246.698H332.084L387.515 191.266H392.987Z" fill="#EBEBEB" />
		<path d="M399.554 205.829L399.383 207.375L360.059 246.698H358.691L399.554 205.829Z"
			fill="#EBEBEB" />
		<path d="M398.726 191.266L343.301 246.698H341.933L397.365 191.266H398.726Z" fill="#EBEBEB" />
		<path d="M347.098 191.266L312.268 226.096L312.446 224.55L345.73 191.266H347.098Z"
			fill="#EBEBEB" />
		<path
			d="M132.975 154.577C144.669 178.181 161.979 201.737 166.619 206.19C179.08 218.15 212.349 226.748 222.156 227.02C226.389 227.138 232.244 199.009 229.124 195.729C226.004 192.449 184.921 183.519 182.721 181.833C181.191 180.66 161.597 162.036 148.607 150.98C132.463 137.241 129.904 148.379 132.975 154.577Z"
			fill="#F7A9A0" />
		<path
			d="M220.049 191.83L209.445 225.311C209.445 225.311 174.68 216.128 165.378 207.215C156.077 198.302 136.808 166.246 133.044 155.688C129.28 145.131 131.733 136.785 148.745 150.487C165.756 164.19 180.242 178.206 183.262 180.463C186.283 182.718 220.049 191.83 220.049 191.83Z"
			fill="#455A64" />
		<path
			d="M209.282 193.169C209.424 194.102 210.296 194.745 211.23 194.602C212.163 194.461 212.806 193.589 212.663 192.655C212.522 191.721 211.65 191.079 210.716 191.221C209.782 191.363 209.14 192.235 209.282 193.169Z"
			fill="#263238" />
		<path
			d="M200.766 190.715C200.908 191.649 201.78 192.291 202.713 192.149C203.647 192.007 204.289 191.135 204.147 190.202C204.005 189.268 203.133 188.626 202.2 188.768C201.266 188.91 200.624 189.782 200.766 190.715Z"
			fill="#263238" />
		<path
			d="M183.799 217.012C176.186 214.057 168.929 210.617 165.379 207.217C156.077 198.298 136.808 166.246 133.046 155.685C130.639 148.934 130.769 143.092 135.625 143.332L183.799 217.012Z"
			fill="#263238" />
		<path
			d="M77.533 246.687L165.293 246.704C165.645 243.497 147.587 154.075 138.992 142.865C137.152 140.469 131.087 139.802 125.93 140.444C124.502 140.614 123.146 140.892 121.96 141.255C121.935 141.267 121.887 141.279 121.826 141.291C120.628 141.679 119.611 142.163 118.909 142.72C104.564 154.172 76.8429 245.9 77.533 246.687Z"
			fill="#455A64" />
		<path
			d="M131.852 163.08L135.583 155.815L140.396 161.07L139.22 166.299L134.465 166.91L131.852 163.08Z"
			fill="#263238" />
		<path
			d="M134.465 166.91L132.191 220.35L142.207 238.023L147.407 218.133L139.22 166.299L134.465 166.91Z"
			fill="#263238" />
		<path
			d="M134.329 154.845C132.947 154.791 123.781 147.62 120.962 142.035C120.771 141.651 121.48 137.707 122.115 132.873C122.489 129.938 122.836 126.663 122.936 123.65C122.954 123.031 125.022 124.238 125.022 124.238L128.889 125.31L141.677 128.872C141.677 128.872 139.609 135.125 139.465 140.378C139.458 140.817 139.488 141.227 139.553 141.619C139.558 141.676 139.572 141.746 139.574 141.825C139.878 144.186 136.589 154.934 134.329 154.845Z"
			fill="#F7A9A0" />
		<path
			d="M139.553 141.619C139.558 141.676 139.572 141.746 139.574 141.825C138.98 141.889 138.335 141.902 137.629 141.863C124.916 141.155 123.867 124.925 123.867 124.925L128.889 125.311L141.677 128.873C141.677 128.873 139.609 135.126 139.465 140.379C139.458 140.818 139.488 141.228 139.553 141.619Z"
			fill="#263238" />
		<path
			d="M119.965 101.518C118.048 108.259 121.956 127.553 126.805 131.779C133.835 137.905 145.16 138.288 150.319 129.88C155.32 121.729 149.781 96.6755 144.382 92.854C136.429 87.2253 122.797 91.5605 119.965 101.518Z"
			fill="#F7A9A0" />
		<path
			d="M139.073 112.747C139.053 112.7 138.984 112.829 138.996 112.882C139.294 114.175 139.418 115.706 138.326 116.369C138.293 116.39 138.309 116.455 138.352 116.44C139.748 115.955 139.563 113.925 139.073 112.747Z"
			fill="#263238" />
		<path
			d="M137.644 111.619C135.52 111.873 136.185 116.102 138.152 115.866C140.088 115.634 139.423 111.405 137.644 111.619Z"
			fill="#263238" />
		<path
			d="M146.689 111.769C146.692 111.717 146.802 111.815 146.808 111.869C146.973 113.185 147.382 114.665 148.635 114.914C148.674 114.922 148.681 114.988 148.636 114.989C147.159 115.013 146.634 113.043 146.689 111.769Z"
			fill="#263238" />
		<path
			d="M147.644 110.218C149.725 109.727 150.554 113.926 148.626 114.381C146.729 114.829 145.899 110.629 147.644 110.218Z"
			fill="#263238" />
		<path
			d="M135.671 109.948C136.224 109.712 136.695 109.403 137.218 109.113C137.808 108.787 138.312 108.587 138.633 107.961C138.806 107.626 138.629 107.1 138.319 106.902C137.596 106.44 136.775 106.66 136.048 107.024C135.261 107.42 134.754 107.926 134.393 108.728C134.043 109.507 134.941 110.258 135.671 109.948Z"
			fill="#263238" />
		<path
			d="M148.944 107.831C148.343 107.828 147.789 107.725 147.195 107.66C146.525 107.587 145.983 107.598 145.445 107.145C145.155 106.902 145.115 106.349 145.325 106.046C145.813 105.34 146.656 105.226 147.467 105.282C148.346 105.341 149.009 105.613 149.652 106.214C150.275 106.796 149.737 107.836 148.944 107.831Z"
			fill="#263238" />
		<path
			d="M139.774 125.095C140.135 125.352 140.515 125.725 140.997 125.691C141.458 125.657 141.96 125.368 142.353 125.139C142.392 125.118 142.44 125.155 142.421 125.198C142.159 125.754 141.494 126.181 140.87 126.17C140.261 126.16 139.887 125.694 139.658 125.174C139.625 125.101 139.721 125.058 139.774 125.095Z"
			fill="#263238" />
		<path
			d="M144.763 121.877C144.763 121.877 144.059 123.224 142.903 123.852C142.477 124.085 142.001 124.225 141.471 124.17C140.382 124.059 140.205 123.103 140.268 122.252C140.317 121.552 140.539 120.921 140.539 120.921C140.539 120.921 142.291 122.11 144.763 121.877Z"
			fill="white" />
		<path
			d="M140.534 120.957C141.445 121.979 142.621 122.43 143.822 122.473C144.359 122.496 144.909 122.428 145.438 122.294C145.543 122.275 145.646 122.247 145.739 122.211C145.832 122.184 145.917 122.159 146.019 122.122C146.168 122.075 146.232 121.936 146.235 121.787L146.234 121.778C146.226 121.73 146.219 121.691 146.2 121.646C146.2 121.646 146.2 121.646 146.199 121.636L146.179 121.522C146.048 120.509 145.709 118.991 145.709 118.991C146.106 119.117 148.118 119.667 148.005 119.145C147.059 114.824 146.006 110.019 144.153 105.92C144.099 105.782 143.884 105.849 143.919 105.991C144.664 110.18 146.14 114.208 146.956 118.404C146.32 118.271 145.276 118.003 144.75 118.096C144.613 118.16 145.458 121.019 145.48 121.479C145.48 121.479 145.483 121.498 145.479 121.528C143.819 122.011 142.461 121.7 140.637 120.821C140.529 120.76 140.439 120.865 140.534 120.957Z"
			fill="#263238" />
		<path
			d="M122.237 116.565C126.842 115.876 126.516 107.38 126.516 107.38C126.516 107.38 134.239 104.929 134.52 98.8041C134.52 98.8041 142.729 102.502 148.322 99.4983C153.914 96.4942 151.699 89.9976 150.837 88.6644C149.974 87.3313 147.088 90.4627 147.088 90.4627C147.088 90.4627 146.161 86.7383 145.095 86.501C144.029 86.2636 143.266 88.7109 143.266 88.7109C143.266 88.7109 135.287 87.2691 128.412 88.4736C121.538 89.6781 119.136 97.1351 119.136 97.1351C119.136 97.1351 115.559 98.4573 114.741 101.217C113.922 103.976 119.3 117.004 122.237 116.565Z"
			fill="#263238" />
		<path
			d="M124.661 107.71C130.899 107.628 134.366 102.97 134.399 96.9771C134.399 96.9032 134.505 96.895 134.514 96.9695C135.136 102.456 130.925 109.287 124.642 107.989C124.49 107.957 124.499 107.712 124.661 107.71Z"
			fill="#263238" />
		<path
			d="M119.285 96.9984C119.354 96.971 119.405 97.0736 119.343 97.1133C117.747 98.157 115.872 99.0394 114.895 100.776C113.716 102.873 114.39 105.301 115.246 107.366C116.572 110.563 118.913 114.627 122.166 116.146C122.354 116.234 122.212 116.507 122.025 116.431C118.156 114.851 115.269 109.557 114.207 105.719C113.018 101.422 115.377 98.5319 119.285 96.9984Z"
			fill="#263238" />
		<path
			d="M141.473 99.5332C144.405 100.764 148.417 100.249 150.788 98.0174C153.676 95.2979 152.452 91.6877 150.607 88.7992C150.516 88.6569 150.712 88.4613 150.838 88.5947C153.14 91.0372 153.9 95.1453 151.608 97.8683C149.24 100.683 144.504 101.293 141.27 99.9408C140.999 99.828 141.203 99.4196 141.473 99.5332Z"
			fill="#263238" />
		<path
			d="M137.984 120.423C135.454 120.519 133.075 118.897 132.326 116.36C131.44 113.358 133.161 110.196 136.161 109.31C139.163 108.423 142.324 110.143 143.211 113.144C144.097 116.145 142.377 119.308 139.376 120.194C138.913 120.331 138.446 120.405 137.984 120.423ZM137.583 109.839C137.183 109.854 136.778 109.919 136.377 110.037C133.777 110.805 132.287 113.545 133.054 116.145C133.823 118.743 136.564 120.237 139.161 119.467C141.761 118.699 143.25 115.959 142.484 113.36C141.835 111.161 139.775 109.756 137.583 109.839Z"
			fill="#455A64" />
		<path
			d="M150.841 118.348C148.671 118.43 146.618 116.282 146.162 113.357C145.931 111.881 146.135 110.422 146.735 109.252C147.354 108.041 148.323 107.276 149.461 107.099C150.603 106.918 151.755 107.355 152.714 108.319C153.642 109.252 154.28 110.578 154.51 112.054C154.991 115.145 153.512 117.953 151.211 118.312C151.087 118.332 150.965 118.343 150.841 118.348ZM149.865 107.821C149.77 107.825 149.674 107.833 149.579 107.849C148.688 107.987 147.917 108.608 147.41 109.598C146.883 110.627 146.706 111.92 146.911 113.239C147.33 115.917 149.2 117.86 151.095 117.562C152.982 117.268 154.179 114.849 153.761 112.171C153.556 110.852 152.993 109.673 152.177 108.853C151.476 108.15 150.666 107.79 149.865 107.821Z"
			fill="#455A64" />
		<path
			d="M143.125 113.823L142.553 113.323C143.291 112.476 145.108 111.21 146.706 112.461L146.238 113.059C144.809 111.935 143.193 113.746 143.125 113.823Z"
			fill="#455A64" />
		<path
			d="M118.367 119.163L117.648 118.923C117.76 118.587 118.79 115.629 120.422 115.096C121.948 114.602 132.142 113.976 132.575 113.95L132.621 114.707C129.698 114.883 121.835 115.432 120.658 115.816C119.58 116.169 118.639 118.351 118.367 119.163Z"
			fill="#455A64" />
		<path
			d="M125.167 117.423C125.167 117.423 120.547 111.336 117.769 113.008C114.991 114.68 118.637 123.621 122.018 124.731C125.4 125.841 126.489 122.731 126.489 122.731L125.167 117.423Z"
			fill="#F7A9A0" />
		<path
			d="M118.877 115.545C118.823 115.542 118.816 115.618 118.863 115.635C121.237 116.49 122.553 118.609 123.503 120.823C122.773 119.985 121.808 119.548 120.682 120.421C120.624 120.466 120.686 120.559 120.751 120.543C121.7 120.3 122.397 120.439 123.074 121.18C123.554 121.706 123.894 122.38 124.246 122.994C124.364 123.198 124.737 123.072 124.648 122.834C124.641 122.817 124.633 122.799 124.626 122.781C124.568 119.799 122.089 115.72 118.877 115.545Z"
			fill="#263238" />
		<path
			d="M139.618 142.075L135.049 153.285L121.204 139.127L117.262 143.652C117.262 143.652 130.787 166.128 130.875 165.114L135.498 155.499L142.127 162.21L141.624 145.397L139.618 142.075Z"
			fill="#455A64" />
		<path
			d="M142.348 153.885C142.171 151.112 142.071 148.314 141.768 145.552C141.757 145.454 141.603 145.41 141.579 145.525C141.017 148.202 141.747 158.803 141.73 161.344C141.72 161.335 141.709 161.324 141.701 161.315C141.424 161.025 135.555 155.409 135.497 155.498C134.496 157.024 131.103 164.026 130.871 164.664C128.733 161.093 120.533 148.114 118 144.737C117.927 144.64 117.777 144.719 117.834 144.833C119.722 148.602 130.571 166.08 130.739 166.032C130.852 166.12 135.068 157.495 135.573 155.866C136.566 157.089 142.488 163.424 142.508 163.012C142.651 160.231 142.523 156.662 142.348 153.885Z"
			fill="#263238" />
		<path d="M168.306 259.025L99.9664 265.79L99.7489 212.809L168.088 206.044L168.306 259.025Z"
			fill="#FFC727" />
		<path d="M122.055 204.741L99.6899 206.955L99.7488 212.809L123.684 210.44L122.055 204.741Z"
			fill="#FFC727" />
		<g opacity="0.1">
			<path
				d="M168.306 259.025L99.9664 265.79L99.7489 212.809L168.088 206.044L168.306 259.025Z"
				fill="black" />
			<path
				d="M122.055 204.741L99.6899 206.955L99.7488 212.809L123.684 210.44L122.055 204.741Z"
				fill="black" />
		</g>
		<path d="M168.26 259.03L102.35 265.554L92.921 212.43L163.175 206.531L168.26 259.03Z"
			fill="#EBEBEB" />
		<path d="M168.26 259.03L100.671 265.72L90.5687 214.66L161.614 207.626L168.26 259.03Z"
			fill="white" />
		<path d="M168.136 259.042L99.6502 265.822L89.657 215.862L158.143 209.083L168.136 259.042Z"
			fill="#FFC727" />
		<path
			d="M109.719 150.707C86.3601 171.9 69.5042 208.435 70.0213 218.278C70.704 231.283 94.2644 253.516 109.604 259.953C113.487 261.582 128.494 229.819 122.816 228.164C116.825 226.418 102.97 213.856 102.295 213.287C100.854 212.07 112.018 184.279 116.69 167.409C121.966 148.361 119.55 141.787 109.719 150.707Z"
			fill="#F7A9A0" />
		<path
			d="M100.931 255.094C115.784 265.823 135.986 268.146 139.473 267.792C142.444 267.5 143.972 267.321 143.972 267.321C149.311 266.901 151.23 264.37 151.23 264.37C151.23 264.37 157.547 265.701 158.985 262.017C160.611 257.89 151.421 256.828 146.725 253.153C135.965 244.733 123.025 229.757 120.163 227.021L100.931 255.094Z"
			fill="#F7A9A0" />
		<path
			d="M129.248 252.255C132.464 254.669 135.56 257.125 139.086 259.092C142.955 261.249 147.04 262.677 151.162 264.234C151.291 264.282 151.237 264.466 151.102 264.438C143.194 262.801 134.754 258.197 129.027 252.525C128.889 252.388 129.087 252.134 129.248 252.255Z"
			fill="#263238" />
		<path
			d="M123.223 258.011C126.483 260.186 132.236 263.974 144.008 267.195C144.046 267.206 144.04 267.275 143.997 267.269C136.076 266.193 129.216 263.283 123.016 258.346C122.823 258.193 123.006 257.866 123.223 258.011Z"
			fill="#263238" />
		<path
			d="M134.402 242.188C133.436 240.536 134.295 240.018 137.461 241.264C140.667 242.516 152.101 250.125 154.419 245.898C156.753 241.66 140.395 231.159 134.964 229.489C129.537 227.806 120.164 227.021 120.164 227.021C122.935 229.705 129.034 236.854 134.402 242.188Z"
			fill="#F7A9A0" />
		<path
			d="M101.468 257.485L120.076 226.244C120.076 226.244 102.661 214.033 102.578 212.81C102.494 211.587 114.816 177.929 118.54 161.363C122.263 144.797 120.417 136.893 104.114 155.363C87.8101 173.833 66.8975 204.904 68.007 218.22C69.1164 231.536 101.468 257.485 101.468 257.485Z"
			fill="#455A64" />
		<path
			d="M115.446 177.201C114.769 178.387 114.046 179.546 113.433 180.767C113.234 181.164 113.035 181.561 112.835 181.959C112.987 181.481 113.143 181.004 113.296 180.526C114.252 177.524 115.176 174.506 115.981 171.46C116.001 171.386 115.884 171.335 115.853 171.409C113.702 176.579 111.927 181.911 110.162 187.223C108.385 192.573 106.713 197.96 105.124 203.369C104.236 206.39 103.318 209.423 102.623 212.496C102.607 212.565 102.702 212.584 102.727 212.522C103.75 209.89 104.621 207.189 105.511 204.51C106.401 201.831 107.299 199.155 108.17 196.47C109.559 192.19 110.931 187.906 112.301 183.62C112.923 182.85 113.345 181.929 113.794 181.043C114.425 179.8 114.936 178.504 115.498 177.229C115.513 177.195 115.465 177.168 115.446 177.201Z"
			fill="#263238" />
		<path
			d="M98.1639 249.643C97.8712 250.541 98.3616 251.506 99.2597 251.798C100.158 252.091 101.123 251.601 101.416 250.703C101.708 249.805 101.218 248.839 100.32 248.547C99.4225 248.254 98.4567 248.744 98.1639 249.643Z"
			fill="#263238" />
		<path
			d="M91.659 243.624C91.3663 244.522 91.8567 245.487 92.7548 245.78C93.6529 246.073 94.618 245.582 94.9108 244.684C95.2035 243.786 94.7131 242.821 93.815 242.528C92.9169 242.235 91.9518 242.726 91.659 243.624Z"
			fill="#263238" />
		<path
			d="M79.9598 237.462C82.1179 239.3 84.1398 241.266 86.1466 243.247C87.1412 244.246 88.1357 245.245 89.1124 246.262C90.0967 247.272 91.055 248.307 92.0201 249.344C89.7376 247.658 87.6754 245.713 85.6644 243.732C83.6705 241.731 81.7321 239.675 79.9598 237.462Z"
			fill="#263238" />
		<path
			d="M318.225 96.4476C319.688 91.7444 326.091 81.3866 336.426 84.5118C351.175 88.9715 350.61 118.156 357.238 127.894C369.248 145.54 368.159 161.779 356.799 163.315C344.069 165.038 333.213 150.526 336.407 121.649C338.405 103.592 334.063 95.0933 330.405 95.291C326.747 95.4887 324.347 99.8622 324.347 99.8622L318.225 96.4476Z"
			fill="#263238" />
		<path
			d="M318.898 94.6925C319.845 92.5379 321.06 90.4955 322.513 88.6104C323.976 86.7396 325.764 85.0584 327.922 83.9086C330.058 82.7341 332.61 82.23 335.062 82.5522C337.483 82.8627 339.846 83.7355 341.864 85.1493C343.875 86.5741 345.473 88.4961 346.682 90.5762C347.882 92.6713 348.773 94.9032 349.459 97.1788C350.775 101.751 351.381 106.453 351.648 111.145C350.869 106.509 349.92 101.905 348.471 97.4935C347.686 95.3129 346.801 93.1699 345.603 91.2233C344.426 89.2725 342.938 87.5126 341.097 86.2335C339.28 84.9298 337.116 84.1233 334.893 83.7957C332.689 83.4407 330.42 83.8525 328.389 84.8285C326.357 85.8121 324.548 87.3012 323.006 89.0276C322.211 89.873 321.499 90.7971 320.807 91.7397C320.141 92.6993 319.504 93.6843 318.898 94.6925Z"
			fill="#263238" />
		<path
			d="M337.263 111.676C337.147 114.56 336.711 117.418 336.384 120.278C336.015 123.133 335.662 125.986 335.389 128.84C335.134 131.695 334.933 134.551 334.954 137.402C334.963 140.249 335.143 143.097 335.702 145.863C336.236 148.626 337.156 151.322 338.656 153.664C340.172 155.972 342.196 158.056 344.439 159.716C346.704 161.373 349.331 162.549 352.124 163.006C353.516 163.244 354.945 163.311 356.364 163.179C357.073 163.116 357.78 163.003 358.474 162.836C359.168 162.67 359.867 162.477 360.494 162.119C359.281 162.917 357.834 163.283 356.408 163.528C354.97 163.762 353.497 163.797 352.036 163.651C350.576 163.491 349.137 163.132 347.755 162.618C346.376 162.094 345.068 161.387 343.844 160.564C342.62 159.741 341.485 158.789 340.445 157.748L339.68 156.952L338.952 156.125C338.469 155.569 338.007 154.97 337.6 154.348C335.952 151.851 334.977 148.994 334.398 146.12C333.301 140.328 333.637 134.449 334.361 128.726C334.725 125.856 335.22 123.011 335.742 120.178C336.288 117.347 336.848 114.527 337.263 111.676Z"
			fill="#263238" />
		<path
			d="M317.356 96.4476C317.318 95.0961 318.292 93.3553 319.168 93.1138C320.043 92.8724 326.531 95.659 327.088 97.3232C327.645 98.9873 324.759 100.457 324.759 100.457L317.356 96.4476Z"
			fill="#455A64" />
		<path
			d="M322.363 156.174C318.508 164.56 289.834 203.983 275.598 205.059C260.699 206.184 224.963 181.837 221.538 179.811C212.146 174.253 238.332 148.618 242.861 153.17C250.43 160.779 268.518 175.119 272.94 174.149C282.237 172.112 301.604 155.847 315.342 147.383C323.632 142.277 326.627 146.896 322.363 156.174Z"
			fill="#AD6359" />
		<path
			d="M223.789 181.119C222.17 180.043 209.137 172.801 204.248 165.82C201.658 162.122 195.686 151.154 197.739 149.298C199.612 147.603 201.988 150.206 201.988 150.206C201.988 150.206 199.397 145.277 202.029 142.951C204.661 140.626 208.442 145.226 208.442 145.226C208.442 145.226 206.15 139.97 208.941 137.838C211.732 135.706 214.759 140.968 214.759 140.968C214.759 140.968 212.44 136.26 215.478 135.471C219.133 134.522 222.429 143.685 225.973 147.208C226.778 148.008 243.44 162.265 243.44 162.265L223.789 181.119Z"
			fill="#AD6359" />
		<path
			d="M214.961 140.963C217.401 147.695 219.633 150.218 225.201 154.54C225.31 154.624 225.209 154.806 225.087 154.728C219.249 150.992 215.993 148.23 214.629 141.064C214.562 140.713 214.845 140.643 214.961 140.963Z"
			fill="#263238" />
		<path
			d="M208.646 145.193C211.791 151.964 214.187 154.722 219.687 159.679C219.765 159.749 219.654 159.888 219.57 159.824C213.769 155.413 210.583 152.584 208.33 145.406C208.227 145.081 208.502 144.884 208.646 145.193Z"
			fill="#263238" />
		<path
			d="M202.26 150.436C205.778 156.772 208.274 159.91 214.231 164.036C214.371 164.133 214.243 164.347 214.092 164.263C207.609 160.647 204.464 156.755 202.079 150.564C201.916 150.142 202.039 150.038 202.26 150.436Z"
			fill="#263238" />
		<path
			d="M249.081 160.206C249.081 160.206 245.383 152.032 242.967 148.798C240.55 145.566 227.11 136.832 225.059 139.628C222.41 143.238 229.177 149.808 232.911 152.592C232.911 152.592 226.777 160.936 230.612 166.703C234.448 172.469 249.081 160.206 249.081 160.206Z"
			fill="#AD6359" />
		<path
			d="M224.656 140.859C224.616 145.893 229.753 149.232 233.174 152.205C233.434 152.43 233.344 152.72 233.131 152.884C230.794 156.553 228.566 162.409 230.334 166.647C230.386 166.771 230.216 166.862 230.148 166.744C227.634 162.456 229.354 156.524 232.171 152.669C228.616 149.676 223.61 146.101 224.607 140.856C224.613 140.826 224.656 140.827 224.656 140.859Z"
			fill="#263238" />
		<path
			d="M321.972 158.558C317.508 167.457 291.475 205.419 277.414 206.023C263.352 206.627 233.894 194.622 233.894 194.622L255.719 161.388C255.719 161.388 270.826 172.29 273.195 172.376C275.566 172.463 307.294 151.503 314.705 146.898C322.117 142.293 329.232 144.083 321.972 158.558Z"
			fill="#FFC727" />
		<path
			d="M253.818 194.868C253.689 193.835 253.768 192.831 253.895 191.833C254.044 190.838 254.243 189.851 254.65 188.892C254.78 189.925 254.701 190.929 254.572 191.927C254.422 192.922 254.224 193.909 253.818 194.868Z"
			fill="white" />
		<path
			d="M297.262 188.213C297.133 187.18 297.212 186.175 297.339 185.178C297.488 184.183 297.687 183.195 298.094 182.236C298.224 183.27 298.145 184.274 298.016 185.272C297.867 186.266 297.668 187.254 297.262 188.213Z"
			fill="white" />
		<path
			d="M299.67 162.927C298.637 163.056 297.632 162.977 296.635 162.85C295.64 162.701 294.653 162.502 293.694 162.095C294.727 161.965 295.731 162.044 296.728 162.173C297.723 162.322 298.711 162.521 299.67 162.927Z"
			fill="white" />
		<path
			d="M264.657 174.397C263.624 174.526 262.619 174.447 261.622 174.32C260.628 174.171 259.64 173.972 258.681 173.565C259.714 173.435 260.719 173.514 261.716 173.642C262.711 173.792 263.699 173.991 264.657 174.397Z"
			fill="white" />
		<path
			d="M269.766 205.275C269.725 205.33 269.683 205.385 269.635 205.433C269.58 205.426 269.519 205.419 269.457 205.405C269.56 205.364 269.663 205.316 269.766 205.275Z"
			fill="white" />
		<path
			d="M245.078 182.937C245.717 182.116 246.483 181.461 247.279 180.846C248.087 180.247 248.926 179.69 249.892 179.3C249.253 180.123 248.487 180.777 247.691 181.392C246.881 181.988 246.043 182.546 245.078 182.937Z"
			fill="white" />
		<path
			d="M281.484 175.383C282.124 174.562 282.89 173.907 283.685 173.292C284.494 172.693 285.332 172.136 286.298 171.746C285.659 172.569 284.893 173.223 284.097 173.837C283.288 174.435 282.449 174.993 281.484 175.383Z"
			fill="white" />
		<path
			d="M269.402 185.806C270.224 186.446 270.878 187.212 271.494 188.007C272.092 188.816 272.65 189.654 273.04 190.62C272.217 189.981 271.562 189.215 270.948 188.419C270.351 187.61 269.793 186.771 269.402 185.806Z"
			fill="white" />
		<path
			d="M303.969 170.218C304.79 170.857 305.445 171.623 306.06 172.419C306.659 173.227 307.216 174.066 307.606 175.032C306.783 174.393 306.129 173.627 305.515 172.831C304.917 172.021 304.359 171.182 303.969 170.218Z"
			fill="white" />
		<path
			d="M260.439 166.788C257.69 171.757 255.043 176.776 252.076 181.621C249.149 186.4 246.136 191.199 242.721 195.646C242.656 195.73 242.511 195.641 242.562 195.545C245.19 190.586 248.189 185.801 251.11 181.01C254.054 176.181 257.193 171.478 260.129 166.644C260.242 166.461 260.547 166.594 260.439 166.788Z"
			fill="#263238" />
		<path
			d="M321.974 158.56C317.508 167.459 291.475 205.421 277.412 206.023C273.998 206.167 269.676 205.572 265.093 204.58C276.023 192.89 306.591 159.921 320.743 144.661C325.039 144.401 327.125 148.287 321.974 158.56Z"
			fill="#263238" />
		<path
			d="M296.028 246.687H378.57C378.57 246.687 346.476 165.434 329.385 149.087C324.738 144.642 313.263 144.971 307.639 152.467C303.029 158.612 290.233 183.075 289.648 191.872C289.091 200.691 295.969 209.358 295.969 209.358L296.028 246.687Z"
			fill="#FFC727" />
		<path
			d="M306.577 216.241C306.448 215.209 306.527 214.204 306.654 213.206C306.802 212.212 307.001 211.224 307.408 210.265C307.538 211.299 307.46 212.303 307.331 213.301C307.181 214.295 306.982 215.283 306.577 216.241Z"
			fill="white" />
		<path
			d="M363.295 231.537C363.167 230.503 363.245 229.499 363.373 228.502C363.521 227.508 363.72 226.52 364.127 225.561C364.257 226.594 364.178 227.599 364.05 228.596C363.899 229.59 363.701 230.578 363.295 231.537Z"
			fill="white" />
		<path
			d="M327.685 244.901C327.556 243.868 327.635 242.863 327.762 241.866C327.911 240.872 328.11 239.884 328.517 238.925C328.647 239.958 328.568 240.963 328.439 241.96C328.29 242.955 328.091 243.943 327.685 244.901Z"
			fill="white" />
		<path
			d="M319.48 183.567C319.352 182.534 319.43 181.53 319.558 180.532C319.706 179.537 319.905 178.55 320.312 177.591C320.442 178.624 320.363 179.628 320.235 180.626C320.084 181.621 319.886 182.608 319.48 183.567Z"
			fill="white" />
		<path
			d="M341.416 208.26C341.288 207.228 341.366 206.223 341.494 205.226C341.642 204.231 341.841 203.243 342.248 202.285C342.378 203.319 342.299 204.323 342.171 205.32C342.021 206.314 341.823 207.302 341.416 208.26Z"
			fill="white" />
		<path
			d="M297.262 188.213C297.133 187.18 297.212 186.175 297.339 185.178C297.488 184.183 297.687 183.195 298.094 182.236C298.224 183.27 298.145 184.274 298.016 185.272C297.867 186.266 297.668 187.254 297.262 188.213Z"
			fill="white" />
		<path
			d="M326.291 212.499C325.258 212.628 324.253 212.549 323.256 212.422C322.262 212.274 321.274 212.074 320.315 211.667C321.348 211.538 322.353 211.616 323.351 211.745C324.344 211.895 325.332 212.094 326.291 212.499Z"
			fill="white" />
		<path
			d="M351.185 188.892C350.152 189.021 349.147 188.942 348.15 188.815C347.156 188.667 346.168 188.468 345.21 188.061C346.243 187.931 347.247 188.009 348.245 188.138C349.238 188.288 350.226 188.486 351.185 188.892Z"
			fill="white" />
		<path
			d="M306.765 240.259C305.732 240.388 304.727 240.309 303.73 240.182C302.735 240.034 301.748 239.835 300.789 239.428C301.823 239.298 302.827 239.376 303.824 239.505C304.818 239.655 305.806 239.853 306.765 240.259Z"
			fill="white" />
		<path
			d="M353.074 219.813C352.041 219.942 351.036 219.863 350.039 219.736C349.044 219.587 348.056 219.388 347.098 218.981C348.132 218.851 349.136 218.93 350.133 219.059C351.127 219.209 352.115 219.407 353.074 219.813Z"
			fill="white" />
		<path
			d="M314 231.029C314.639 230.208 315.405 229.553 316.201 228.938C317.009 228.339 317.848 227.782 318.814 227.392C318.175 228.215 317.409 228.869 316.613 229.484C315.804 230.08 314.965 230.638 314 231.029Z"
			fill="white" />
		<path
			d="M345.209 236.993C345.849 236.172 346.615 235.517 347.41 234.902C348.219 234.303 349.057 233.746 350.023 233.356C349.384 234.179 348.618 234.833 347.822 235.447C347.013 236.044 346.174 236.602 345.209 236.993Z"
			fill="white" />
		<path
			d="M353.475 207.795C354.115 206.973 354.881 206.319 355.676 205.703C356.485 205.105 357.323 204.547 358.289 204.157C357.65 204.98 356.884 205.635 356.088 206.249C355.279 206.845 354.44 207.403 353.475 207.795Z"
			fill="white" />
		<path
			d="M304.193 197.299C304.832 196.477 305.599 195.823 306.394 195.207C307.202 194.608 308.041 194.051 309.007 193.661C308.368 194.484 307.602 195.139 306.806 195.753C305.997 196.35 305.157 196.908 304.193 197.299Z"
			fill="white" />
		<path
			d="M336.108 177.202C336.747 176.381 337.513 175.726 338.309 175.11C339.117 174.512 339.956 173.954 340.922 173.565C340.283 174.387 339.517 175.042 338.721 175.656C337.911 176.253 337.073 176.812 336.108 177.202Z"
			fill="white" />
		<path
			d="M298.157 221.335C297.528 222.142 296.776 222.792 295.989 223.401V222.566C296.659 222.087 297.371 221.657 298.157 221.335Z"
			fill="white" />
		<path
			d="M319.85 164.33C320.489 163.508 321.255 162.854 322.051 162.238C322.859 161.64 323.698 161.082 324.664 160.692C324.025 161.515 323.259 162.17 322.462 162.784C321.654 163.381 320.815 163.939 319.85 164.33Z"
			fill="white" />
		<path
			d="M292.631 201.468C293.452 202.107 294.107 202.873 294.722 203.669C295.321 204.477 295.878 205.316 296.268 206.282C295.445 205.643 294.791 204.877 294.176 204.081C293.58 203.272 293.022 202.433 292.631 201.468Z"
			fill="white" />
		<path
			d="M303.969 170.218C304.79 170.857 305.445 171.623 306.06 172.419C306.659 173.227 307.216 174.066 307.606 175.032C306.783 174.393 306.129 173.627 305.514 172.831C304.917 172.021 304.359 171.182 303.969 170.218Z"
			fill="white" />
		<path
			d="M332.593 220.746C333.415 221.386 334.069 222.152 334.685 222.947C335.283 223.756 335.841 224.594 336.231 225.56C335.408 224.921 334.753 224.155 334.139 223.359C333.543 222.551 332.985 221.711 332.593 220.746Z"
			fill="white" />
		<path
			d="M362.308 240.593C363.13 241.232 363.784 241.998 364.4 242.794C364.999 243.602 365.556 244.441 365.946 245.407C365.123 244.768 364.468 244.002 363.854 243.205C363.258 242.396 362.7 241.558 362.308 240.593Z"
			fill="white" />
		<path
			d="M332.041 155.463C332.862 156.102 333.517 156.868 334.132 157.664C334.731 158.472 335.288 159.311 335.678 160.277C334.855 159.638 334.201 158.872 333.586 158.075C332.989 157.267 332.432 156.428 332.041 155.463Z"
			fill="white" />
		<path
			d="M326.716 193.974C327.538 194.613 328.192 195.379 328.807 196.175C329.406 196.983 329.963 197.822 330.353 198.788C329.53 198.149 328.876 197.383 328.261 196.587C327.665 195.777 327.107 194.939 326.716 193.974Z"
			fill="white" />
		<path
			d="M323.899 149.874C323.442 151.093 316.384 158.472 310.674 157.457C308.815 157.123 310.185 146.895 310.185 146.895L310.113 146.117L309.12 135.224L322.59 128.86L324.523 128.037C324.523 128.037 324.599 131.035 324.655 134.769C324.658 134.942 324.661 135.116 324.663 135.3C324.672 135.512 324.683 135.711 324.681 135.908C324.697 136.466 324.711 137.036 324.712 137.603C324.715 138.036 324.72 138.456 324.707 138.909C324.705 139.365 324.694 139.806 324.692 140.263C324.579 144.753 324.085 149.356 323.899 149.874Z"
			fill="#AD6359" />
		<path
			d="M324.655 134.77C320.529 142.801 313.353 145.362 310.113 146.118L309.12 135.225L322.59 128.861L324.523 128.038C324.523 128.038 324.599 131.036 324.655 134.77Z"
			fill="#263238" />
		<path
			d="M295.267 119.18C293.744 138.316 305.034 141.388 309.161 141.712C312.907 142.006 325.7 142.531 329.192 123.654C332.683 104.778 324.268 98.0209 315.735 96.8957C307.202 95.7705 296.789 100.043 295.267 119.18Z"
			fill="#AD6359" />
		<path
			d="M298.492 115.113C298.943 115.065 299.351 114.945 299.792 114.851C300.29 114.745 300.697 114.712 301.067 114.331C301.265 114.128 301.254 113.709 301.074 113.498C300.654 113.005 300.012 112.983 299.408 113.086C298.752 113.197 298.276 113.451 297.838 113.951C297.415 114.437 297.898 115.176 298.492 115.113Z"
			fill="#263238" />
		<path
			d="M311.231 115.386C310.78 115.329 310.375 115.202 309.936 115.1C309.44 114.985 309.034 114.944 308.671 114.557C308.477 114.349 308.496 113.931 308.68 113.723C309.109 113.238 309.75 113.228 310.353 113.342C311.007 113.466 311.479 113.73 311.906 114.237C312.321 114.73 311.824 115.46 311.231 115.386Z"
			fill="#263238" />
		<path
			d="M308.233 120.21C308.244 120.16 308.332 120.275 308.329 120.328C308.245 121.633 308.368 123.142 309.536 123.614C309.572 123.629 309.566 123.694 309.522 123.687C308.087 123.437 307.944 121.433 308.233 120.21Z"
			fill="#263238" />
		<path
			d="M309.445 118.884C311.551 118.793 311.577 123.012 309.626 123.096C307.705 123.179 307.679 118.959 309.445 118.884Z"
			fill="#263238" />
		<path
			d="M310.274 119.102C310.645 119.338 311.008 119.758 311.452 119.799C311.967 119.847 312.352 119.402 312.686 118.975C312.72 118.931 312.757 118.968 312.758 119.023C312.775 119.832 312.469 120.663 311.603 120.788C310.813 120.903 310.242 120.191 310.034 119.379C309.996 119.23 310.125 119.007 310.274 119.102Z"
			fill="#263238" />
		<path
			d="M300.979 119.921C300.968 119.871 300.877 119.984 300.88 120.038C300.939 121.345 300.788 122.851 299.611 123.301C299.575 123.315 299.579 123.381 299.623 123.374C301.064 123.151 301.245 121.15 300.979 119.921Z"
			fill="#263238" />
		<path
			d="M299.793 118.573C297.688 118.442 297.583 122.661 299.532 122.782C301.45 122.9 301.556 118.682 299.793 118.573Z"
			fill="#263238" />
		<path
			d="M298.906 118.828C298.567 119.044 298.227 119.441 297.828 119.457C297.366 119.476 297.035 119.011 296.752 118.566C296.722 118.52 296.688 118.554 296.685 118.611C296.643 119.416 296.888 120.262 297.659 120.437C298.362 120.596 298.898 119.917 299.111 119.119C299.15 118.971 299.042 118.742 298.906 118.828Z"
			fill="#263238" />
		<path
			d="M308.328 130.552C308.031 130.873 307.741 131.31 307.269 131.375C306.817 131.436 306.274 131.258 305.849 131.119C305.808 131.105 305.768 131.151 305.796 131.189C306.161 131.672 306.89 131.949 307.49 131.812C308.075 131.678 308.341 131.152 308.457 130.604C308.473 130.528 308.371 130.505 308.328 130.552Z"
			fill="#263238" />
		<path
			d="M302.89 125.797C302.89 125.797 302.609 127.748 302.604 128.669C302.604 128.755 302.826 128.797 303.139 128.817C303.154 128.822 303.162 128.828 303.175 128.819C304.8 129.081 306.44 128.529 307.436 127.207C307.5 127.118 307.384 127.022 307.3 127.079C306.081 127.964 304.738 128.186 303.296 128.202C303.232 127.947 303.888 124.877 303.742 124.866C303.239 124.82 302.245 125.157 301.648 125.328C302.115 121.248 303.232 117.275 303.635 113.206C303.647 113.06 303.438 113.015 303.395 113.145C301.93 117.225 301.29 121.909 300.7 126.11C300.621 126.633 302.52 125.952 302.89 125.797Z"
			fill="#263238" />
		<path
			d="M303.335 128.626C303.335 128.626 304.226 129.858 305.46 130.315C305.914 130.484 306.405 130.555 306.922 130.423C307.984 130.158 308.023 129.187 307.838 128.353C307.689 127.667 307.379 127.074 307.379 127.074C307.379 127.074 305.815 128.503 303.335 128.626Z"
			fill="#263238" />
		<path
			d="M305.459 130.315C305.913 130.484 306.404 130.555 306.921 130.423C307.984 130.158 308.022 129.187 307.837 128.353C306.702 128.456 305.569 129.213 305.459 130.315Z"
			fill="#EB9481" />
		<path
			d="M328.34 125.561C324.128 123.552 323.963 119.132 323.963 119.132C318.731 116.865 315.915 112.771 315.623 112.356C315.751 112.75 316.66 115.596 317.17 117.032C305.065 114.713 301.358 105.424 301.358 105.424C297.412 109.328 296.616 111.833 296.041 113.081C296.041 113.081 295.986 105.647 299.831 100.688C304.536 94.6152 320.337 93.042 327.612 101.024C335.442 109.633 328.34 125.561 328.34 125.561Z"
			fill="#263238" />
		<path
			d="M307.971 114.984C309.896 116.079 312.039 116.822 314.175 117.295C314.193 117.299 314.197 117.272 314.181 117.267C310.772 116.285 307.716 114.482 305.312 111.85C304.296 110.738 303.424 109.513 302.714 108.184C301.972 106.795 301.25 105.141 301.125 103.558C301.116 103.437 300.928 103.453 300.938 103.573C301.071 105.247 301.21 106.789 301.878 108.351C302.512 109.835 303.426 111.217 304.551 112.375C305.556 113.409 306.717 114.271 307.971 114.984Z"
			fill="#263238" />
		<path
			d="M326.034 124.883C326.034 124.883 330.18 118.861 332.91 120.336C335.639 121.81 332.551 130.518 329.367 131.729C326.184 132.94 325.006 130.015 325.006 130.015L326.034 124.883Z"
			fill="#AD6359" />
		<path
			d="M331.963 122.81C332.014 122.805 332.024 122.877 331.98 122.895C329.749 123.818 328.586 125.901 327.776 128.059C328.436 127.226 329.339 126.766 330.454 127.55C330.513 127.592 330.457 127.683 330.394 127.671C329.476 127.481 328.816 127.645 328.202 128.384C327.767 128.907 327.472 129.566 327.162 130.169C327.059 130.37 326.697 130.265 326.772 130.034C326.777 130.017 326.784 129.999 326.79 129.982C326.712 127.128 328.901 123.119 331.963 122.81Z"
			fill="#263238" />
		<path
			d="M326.702 131.294C326.702 132.067 327.328 132.693 328.101 132.693C328.874 132.693 329.501 132.067 329.501 131.294C329.501 130.521 328.874 129.895 328.101 129.895C327.328 129.895 326.702 130.521 326.702 131.294Z"
			fill="white" />
		<path
			d="M303.96 153.779C303.96 153.779 300.042 164.898 307.123 165.686C314.204 166.474 332.695 152.802 332.695 152.802C332.695 152.802 327.56 144.493 319.365 145.38C312.564 146.117 303.96 153.779 303.96 153.779Z"
			fill="#AD6359" />
		<path
			d="M337.394 166.798C337.381 180.536 329.501 221.717 321.921 227.264C306.754 238.365 271.193 237.601 261.384 237.769C257.151 237.843 251.59 209.654 254.744 206.407C257.899 203.16 301.225 201.966 303.443 200.303C304.984 199.147 317.213 179.1 324.294 166.211C333.865 148.791 337.4 159.88 337.394 166.798Z"
			fill="#AD6359" />
		<path
			d="M262.292 204.908C262.292 204.908 249.491 203.492 241.076 202.96C236.381 202.663 228.287 202.872 224.739 204.231C219.431 206.264 198.529 218.159 201.304 223.288C203.816 227.932 210.202 222.795 210.202 222.795C210.202 222.795 202.695 227.754 206.602 231.594C210.545 235.469 218.211 227.967 218.211 227.967C218.211 227.967 209.877 232.679 214.438 236.38C218.398 239.593 228.165 231.914 228.165 231.914C228.165 231.914 218.873 235.9 222.607 239.589C226.734 243.666 242.824 233.992 242.824 233.992C253.296 237.481 260.055 238.161 268.066 237.655C269.535 237.563 262.292 204.908 262.292 204.908Z"
			fill="#AD6359" />
		<path
			d="M215.878 229.662C216.506 229.099 217.147 228.551 217.776 227.99C219.009 226.888 220.222 225.821 221.579 224.871C222.89 223.951 224.237 223.096 225.612 222.277C227.065 221.412 228.615 220.691 230.044 219.793C230.159 219.72 230.259 219.887 230.139 219.954C228.698 220.765 227.367 221.845 226.03 222.816C224.707 223.778 223.395 224.759 222.085 225.74C220.803 226.7 219.467 227.564 218.16 228.486C217.509 228.945 216.877 229.434 216.246 229.921C215.655 230.376 215.079 230.927 214.417 231.275C214.351 231.31 214.294 231.22 214.333 231.167C214.75 230.592 215.353 230.133 215.878 229.662Z"
			fill="#263238" />
		<path
			d="M208.659 223.858C209.528 222.73 214.306 218.832 215.586 217.909C218.061 216.124 220.707 214.551 223.486 213.295C223.583 213.251 223.669 213.392 223.581 213.456C221.112 215.258 218.612 217.026 216.116 218.794C214.896 219.659 209.475 223.754 208.854 224.111C208.706 224.198 208.565 223.981 208.659 223.858Z"
			fill="#263238" />
		<path
			d="M222.519 235.293C223.402 234.257 227.911 230.644 229.135 229.818C230.284 229.043 235.409 226.424 237.006 225.915C237.107 225.883 237.194 226.022 237.101 226.077C234.588 227.572 232.055 229.018 229.614 230.633C228.425 231.419 223.866 234.828 222.665 235.481C222.557 235.54 222.442 235.384 222.519 235.293Z"
			fill="#263238" />
		<path
			d="M270.918 239.843L259.22 202.674C259.22 202.674 301.785 199.953 303.165 199.241C304.545 198.528 319.718 171.725 325.718 161.303C331.717 150.882 341.012 155.172 337.545 178.693C334.058 202.355 330.231 220.743 324.929 226.211C318.495 232.847 294.964 239.684 270.918 239.843Z"
			fill="#FFC727" />
		<path
			d="M306.576 216.241C306.448 215.209 306.527 214.204 306.654 213.206C306.802 212.212 307.001 211.224 307.408 210.265C307.538 211.299 307.459 212.303 307.331 213.301C307.181 214.295 306.982 215.283 306.576 216.241Z"
			fill="white" />
		<path
			d="M283.058 237.513C282.93 236.48 283.008 235.475 283.136 234.477C283.284 233.483 283.483 232.495 283.89 231.536C284.02 232.57 283.941 233.574 283.813 234.572C283.663 235.566 283.465 236.554 283.058 237.513Z"
			fill="white" />
		<path
			d="M319.48 183.567C319.351 182.534 319.43 181.53 319.557 180.532C319.706 179.537 319.905 178.55 320.312 177.591C320.442 178.624 320.363 179.628 320.234 180.626C320.084 181.621 319.886 182.608 319.48 183.567Z"
			fill="white" />
		<path
			d="M326.291 212.499C325.257 212.628 324.253 212.549 323.256 212.422C322.261 212.274 321.274 212.074 320.315 211.667C321.348 211.538 322.352 211.616 323.35 211.745C324.344 211.895 325.332 212.094 326.291 212.499Z"
			fill="white" />
		<path
			d="M285.425 213.67C284.392 213.798 283.387 213.719 282.39 213.592C281.396 213.444 280.408 213.245 279.449 212.838C280.482 212.708 281.487 212.786 282.484 212.915C283.478 213.065 284.466 213.264 285.425 213.67Z"
			fill="white" />
		<path
			d="M313.999 231.029C314.639 230.208 315.405 229.553 316.2 228.938C317.009 228.339 317.847 227.782 318.814 227.392C318.175 228.215 317.409 228.869 316.613 229.484C315.804 230.08 314.964 230.638 313.999 231.029Z"
			fill="white" />
		<path
			d="M264.951 208.91C265.59 208.089 266.357 207.434 267.152 206.819C267.961 206.22 268.799 205.663 269.766 205.273C269.127 206.096 268.361 206.75 267.565 207.364C266.755 207.962 265.915 208.519 264.951 208.91Z"
			fill="white" />
		<path
			d="M309.005 193.66C308.369 194.481 307.603 195.138 306.803 195.753C306.18 196.212 305.538 196.649 304.833 197.005C305.045 196.677 305.278 196.314 305.517 195.924C305.517 195.918 305.524 195.918 305.524 195.918C305.804 195.671 306.098 195.432 306.393 195.206C307.2 194.611 308.041 194.05 309.005 193.66Z"
			fill="white" />
		<path
			d="M337.952 175.391C337.932 175.678 337.898 175.965 337.863 176.26C337.316 176.622 336.735 176.95 336.105 177.203C336.653 176.506 337.289 175.931 337.952 175.391Z"
			fill="white" />
		<path
			d="M293.344 224.973C293.983 224.151 294.749 223.497 295.545 222.881C296.353 222.282 297.192 221.725 298.158 221.335C297.519 222.158 296.753 222.813 295.957 223.427C295.147 224.023 294.309 224.581 293.344 224.973Z"
			fill="white" />
		<path
			d="M292.63 201.468C293.452 202.107 294.106 202.873 294.722 203.669C295.321 204.477 295.878 205.316 296.268 206.282C295.445 205.643 294.79 204.877 294.176 204.081C293.58 203.272 293.022 202.433 292.63 201.468Z"
			fill="white" />
		<path
			d="M335.674 160.274C334.854 159.638 334.204 158.872 333.588 158.079C333.089 157.408 332.624 156.718 332.261 155.952C332.391 155.952 332.514 155.958 332.637 155.972C333.192 156.492 333.67 157.066 334.129 157.662C334.73 158.475 335.285 159.31 335.674 160.274Z"
			fill="white" />
		<path
			d="M326.716 193.974C327.538 194.613 328.192 195.379 328.807 196.175C329.406 196.983 329.963 197.822 330.353 198.788C329.53 198.149 328.875 197.383 328.261 196.587C327.665 195.777 327.107 194.939 326.716 193.974Z"
			fill="white" />
		<path
			d="M316.486 177.028C315.1 179.106 313.817 181.249 312.533 183.392C312.497 183.451 312.461 183.511 312.425 183.571C312.489 183.409 312.555 183.247 312.618 183.084C313.036 182.022 313.403 180.933 313.857 179.885C313.884 179.823 313.791 179.77 313.763 179.833C313.303 180.866 312.789 181.872 312.35 182.915C312.055 183.617 311.787 184.33 311.538 185.05C310.586 186.636 309.634 188.224 308.699 189.821C307.438 191.974 306.187 194.132 304.918 196.281C304.608 196.806 304.303 197.335 303.988 197.857C303.715 198.308 303.403 198.712 302.883 198.88C302.339 199.055 301.702 199.052 301.138 199.111C300.516 199.176 299.894 199.252 299.273 199.327C296.44 199.671 293.627 200.139 290.798 200.509C290.731 200.518 290.731 200.621 290.801 200.615C293.403 200.42 296.009 200.322 298.611 200.11C299.892 200.006 301.18 199.916 302.455 199.753C302.938 199.691 303.406 199.586 303.793 199.273C304.165 198.972 304.411 198.557 304.648 198.147C307.225 193.686 309.807 189.227 312.375 184.761C313.83 182.231 315.308 179.712 316.65 177.119C316.707 177.011 316.553 176.929 316.486 177.028Z"
			fill="#263238" />
		<path
			d="M337.621 186.948C337.55 187.785 337.237 188.654 337.014 189.461C336.812 190.193 336.614 190.926 336.39 191.652C336.137 192.475 335.855 193.288 335.57 194.099C336.145 190.479 336.602 186.844 336.939 183.184C336.95 183.073 336.76 183.052 336.744 183.162C336.06 188.268 335.119 193.357 334.048 198.395C332.976 203.442 331.671 208.457 330.202 213.403C329.479 215.837 328.715 218.267 327.861 220.658C327.129 222.707 326.254 224.784 324.879 226.492C323.384 228.352 321.346 229.523 319.207 230.507C316.941 231.55 314.614 232.462 312.244 233.237C306.858 235 301.289 236.121 295.787 237.447C295.729 237.46 295.743 237.56 295.804 237.551C300.856 236.804 305.882 235.879 310.808 234.515C313.293 233.827 315.785 233.051 318.166 232.057C320.362 231.139 322.626 230.145 324.398 228.516C326.073 226.977 327.205 224.939 328.064 222.857C328.987 220.618 329.712 218.292 330.431 215.981C332 210.933 333.317 205.841 334.388 200.665C334.699 199.165 334.981 197.662 335.242 196.156C335.877 194.745 336.334 193.234 336.732 191.739C336.941 190.954 337.141 190.164 337.294 189.366C337.447 188.575 337.503 187.734 337.725 186.961C337.747 186.889 337.628 186.868 337.621 186.948Z"
			fill="#263238" />
		<path
			d="M278.324 236.846C276.394 231.506 274.357 226.209 272.664 220.786C270.993 215.436 269.363 210.009 268.264 204.511C268.244 204.407 268.406 204.357 268.444 204.457C270.447 209.7 272.075 215.107 273.759 220.461C275.456 225.856 276.93 231.315 278.636 236.707C278.7 236.913 278.4 237.054 278.324 236.846Z"
			fill="#263238" />
		<path
			d="M271.149 201.806C270.141 201.728 269.103 201.789 268.092 201.814C267.074 201.84 266.055 201.881 265.037 201.925C263.001 202.011 260.967 202.164 258.936 202.337C258.783 202.35 258.631 202.503 258.697 202.667C258.974 203.363 259.272 204.2 259.738 204.793C259.768 204.831 259.842 204.822 259.837 204.764C259.791 204.123 259.541 203.446 259.305 202.826C261.249 202.698 263.192 202.579 265.135 202.431C266.152 202.353 267.17 202.287 268.187 202.208C269.178 202.13 270.191 202.099 271.172 201.941C271.255 201.928 271.221 201.811 271.149 201.806Z"
			fill="#263238" />
		<path
			d="M225.207 193.84C227.743 195.098 239.337 195.577 242.721 199.733C244.971 202.496 244.748 205.293 246.06 213.552C247.197 220.717 241.255 219.011 239.551 215.345C236.871 209.579 234.564 203.256 234.564 203.256C231.845 203.07 228.629 203.347 228.629 203.347L225.207 193.84Z"
			fill="#F7A9A0" />
		<path
			d="M233.567 220.945C237.58 218.401 250.424 234.607 244.006 238.902C237.589 243.196 229.021 223.828 233.567 220.945Z"
			fill="#F7A9A0" />
		<path
			d="M227.06 224.397C231.073 221.852 243.916 238.059 237.499 242.353C231.081 246.649 222.514 227.28 227.06 224.397Z"
			fill="#F7A9A0" />
		<path
			d="M222.454 225.034C226.456 223.28 235.871 239.798 229.44 242.808C223.01 245.817 217.921 227.021 222.454 225.034Z"
			fill="#F7A9A0" />
		<path
			d="M217.74 224.579C221.949 224.078 226.036 242.066 219.217 243.047C212.399 244.03 212.972 225.146 217.74 224.579Z"
			fill="#F7A9A0" />
		<path
			d="M232.65 226.555C233.414 227.341 234.024 228.263 234.646 229.163C235.313 230.126 235.969 231.103 236.54 232.127C237.084 233.104 237.623 234.114 238.046 235.15C238.497 236.255 238.816 237.428 239.298 238.515C239.353 238.638 239.174 238.714 239.125 238.586C238.712 237.526 238.053 236.508 237.491 235.519C236.928 234.529 236.412 233.51 235.858 232.513C235.319 231.542 234.806 230.557 234.25 229.594C233.682 228.609 233.033 227.667 232.523 226.651C232.483 226.571 232.585 226.487 232.65 226.555Z"
			fill="#263238" />
		<path
			d="M225.965 226.463C226.382 227.682 227.757 232.332 228.225 233.536C228.696 234.746 229.201 235.948 229.728 237.136C230.263 238.342 230.733 239.62 231.374 240.772C231.434 240.879 231.269 240.972 231.209 240.865C230.563 239.703 229.816 238.617 229.225 237.42C228.642 236.238 228.122 235.035 227.653 233.804C227.181 232.564 225.936 227.768 225.769 226.488C225.754 226.371 225.931 226.364 225.965 226.463Z"
			fill="#263238" />
		<path
			d="M220.927 227.623C221.248 229.36 221.458 231.116 221.786 232.853C221.947 233.71 222.115 234.565 222.271 235.424C222.347 235.839 222.415 236.255 222.49 236.67C222.57 237.118 222.588 237.677 222.758 238.091C222.805 238.206 222.591 238.263 222.572 238.115C222.508 237.614 222.231 237.079 222.085 236.591C221.964 236.188 221.847 235.785 221.746 235.376C221.533 234.529 221.366 233.678 221.229 232.815C220.96 231.127 220.703 229.363 220.696 227.653C220.695 227.523 220.903 227.488 220.927 227.623Z"
			fill="#263238" />
		<path
			d="M283.516 112.597C285.202 110.029 286.15 107.142 286.15 104.09C286.15 93.3128 274.314 84.5747 259.725 84.5747C245.135 84.5747 233.311 93.3128 233.311 104.09C233.311 114.867 245.134 123.606 259.725 123.606C266.799 123.606 273.212 121.556 277.951 118.206L287.053 120.52L283.516 112.597Z"
			fill="#FFC727" />
		<path
			d="M250.224 104.089C250.224 105.602 248.998 106.828 247.484 106.828C245.971 106.828 244.744 105.602 244.744 104.089C244.744 102.576 245.971 101.349 247.484 101.349C248.998 101.349 250.224 102.576 250.224 104.089Z"
			fill="#263238" />
		<path
			d="M259.728 106.828C261.241 106.828 262.468 105.601 262.468 104.089C262.468 102.576 261.241 101.349 259.728 101.349C258.215 101.349 256.989 102.576 256.989 104.089C256.989 105.601 258.215 106.828 259.728 106.828Z"
			fill="#263238" />
		<path
			d="M274.712 104.089C274.712 105.602 273.485 106.828 271.972 106.828C270.459 106.828 269.233 105.602 269.233 104.089C269.233 102.576 270.459 101.349 271.972 101.349C273.485 101.349 274.712 102.576 274.712 104.089Z"
			fill="#263238" />
		<path
			d="M188.141 54.0601C186.617 66.8194 178.413 69.1464 177.032 72.5472C176.294 74.3886 175.31 79.0699 175.31 79.0699L161.975 79.0384C161.975 79.0384 161.022 74.3523 160.284 72.5076C158.927 69.1006 150.725 66.7346 149.271 53.9677C148.309 45.5792 154.646 32.3527 168.757 32.3862C182.868 32.4197 189.133 45.6756 188.141 54.0601Z"
			fill="#FFC727" />
		<path d="M161.797 58.6445L161.125 58.7683L165.03 79.9904L165.703 79.8666L161.797 58.6445Z"
			fill="white" />
		<path d="M175.578 58.6701L171.575 79.8728L172.248 79.9997L176.25 58.797L175.578 58.6701Z"
			fill="white" />
		<path
			d="M168.682 65.7675C168.681 65.7675 168.679 65.7675 168.678 65.7675C167.632 65.7654 166.579 64.9323 165.712 63.422C165.673 63.3536 165.634 63.2839 165.596 63.2127C165.228 63.6204 164.835 63.8372 164.453 63.8372H164.451C162.451 63.8324 161.661 59.7127 161.629 59.5376L161.965 59.4747C161.972 59.515 162.734 63.4911 164.452 63.4952H164.454C164.762 63.4952 165.103 63.2784 165.429 62.8837C164.584 61.1491 164.118 58.8775 164.716 57.8461C164.922 57.4931 165.24 57.3064 165.639 57.3064H165.642C166.126 57.3071 166.505 57.5246 166.74 57.935C167.34 58.9788 166.896 61.1395 166.104 62.5021C166.016 62.6553 165.924 62.7955 165.831 62.9234C165.888 63.0342 165.948 63.1437 166.009 63.251C166.474 64.0616 167.44 65.4214 168.679 65.4248C168.68 65.4248 168.682 65.4248 168.683 65.4248C169.509 65.4248 170.34 64.775 171.026 63.5951C171.082 63.498 171.137 63.3981 171.19 63.2969C171.02 63.1088 170.864 62.8892 170.721 62.6402C169.897 61.2052 169.732 59.0793 170.359 57.9966C170.617 57.554 170.989 57.3208 171.437 57.3208H171.44C171.796 57.3214 172.087 57.5013 172.281 57.8406C172.87 58.8666 172.54 61.3092 171.605 63.2312C171.944 63.5486 172.384 63.788 172.941 63.7894H172.943C174.163 63.7894 175.247 60.8789 175.561 59.7565L175.89 59.8488C175.841 60.0239 174.67 64.1314 172.942 64.1314H172.94C172.385 64.13 171.88 63.9309 171.443 63.5479C171.403 63.6218 171.362 63.6943 171.321 63.7661C170.791 64.6799 169.903 65.7675 168.682 65.7675ZM171.437 57.6628C171.113 57.6628 170.85 57.8331 170.655 58.1682C170.09 59.1409 170.26 61.1505 171.017 62.4699C171.11 62.6313 171.221 62.801 171.355 62.9631C172.191 61.1703 172.505 58.9165 171.985 58.0109C171.851 57.7777 171.672 57.6634 171.44 57.6628H171.437ZM165.638 57.6491C165.36 57.6491 165.155 57.7701 165.011 58.0184C164.536 58.8358 164.843 60.8358 165.656 62.5746C165.708 62.498 165.758 62.4172 165.807 62.3317C166.535 61.0773 166.975 59.0342 166.443 58.1067C166.267 57.8002 166.004 57.6504 165.64 57.6498L165.638 57.6491Z"
			fill="white" />
		<path d="M176.87 78.5114L160.417 78.472L160.409 81.6875L176.862 81.7269L176.87 78.5114Z"
			fill="#455A64" />
		<path d="M176.861 82.2468L160.408 82.2074L160.401 85.4229L176.854 85.4623L176.861 82.2468Z"
			fill="#455A64" />
		<path d="M176.851 85.9845L160.398 85.9451L160.391 89.1606L176.844 89.2L176.851 85.9845Z"
			fill="#455A64" />
		<path
			d="M169.364 21.9169C169.62 22.8068 169.667 23.6939 169.665 24.5804C169.641 25.4661 169.567 26.3512 169.282 27.2329C169.025 26.343 168.978 25.4559 168.981 24.5694C169.007 23.6836 169.081 22.7985 169.364 21.9169Z"
			fill="#263238" />
		<path
			d="M154.451 25.5613C155.118 26.2042 155.601 26.9491 156.043 27.7172C156.465 28.4963 156.844 29.3 157.038 30.2063C156.37 29.564 155.885 28.8192 155.445 28.0504C155.025 27.2706 154.647 26.4669 154.451 25.5613Z"
			fill="#263238" />
		<path
			d="M143.359 36.1748C144.257 36.3985 145.049 36.8014 145.815 37.246C146.571 37.7097 147.3 38.2165 147.921 38.904C147.022 38.6817 146.23 38.2788 145.465 37.8328C144.709 37.3677 143.98 36.8609 143.359 36.1748Z"
			fill="#263238" />
		<path
			d="M139.058 50.9124C139.948 50.6565 140.835 50.6093 141.722 50.6114C142.608 50.6353 143.493 50.7092 144.374 50.9944C143.484 51.2516 142.597 51.2988 141.711 51.2954C140.825 51.2701 139.94 51.1962 139.058 50.9124Z"
			fill="#263238" />
		<path
			d="M142.703 65.8255C143.345 65.1586 144.09 64.675 144.858 64.2332C145.638 63.8105 146.441 63.4329 147.348 63.2386C146.705 63.9069 145.961 64.3912 145.192 64.831C144.412 65.2523 143.608 65.6306 142.703 65.8255Z"
			fill="#263238" />
		<path
			d="M194.06 66.961C193.161 66.7373 192.37 66.3344 191.603 65.8898C190.848 65.4261 190.118 64.9192 189.497 64.2318C190.397 64.4541 191.189 64.857 191.954 65.303C192.708 65.7681 193.438 66.2749 194.06 66.961Z"
			fill="#263238" />
		<path
			d="M198.36 52.2235C197.47 52.4794 196.583 52.5266 195.697 52.5245C194.811 52.5006 193.926 52.4267 193.044 52.1415C193.934 51.8843 194.821 51.8371 195.708 51.8405C196.593 51.8658 197.479 51.9397 198.36 52.2235Z"
			fill="#263238" />
		<path
			d="M194.715 37.3096C194.072 37.9765 193.327 38.4601 192.559 38.9012C191.78 39.324 190.976 39.7022 190.071 39.8958C190.713 39.2275 191.457 38.7432 192.227 38.3034C193.007 37.8834 193.81 37.5052 194.715 37.3096Z"
			fill="#263238" />
		<path
			d="M184.102 26.2172C183.879 27.1159 183.476 27.9073 183.031 28.6741C182.568 29.4292 182.061 30.1584 181.373 30.7801C181.596 29.8807 181.998 29.0886 182.444 28.3232C182.909 27.5681 183.416 26.8389 184.102 26.2172Z"
			fill="#263238" />
	</g>
	<defs>
		<clipPath id="clip0_2804_12266">
			<rect y="0.5" width="445" height="300" rx="8" fill="white" />
		</clipPath>
	</defs>
</svg>
	