<?xml version="1.0" encoding="utf-8"?>
<!-- Generator: Adobe Illustrator 27.5.0, SVG Export Plug-In . SVG Version: 6.00 Build 0)  -->
<svg version="1.1" xmlns="http://www.w3.org/2000/svg" xmlns:xlink="http://www.w3.org/1999/xlink" x="0px" y="0px"
	 viewBox="0 50 500 450" style="enable-background:new 0 0 500 500;" xml:space="preserve">
<g id="BACKGROUND">
	<g>
		<rect style="fill:#FFFFFF;" width="500" height="500"/>
		<g>
			<path style="fill:#E2ECFA;" d="M479.142,299.37c0,17.773-2.068,35.072-5.975,51.649c-4.617,19.555-11.793,38.122-21.157,55.328
				c-4.769,8.763-13.936,14.229-23.912,14.229H66.368C43.864,385.631,30.805,344.03,30.805,299.37
				c0-20.341,2.71-40.048,7.789-58.781C64.387,145.413,151.295,75.38,254.582,75.205C378.166,74.996,479.142,175.786,479.142,299.37
				z"/>
			<g>
				<path style="fill:#A5C3FF;" d="M473.167,351.019c-4.617,19.555-11.793,38.122-21.157,55.328
					c-4.769,8.763-13.936,14.229-23.912,14.229H270.786c3.914-1.934,6.831-6.062,8.938-10.079
					c2.718-5.182,5.127-10.999,10.103-14.081c7.044-4.366,16.648-1.648,24.042-5.38c11.046-5.563,11.775-22.084,21.847-29.264
					c11.125-7.932,27.996-0.792,39.549-8.091c7.805-4.929,10.634-14.834,16.593-21.886c5.309-6.284,13.313-10.206,21.53-10.555
					c8.217-0.349,16.53,2.884,22.354,8.693c5.634,5.618,9.192,13.614,16.3,17.187c5.753,2.9,12.584,2.235,18.923,3.4
					C471.709,350.655,472.438,350.821,473.167,351.019z"/>
				<path style="fill:#FFFFFF;" d="M419.765,340.903c1.2-0.016,2.283-0.517,3.061-1.316c-0.777-0.801-1.861-1.302-3.061-1.318
					c0.837-0.86,1.249-1.98,1.234-3.095c-1.116-0.017-2.237,0.395-3.096,1.232c-0.016-1.2-0.517-2.284-1.316-3.061
					c-0.801,0.777-1.302,1.861-1.318,3.061c-0.861-0.837-1.98-1.249-3.096-1.232c-0.015,1.116,0.397,2.235,1.234,3.095
					c-1.201,0.016-2.284,0.517-3.061,1.318c0.779,0.799,1.862,1.3,3.061,1.316c-0.838,0.861-1.249,1.98-1.232,3.096
					c1.116,0.015,2.235-0.397,3.095-1.234c0.016,1.201,0.517,2.284,1.318,3.061c0.799-0.778,1.3-1.861,1.316-3.061
					c0.86,0.837,1.98,1.249,3.095,1.234C421.014,342.883,420.602,341.763,419.765,340.903z"/>
				<path style="fill:#FFFFFF;" d="M338.935,378.997c1.115,0.016,2.235-0.396,3.095-1.234c0.016,1.199,0.517,2.282,1.316,3.061
					c0.801-0.777,1.302-1.86,1.318-3.061c0.86,0.836,1.979,1.248,3.095,1.234c0.017-1.116-0.395-2.236-1.232-3.096
					c1.199-0.016,2.282-0.517,3.061-1.316c-0.777-0.801-1.86-1.302-3.061-1.318c0.836-0.86,1.248-1.979,1.234-3.095
					c-1.116-0.017-2.236,0.395-3.096,1.232c-0.016-1.2-0.517-2.283-1.318-3.061c-0.8,0.777-1.3,1.861-1.316,3.061
					c-0.86-0.837-1.98-1.249-3.096-1.232c-0.016,1.115,0.396,2.235,1.234,3.095c-1.2,0.016-2.284,0.517-3.061,1.318
					c0.777,0.8,1.861,1.3,3.061,1.316C339.331,376.761,338.918,377.881,338.935,378.997z"/>
				<g>
					<path style="fill:#FFFFFF;" d="M406.43,398.184c1.577,0.022,3.162-0.561,4.378-1.745c0.023,1.696,0.731,3.228,1.862,4.329
						c1.133-1.099,1.841-2.631,1.864-4.329c1.216,1.183,2.799,1.766,4.378,1.745c0.024-1.578-0.559-3.162-1.743-4.379
						c1.696-0.023,3.228-0.731,4.329-1.862c-1.099-1.133-2.631-1.841-4.329-1.864c1.183-1.216,1.766-2.799,1.745-4.378
						c-1.578-0.024-3.162,0.559-4.379,1.743c-0.023-1.697-0.731-3.23-1.864-4.329c-1.131,1.099-1.839,2.632-1.862,4.329
						c-1.216-1.184-2.8-1.767-4.379-1.743c-0.022,1.577,0.561,3.162,1.745,4.378c-1.697,0.023-3.23,0.731-4.329,1.864
						c1.1,1.131,2.632,1.839,4.329,1.862C406.989,395.021,406.406,396.605,406.43,398.184z"/>
				</g>
				<g>
					<path style="fill:#FFFFFF;" d="M447.85,371.61c1.577,0.023,3.162-0.561,4.378-1.745c0.023,1.696,0.731,3.228,1.862,4.329
						c1.133-1.099,1.841-2.631,1.864-4.329c1.216,1.183,2.799,1.766,4.378,1.745c0.024-1.578-0.559-3.162-1.743-4.379
						c1.696-0.023,3.228-0.731,4.329-1.862c-1.099-1.133-2.631-1.841-4.329-1.864c1.183-1.216,1.766-2.799,1.745-4.378
						c-1.578-0.024-3.162,0.559-4.379,1.743c-0.023-1.697-0.731-3.23-1.864-4.329c-1.131,1.099-1.839,2.632-1.862,4.329
						c-1.216-1.184-2.8-1.767-4.379-1.743c-0.022,1.577,0.561,3.162,1.745,4.378c-1.697,0.023-3.23,0.731-4.329,1.864
						c1.1,1.131,2.632,1.839,4.329,1.862C448.409,368.447,447.826,370.031,447.85,371.61z"/>
				</g>
			</g>
			<path style="fill:#A5C3FF;" d="M237.188,269.021v151.556H66.368C43.864,385.631,30.805,344.03,30.805,299.37
				c0-20.341,2.71-40.048,7.789-58.781h79.17c7.845,0,14.208,6.363,14.208,14.216c0,7.853,6.363,14.216,14.216,14.216H237.188z"/>
			<g>
				<g>
					<rect x="51.757" y="251.522" style="fill:#E2ECFA;" width="18.236" height="18.236"/>
					<rect x="58.474" y="248.559" style="fill:#FFCD08;" width="3.681" height="7.392"/>
				</g>
				<g>
					<rect x="76.131" y="251.522" style="fill:#E2ECFA;" width="18.236" height="18.236"/>
					<rect x="83.408" y="248.559" style="fill:#FFCD08;" width="3.681" height="7.392"/>
				</g>
				<g>
					<polygon style="fill:#E2ECFA;" points="113.314,269.758 99.935,269.758 99.935,251.522 118.171,251.522 118.171,264.901 					
						"/>
					<rect x="107.213" y="248.559" style="fill:#FFCD08;" width="3.681" height="7.392"/>
					<polygon style="fill:#BDD4FF;" points="113.314,269.758 113.314,264.901 118.171,264.901 					"/>
				</g>
			</g>
			<g>
				<path style="fill:#6E91F4;" d="M425.47,252.635c0,2.147-1.741,3.888-3.888,3.888c-2.147,0-3.888-1.741-3.888-3.888
					c0-2.147,1.741-3.888,3.888-3.888C423.729,248.746,425.47,250.487,425.47,252.635z"/>
				<path style="fill:#A5C3FF;" d="M69.363,218.033c0,2.53-2.051,4.581-4.581,4.581c-2.53,0-4.581-2.051-4.581-4.581
					c0-2.53,2.051-4.581,4.581-4.581C67.312,213.452,69.363,215.503,69.363,218.033z"/>
				<path style="fill:#6E91F4;" d="M300.201,371.771c1.999,0,3.619,1.62,3.619,3.619s-1.62,3.619-3.619,3.619
					s-3.619-1.62-3.619-3.619S298.202,371.771,300.201,371.771z"/>
				<path style="fill:#6E91F4;" d="M229.291,94.112c1.999,0,3.619,1.62,3.619,3.619c0,1.999-1.62,3.619-3.619,3.619
					c-1.999,0-3.619-1.62-3.619-3.619C225.672,95.732,227.292,94.112,229.291,94.112z"/>
				<polygon style="fill:#A5C3FF;" points="467.108,289.782 465.454,288.128 463.249,290.333 461.044,288.128 459.39,289.782 
					461.595,291.987 459.39,294.192 461.044,295.846 463.249,293.641 465.454,295.846 467.108,294.192 464.902,291.987 				"/>
				<polygon style="fill:#A5C3FF;" points="130.715,134.955 128.409,132.648 125.334,135.723 122.259,132.648 119.952,134.955 
					123.027,138.03 119.952,141.105 122.259,143.411 125.334,140.336 128.409,143.411 130.715,141.105 127.64,138.03 				"/>
				<polygon style="fill:#A5C3FF;" points="327.216,277.847 323.401,284.396 331.031,284.396 				"/>
				<polygon style="fill:#A5C3FF;" points="343.767,113.345 339.952,119.894 347.581,119.894 				"/>
				<polygon style="fill:#A5C3FF;" points="284.496,96.345 282.842,94.691 280.637,96.896 278.432,94.691 276.778,96.345 
					278.983,98.55 276.778,100.755 278.432,102.409 280.637,100.204 282.842,102.409 284.496,100.755 282.291,98.55 				"/>
			</g>
		</g>
	</g>
</g>
<g id="OBJECTS">
	<g>
		<g>
			<g>
				<path style="fill:#5275F4;" d="M32.553,344.276c0.834,4.681-1.023,10.307,2.254,13.751c2.26,2.376,6.206,2.641,8.234,5.215
					c2.179,2.762,1.166,6.718,1.001,10.231c-0.247,5.218,1.903,10.408,5.478,14.171c1.8,1.9,5.433,5.81,8.559,5.94
					c0.765,0.034,1.502-0.161,2.172-0.666c0.218-0.162,0.424-0.335,0.625-0.513c5.722-5.105,4.764-16.363,1.409-22.27
					c-2.283-4.016-6.025-7.606-6.104-12.227c-0.061-3.676,2.302-7.195,1.705-10.824c-0.812-4.902-6.374-7.335-9.157-11.45
					c-3.853-5.701-1.869-13.793-5.303-19.754c-2.868-4.975-9.584-7.325-14.926-5.22c-5.347,2.103-8.657,8.4-7.359,13.995
					C22.865,332.108,31.207,336.75,32.553,344.276z"/>
				<path style="fill:#3545C3;" d="M58.078,393.585c0.765,0.034,1.502-0.161,2.172-0.666c0.218-0.162,0.424-0.335,0.625-0.513
					c-0.454-1.461-0.96-2.909-1.375-4.32c-1.003-3.413-2.016-6.822-3.095-10.213c-2.12-6.666-4.431-13.276-6.851-19.841
					c-2.42-6.564-4.983-13.081-7.674-19.539c-1.329-3.193-2.699-6.371-4.122-9.527c-1.431-3.177-2.688-6.687-4.653-9.575
					c-0.791-1.16-2.685-0.402-2.292,1.001c0.941,3.364,2.749,6.598,4.133,9.801c1.408,3.267,2.806,6.537,4.179,9.821
					c2.651,6.347,5.171,12.753,7.568,19.199c2.396,6.454,4.638,12.957,6.802,19.486c1.121,3.379,2.234,6.76,3.287,10.161
					C57.25,390.382,57.638,391.991,58.078,393.585z"/>
			</g>
			<g>
				<path style="fill:#6E91F4;" d="M76.684,339.079c0.923,4.664,4.697,9.232,2.894,13.631c-1.242,3.034-4.822,4.715-5.778,7.85
					c-1.027,3.365,1.354,6.683,2.783,9.896c2.126,4.772,2.007,10.388,0.043,15.193c-0.987,2.424-2.952,7.386-5.817,8.643
					c-0.7,0.309-1.458,0.395-2.266,0.169c-0.262-0.072-0.517-0.158-0.768-0.251c-7.185-2.679-10.381-13.516-9.401-20.238
					c0.668-4.571,2.851-9.275,1.246-13.609c-1.278-3.447-4.758-5.867-5.519-9.465c-1.023-4.862,3.275-9.149,4.374-13.993
					c1.519-6.711-3.268-13.53-2.233-20.331c0.865-5.677,6.27-10.306,12.011-10.284c5.745,0.018,11.117,4.682,11.94,10.367
					C81.291,324.224,75.204,331.578,76.684,339.079z"/>
				<path style="fill:#5275F4;" d="M70.809,394.292c-0.7,0.309-1.458,0.395-2.266,0.169c-0.262-0.072-0.517-0.158-0.768-0.251
					c-0.108-1.526-0.162-3.059-0.287-4.525c-0.305-3.544-0.6-7.088-0.826-10.64c-0.445-6.98-0.693-13.979-0.822-20.974
					c-0.129-6.995-0.108-13.997,0.054-20.992c0.079-3.458,0.201-6.916,0.381-10.374c0.18-3.48,0.075-7.207,0.858-10.611
					c0.316-1.368,2.356-1.35,2.499,0.1c0.345,3.476-0.165,7.146-0.291,10.632c-0.126,3.555-0.241,7.11-0.327,10.668
					c-0.165,6.876-0.187,13.76-0.079,20.637c0.111,6.884,0.384,13.756,0.74,20.626c0.183,3.555,0.373,7.11,0.628,10.661
					C70.418,391.007,70.64,392.647,70.809,394.292z"/>
			</g>
			<g>
				<path style="fill:#5275F4;" d="M104.454,344.276c-0.834,4.681,1.023,10.307-2.254,13.751c-2.259,2.376-6.205,2.641-8.234,5.215
					c-2.179,2.762-1.166,6.718-1.001,10.231c0.247,5.218-1.903,10.408-5.478,14.171c-1.8,1.9-5.433,5.81-8.559,5.94
					c-0.765,0.034-1.502-0.161-2.172-0.666c-0.218-0.162-0.424-0.335-0.625-0.513c-5.722-5.105-4.764-16.363-1.409-22.27
					c2.282-4.016,6.025-7.606,6.104-12.227c0.061-3.676-2.302-7.195-1.705-10.824c0.812-4.902,6.374-7.335,9.157-11.45
					c3.853-5.701,1.869-13.793,5.303-19.754c2.868-4.975,9.584-7.325,14.926-5.22c5.346,2.103,8.658,8.4,7.359,13.995
					C114.141,332.108,105.799,336.75,104.454,344.276z"/>
				<path style="fill:#3545C3;" d="M78.928,393.585c-0.765,0.034-1.502-0.161-2.172-0.666c-0.218-0.162-0.424-0.335-0.625-0.513
					c0.454-1.461,0.96-2.909,1.375-4.32c1.003-3.413,2.016-6.822,3.095-10.213c2.12-6.666,4.431-13.276,6.851-19.841
					c2.42-6.564,4.983-13.081,7.674-19.539c1.329-3.193,2.699-6.371,4.122-9.527c1.431-3.177,2.688-6.687,4.653-9.575
					c0.791-1.16,2.685-0.402,2.292,1.001c-0.941,3.364-2.749,6.598-4.132,9.801c-1.408,3.267-2.806,6.537-4.179,9.821
					c-2.651,6.347-5.171,12.753-7.568,19.199c-2.396,6.454-4.638,12.957-6.802,19.486c-1.12,3.379-2.234,6.76-3.286,10.161
					C79.756,390.382,79.368,391.991,78.928,393.585z"/>
			</g>
			<path style="fill:#BDD4FF;" d="M43.032,388.295c0,0,0.715,22.399,6.672,26.45c9.078,0,30.238,0,39.317,0
				c5.957-4.051,6.672-26.45,6.672-26.45H43.032z"/>
			<path style="fill:#A5C3FF;" d="M41.245,410.901l1.55,4.869c1.195,3.756,5.177,6.361,9.72,6.361h33.696
				c4.543,0,8.524-2.606,9.72-6.361l1.549-4.869H41.245z"/>
		</g>
		<g>
			<g>
				<path style="fill:#3E3F59;" d="M384.213,136.057c0,0,9.071,0.412,10.996,7.285c2.34,8.358-5.635,13.882-12.37,12.645
					c-6.735-1.237-9.896-5.36-7.422-12.783C377.89,135.782,384.213,136.057,384.213,136.057z"/>
				<path style="fill:#2E2D44;" d="M384.111,137.729c0.893-0.039,5.997,1.615,7.066,6.359c0.989,4.663-4.239,12.012-10.316,8.196
					C374.784,148.469,374.501,138.153,384.111,137.729z"/>
				<path style="fill:#3E3F59;" d="M385.377,133.674c0,0,4.108-12.184-8.675-14.315c-5.429-3.574-10.084-2.751-14.276-0.621
					c-4.192,2.131-7.217,5.504-7.078,14.019c0.119,7.242,2.13,14.157,3.23,20.067c5.017-5.017,10.652-10.446,17.112-12.095
					C382.151,139.08,385.377,133.674,385.377,133.674z"/>
				<path style="fill:#2E2D44;" d="M374.316,122.312c0,0-1.787-2.199-5.567-1.581c-3.78,0.619-6.254,1.374-9.69,6.529
					c-1.375,2.063-1.306,9.14-0.481,15.119c0.825,5.979,1.1,6.598,1.1,6.598s6.96-8.084,13.951-10.858
					c4.33-1.718,6.264,0.509,8.493-2.048C384.35,133.514,383.732,122.106,374.316,122.312z"/>
			</g>
			<g>
				<g>
					<path style="fill:#E48980;" d="M373.285,352.434c-3.566,12.797-5.185,36.447-5.185,36.447s1.055,4.211,2.754,7.777
						c0,0.483-17.33,22.354-17.33,22.354h-18.956l6.32-3.402c0,0,6.408-8.723,10.714-15.679c2.344-3.787,3.579-8.156,3.527-12.609
						c-0.207-17.82-3.066-62.888-4.036-70.361c-0.505-3.896-1.234-10.197-1.889-15.99c-0.813-7.22-1.512-13.654-1.512-13.654
						l24.946-0.487c0,0-0.329,4.961-0.992,13.998c-0.264,3.614-0.582,7.876-0.952,12.731
						C373.769,320.037,376.848,339.637,373.285,352.434z"/>
					<path style="fill:#EA555D;" d="M372.637,286.83c0,0-0.329,4.961-0.992,13.998c-7.026,0.113-16.905,0.238-22.442,0.143
						c-0.813-7.22-1.512-13.654-1.512-13.654L372.637,286.83z"/>
					<path style="fill:#B13D4D;" d="M340.887,414.475c0,0,10.772,2.673,12.473,2.268c5.589-7.046,17.251-23.164,17.251-23.164
						s1.377,2.43,1.701,5.021c0.324,2.592-2.835,24.865-2.835,24.865s-2.673,0.243-2.673,0c0-0.243-0.972-14.336-0.972-14.336
						s-8.099,13.364-9.719,14.093c-6.236,0-27.902-0.121-27.78,0c0.121,0.121-0.648-1.134,2.673-3.24
						C334.327,417.877,337.972,417.472,340.887,414.475z"/>
					<path style="fill:#EA555D;" d="M354.494,312.424c0.81-1.296,7.532-0.567,8.018,0.891c0.486,1.458-2.025,9.476-4.131,9.152
						C356.276,322.143,353.684,313.72,354.494,312.424z"/>
				</g>
				<g>
					<path style="fill:#F6AB9D;" d="M391.788,352.434c-3.566,12.797-5.185,36.447-5.185,36.447s1.055,4.211,2.754,7.777
						c0,0.483-17.33,22.354-17.33,22.354h-18.956l6.32-3.402c0,0,6.408-8.723,10.714-15.679c2.344-3.787,3.579-8.156,3.527-12.609
						c-0.208-17.82-3.066-62.888-4.036-70.361c-0.505-3.896-1.234-10.197-1.889-15.99c-0.813-7.22-1.512-13.654-1.512-13.654
						l24.946-0.487c0,0-0.329,4.961-0.992,13.998c-0.264,3.614-0.582,7.876-0.952,12.731
						C392.272,320.037,395.351,339.637,391.788,352.434z"/>
					<path style="fill:#EA555D;" d="M391.14,286.83c0,0-0.329,4.961-0.992,13.998c-7.026,0.113-16.905,0.238-22.442,0.143
						c-0.813-7.22-1.512-13.654-1.512-13.654L391.14,286.83z"/>
					<path style="fill:#CD4353;" d="M359.39,414.475c0,0,10.772,2.673,12.473,2.268c5.589-7.046,17.251-23.164,17.251-23.164
						s1.377,2.43,1.701,5.021c0.324,2.592-2.835,24.865-2.835,24.865s-2.673,0.243-2.673,0c0-0.243-0.972-14.336-0.972-14.336
						s-8.099,13.364-9.719,14.093c-6.236,0-27.902-0.121-27.78,0c0.121,0.121-0.648-1.134,2.673-3.24
						C352.83,417.877,356.475,417.472,359.39,414.475z"/>
					<path style="fill:#EA555D;" d="M372.997,312.424c0.81-1.296,7.532-0.567,8.018,0.891c0.486,1.458-2.025,9.476-4.131,9.152
						C374.779,322.143,372.187,313.72,372.997,312.424z"/>
				</g>
			</g>
			<g>
				<path style="fill:#664341;" d="M398.833,263.179c-1.296,10.531-3.885,33.21-3.885,33.21s-4.174,0-27.377,0h-22.354
					c-2.984-30.827-1.86-52.499-0.549-64.634c0.824-7.638,1.725-11.501,1.725-11.501s28.223-1.703,41.668-0.242
					c2.669,2.457,4.87,6.73,6.587,11.743C398.25,242.272,399.711,256.05,398.833,263.179z"/>
				<path style="fill:#3F2626;" d="M394.648,231.756h-49.98c0.824-7.638,1.725-11.501,1.725-11.501s28.223-1.703,41.668-0.242
					C390.73,222.47,392.93,226.743,394.648,231.756z"/>
				<path style="fill:#3F2626;" d="M369.955,296.39h-4.584c0,0-0.842-48.273,0.616-48.436
					C367.445,247.791,369.362,287.144,369.955,296.39z"/>
			</g>
			<g>
				<g>
					<path style="fill:#DE6C83;" d="M351.588,196.298c0,0-5.389,18.273-7.003,27.479h48.082l-5.35-27.263
						c0,0,13.236-31.295,13.127-33.866c-0.07-1.585-9.073-5.284-15.99-7.894c-4.321-1.633-7.825-2.838-7.825-2.838l-12.259,4.031
						c0,0-1.596,0.948-3.661,2.16c-3.369,1.985-7.978,4.676-8.931,5.126c-0.286,2.19-1.095,9.033-2.351,11.501
						c-1.256,2.472-4.291,5.712-4.778,8.868c-0.487,3.16,0.568,6.159,3.402,8.952L351.588,196.298z"/>
					<path style="fill:#CD4353;" d="M383.81,196.32c0,0-4.251,0.853-3.281,1.095c0.974,0.242,2.915,0.242,2.915,0.242l1.509,26.121
						h7.715l-5.35-27.263c0,0,13.236-31.295,13.127-33.866c0,0-8.374,1.234-10.439,10.955c-0.97,6.316-0.242,9.355-0.242,9.355
						l-4.496,11.662c0,0-6.316-2.065-5.954-1.703C379.679,193.285,383.81,196.32,383.81,196.32z"/>
					<path style="fill:#CD4353;" d="M380.69,168.745c-4.05,1.86-12.552-2.431-12.552-2.431s-6.803,4.05-8.993,0.97
						c-1.344-1.889,0.187-6.162,1.563-9.176c2.065-1.212,3.661-2.16,3.661-2.16l12.259-4.031c0,0,3.504,1.205,7.825,2.838
						C385.479,160.335,384.319,167.076,380.69,168.745z"/>
					<polygon style="fill:#CD4353;" points="364.246,223.778 369.57,165.805 368.149,166.907 362.557,223.778 					"/>
				</g>
				<g>
					<path style="fill:#F39E23;" d="M366.726,166.233c-0.097,0.109-3.691,5.418-4.689,8.796s-3.221,11.779-3.221,11.779l3.2-1.561
						c0,0,2.378,2.618,2.44,2.463c0.062-0.155,0.801-11.132,1.237-13.402c0.436-2.27,2.095-7.476,2.095-7.476L366.726,166.233z"/>
					<path style="fill:#F39E23;" d="M369.182,166.52c0.093,0.113,3.485,5.553,4.356,8.966c0.87,3.413,2.776,11.891,2.776,11.891
						l-3.139-1.68c0,0-2.474,2.526-2.531,2.369c-0.056-0.157-0.382-11.154-0.733-13.439c-0.35-2.285-1.813-7.55-1.813-7.55
						L369.182,166.52z"/>
					<g>
						<path style="fill:#FFCD08;" d="M368.007,166.122c-0.029,0.051-0.612,1.035-1.458,2.449
							c-2.287,3.824-6.492,10.799-6.811,10.965c-0.441,0.224-1.797,0.569-2.303,0.377c-0.502-0.191-1.358-3.174-1.358-3.174
							s-0.274-0.692-1.661-2.477c-0.153-2.427,8.095-6.851,11.472-8.558c0.87-0.438,1.416-0.699,1.416-0.699
							S368.115,165.934,368.007,166.122z"/>
						<path style="fill:#F39E23;" d="M367.304,165.005c0,0-0.546,0.261-1.416,0.699c-0.144,0.505-0.234,1.213,0.029,1.93
							c0.06,0.162,0.135,0.304,0.216,0.435c-1.95,2.313-7.962,9.702-8.145,10.25c-0.216,0.647-0.143,1.038-0.013,1.014
							c0.13-0.024,1.184-0.128,1.574-0.498c0.322-0.306,5.153-7.855,6.812-10.454c0.061,0.069,0.124,0.133,0.189,0.191
							c0.846-1.414,1.429-2.398,1.458-2.449C368.115,165.934,367.304,165.005,367.304,165.005z"/>
						<path style="fill:#F39E23;" d="M356.732,173.325c0,0,7.395-5.816,7.749-5.491c-0.597,0.991-6.202,8.28-6.273,7.903
							c-0.071-0.378,0.175-2.153,0.175-2.153S356.863,173.711,356.732,173.325z"/>
					</g>
					<g>
						<path style="fill:#FFCD08;" d="M368.445,165.543c0.022,0.055,0.465,1.11,1.109,2.625c1.743,4.101,4.954,11.585,5.247,11.794
							c0.406,0.282,1.703,0.809,2.23,0.688c0.524-0.121,1.78-2.959,1.78-2.959s0.366-0.648,1.985-2.226
							c0.483-2.384-7.082-7.894-10.194-10.047c-0.802-0.553-1.307-0.886-1.307-0.886S368.364,165.341,368.445,165.543z"/>
						<path style="fill:#F39E23;" d="M369.294,164.532c0,0,0.505,0.333,1.307,0.886c0.073,0.52,0.066,1.234-0.293,1.908
							c-0.081,0.152-0.175,0.282-0.273,0.401c1.615,2.558,6.56,10.7,6.667,11.268c0.126,0.671,0,1.048-0.126,1.006
							c-0.126-0.042-1.155-0.289-1.491-0.708c-0.277-0.347-4.03-8.486-5.318-11.288c-0.07,0.06-0.141,0.115-0.213,0.163
							c-0.644-1.516-1.087-2.57-1.109-2.625C368.364,165.341,369.294,164.532,369.294,164.532z"/>
						<path style="fill:#F39E23;" d="M378.629,174.221c0,0-6.53-6.773-6.925-6.5c0.456,1.063,5.011,9.051,5.133,8.686
							c0.121-0.364,0.121-2.156,0.121-2.156S378.446,174.585,378.629,174.221z"/>
					</g>
					<g>
						<path style="fill:#FFCD08;" d="M369.394,167.204c-0.813,0.406-2.065,0.608-2.552-0.322c-0.487-0.934,0.527-4.009,0.93-4.13
							c0.106-0.033,0.231-0.011,0.359,0.04c0.362,0.132,0.736,0.483,0.736,0.483s0.849-0.483,1.216-0.282
							C370.445,163.194,370.203,166.801,369.394,167.204z"/>
						<path style="fill:#F39E23;" d="M368.299,166.721c-0.626-0.699-0.883-2.23-0.168-3.929c0.362,0.132,0.736,0.483,0.736,0.483
							S368.259,165.384,368.299,166.721z"/>
					</g>
				</g>
			</g>
			<g>
				<path style="fill:#CD4353;" d="M351.778,163.235c0,0-4.463,2.168-5.681,5.212c-1.217,3.044-9.588,23.589-11.566,27.089
					c-5.935,5.783-4.962,13.577-0.35,19.192c8.873,0,8.813-1.033,8.813-1.033s4.625-17.094,7.212-24.246
					C352.794,182.295,356.546,164.719,351.778,163.235z"/>
				<path style="fill:#F6AB9D;" d="M333.974,211.71c-1.433,2.227,0.936,8.423,2.819,9.395c1.883,0.972,11.85-0.425,10.817-1.762
					c-1.033-1.336-2.612-4.617-4.617-5.649c-2.005-1.033-3.523-2.369-5.103-3.098C336.979,210.175,334.742,210.423,333.974,211.71z"
					/>
			</g>
			<g>
				<g>
					<g>
						<path style="fill:#DE6C83;" d="M372.39,150.702c0,0-4.92,0.425-7.654,3.705c-2.733,3.28-4.616,8.443-3.402,10.205
							c1.215,1.762,7.046-0.547,7.046-0.547s8.99,3.827,10.995,1.944c2.005-1.883,4.313-9.233,3.037-12.331
							C381.137,150.581,374.455,150.399,372.39,150.702z"/>
						<path style="fill:#CD4353;" d="M365.711,156.366c0,0,0.483-3.821,6.638-4.55c6.155-0.729,9.157,0.873,8.345,4.081
							C375.832,159.186,367.415,159.457,365.711,156.366z"/>
						<g>
							<path style="fill:#F6AB9D;" d="M380.694,155.897c-3.241,3.856-9.44,8.726-12.387,7.312c-2.948-1.417-2.83-5.782-2.596-6.844
								c2.087-0.908,3.193-2.332,3.38-5.445c0.055-0.93,0.029-2.014-0.077-3.281c2.479-3.892,8.378-8.257,8.378-8.257
								s-0.333,3.764,0.026,7.77C377.735,150.687,378.592,154.403,380.694,155.897z"/>
							<path style="fill:#EA555D;" d="M377.417,147.153c-1.014,1.018-2.23,2.014-3.489,2.537c-1.842,0.765-3.636,1.091-4.837,1.23
								c0.055-0.93,0.029-2.014-0.077-3.281c2.479-3.892,8.378-8.257,8.378-8.257S377.058,143.147,377.417,147.153z"/>
						</g>
						<path style="fill:#F6AB9D;" d="M360.778,130.146c-1.053,1.224-0.744,2.568-0.618,4.192c0.358,4.279,1.329,7.17,2.818,11.339
							c1.035,2.898,2.749,2.749,4.192,2.68c1.443-0.069,6.283-0.494,9.278-2.543c2.612-1.787,3.436-4.742,3.986-6.804
							c0.037-0.139,0.073-0.284,0.108-0.433c0.525-2.262-0.115-4.574-1.433-6.487c-0.099-0.144-0.166-0.29-0.187-0.434
							c-0.137-0.962,0-1.581,0-1.581s-4.673-1.168-5.086-4.536c-2.405,2.405-6.185,2.474-9.278,2.955
							C362.702,128.786,361.763,129.002,360.778,130.146z"/>
						<path style="fill:#EA555D;" d="M367.027,131.426c0.32-0.139-0.158,7.004-0.158,7.004s1.558,0.079,1.697,0.399
							c0.139,0.32-2.473,0.109-2.473,0.109C365.908,138.572,366.707,131.565,367.027,131.426z"/>
						<path style="fill:#3E3F59;" d="M368.316,143.456c-2.519,0.381-3.438-2.084-3.438-2.084c0.393-0.046,0.775-0.099,1.139-0.157
							c3.492-0.534,5.804-1.491,5.804-1.491S371.933,142.905,368.316,143.456z"/>
						<g>
							<path style="fill:#002734;" d="M372.272,134.87c0.004,0.655-0.525,1.189-1.18,1.193c-0.655,0.004-1.189-0.524-1.193-1.18
								s0.525-1.189,1.18-1.193C371.735,133.687,372.269,134.215,372.272,134.87z"/>
							<path style="fill:#002734;" d="M369.633,132.164c0,0,0.868-0.509,1.853-0.4c0.986,0.109,2.226,0.698,2.226,0.698
								s-0.674-1.806-2.232-1.82C369.899,130.627,369.633,132.164,369.633,132.164z"/>
						</g>
						<g>
							<path style="fill:#002734;" d="M364.852,135.077c0.004,0.657-0.526,1.193-1.183,1.196c-0.657,0.004-1.193-0.526-1.196-1.183
								c-0.004-0.657,0.526-1.193,1.183-1.196C364.313,133.89,364.848,134.42,364.852,135.077z"/>
							<path style="fill:#002734;" d="M361.653,132.37c0,0,0.868-0.509,1.853-0.4c0.986,0.109,2.226,0.698,2.226,0.698
								s-0.674-1.806-2.232-1.82C361.919,130.833,361.653,132.37,361.653,132.37z"/>
						</g>
						<g>
							<path style="fill:#FFFFFF;" d="M371.821,139.724c-1.375,2.266-3.803,2.68-4.814,2.448c-0.534-0.12-0.833-0.568-0.99-0.957
								C369.509,140.681,371.821,139.724,371.821,139.724z"/>
							<path style="fill:#EA555D;" d="M364.878,141.371c0,0,1.34,0.183,3.093-0.092c1.752-0.275,3.849-1.558,3.849-1.558
								S365.955,140.947,364.878,141.371z"/>
						</g>
						<path style="fill:#EF9A8F;" d="M367.177,145.693c-0.371-0.51,0.916-1.379,1.918-1.579c1.41-0.282,2.426,0.677,2.2,1.072
							C371.069,145.581,367.629,146.314,367.177,145.693z"/>
						<g>
							<path style="fill:#F6AB9D;" d="M384.229,132.351c2.525-0.582,3.389,1.836,2.709,3.872c-0.681,2.035-3.216,6.853-7.182,4.343
								C379.33,140.296,381.704,132.933,384.229,132.351z"/>
							<path style="fill:#EA555D;" d="M385.838,136.353c0.029-0.065,0.638-2.055-0.461-2.679c-1.098-0.624-2.687,1.29-3.393,3.496
								c0.669-1.026,1.327-1.042,1.448-0.442c0.12,0.601-0.974,1.878-1.716,1.908c0.688,0.82,1.619,1.18,2.466,0.337
								s0.992-1.723,0.992-1.723s-1.391,1.821-1.976,1.623c-0.182-0.061-0.173-0.04-0.375-0.182c1.31-0.655,2.138-3.203,0.319-2.824
								c0.402-0.548,1.212-1.771,1.826-1.573S385.838,136.353,385.838,136.353z"/>
						</g>
					</g>
				</g>
			</g>
			<g>
				<path style="fill:#FFFFFF;" d="M376.802,215.335c0.242,0.088,0.886,1.644,0.886,1.644l-2.79,2.71h-37.732l1.318-1.904
					l-1.014-2.482l1.443-0.937l-1.586-2.182l1.567-2.252l-1.124-2.625l1.043-1.058l-0.626-1.373l0.655-1.128l-1.9-0.868l1.772-1.516
					l-1.128-1.567l1.014-0.941l-1.655-1.465l1.996-1.018l-1.179-0.912l1.095-1.077l-1.021-1.582l1.413-0.688l-1.271-1.26
					l1.091-1.201l-0.322-1.106l21.464-0.198l17.242-0.157l-0.762,1.278l1.131,1.648l-1.069,1.604l1.6,2.603l-1.238,1.878l1.157,1.64
					l-1.479,1.04l1.633,1.585l-1.49,1.695l0.937,2.27l-1.19,0.908l1.9,3.142l-1.845,1.512l1.201,2.966
					C377.94,213.962,376.56,215.251,376.802,215.335z"/>
				<path style="fill:#F9EFCD;" d="M376.802,215.335c0.242,0.088,0.886,1.644,0.886,1.644l-2.79,2.71h-15.642l2.321-1.743
					l-1.944-0.849l1.823-1.457l-1.823-1.336l1.336-1.703l-1.823-0.483l2.069-1.944l-2.31-1.457l2.673-2.673h-3.035l3.643-1.944
					l-2.065-0.85l2.186-1.582l-2.673-1.091l2.065-1.582l-1.216-1.578l2.069-1.944l-3.16-1.699l3.16-2.069l-2.19-1.091l1.703-0.974
					l-1.853-1.289l17.242-0.157l-0.762,1.278l1.131,1.648l-1.069,1.604l1.6,2.603l-1.238,1.878l1.157,1.64l-1.479,1.04l1.633,1.585
					l-1.49,1.695l0.937,2.27l-1.19,0.908l1.9,3.142l-1.845,1.512l1.201,2.966C377.94,213.962,376.56,215.251,376.802,215.335z"/>
				<path style="fill:#EFD7B2;" d="M341.288,192.069h33.167C374.455,192.069,347.727,196.686,341.288,192.069z"/>
				<path style="fill:#F9EFCD;" d="M341.167,197.415c0,0,3.969-1.863,12.392-0.405C350.238,198.549,341.167,197.415,341.167,197.415
					z"/>
				<path style="fill:#EFD7B2;" d="M340.6,213.451c0,0,3.969-1.863,12.392-0.405C349.671,214.585,340.6,213.451,340.6,213.451z"/>
				<path style="fill:#F9EFCD;" d="M348.456,206.405c0-0.891,26.404-1.134,27.618-0.162
					C374.779,207.377,348.456,207.296,348.456,206.405z"/>
			</g>
			<g>
				<g>
					<path style="fill:#DE6C83;" d="M419.057,205.865c-2.068,5.325-10.365,9.842-22.734,13.558
						c-0.016,0.008-0.032,0.008-0.048,0.016c-1.434,0.428-2.94,0.872-4.533,1.331c-1.894,0.166-3.677-3.899-3.827-4.865
						c-0.166-0.967,0.467-3.867,0.467-3.867l4.754-3.249l0.27-0.182l10.087-7.362c0,0-10.254-16.886-11.831-25.436
						c-1.442-7.773,5.984-13.16,8.781-13.16C404.089,162.649,422.004,198.282,419.057,205.865z"/>
					<path style="fill:#CD4353;" d="M396.322,219.423c-0.016,0.008-0.032,0.008-0.048,0.016c-1.434,0.428-2.94,0.872-4.533,1.331
						c-1.894,0.166-3.677-3.899-3.827-4.865c-0.166-0.967,0.467-3.867,0.467-3.867l4.754-3.249c0.935,1.086,2.29,3.146,2.861,6.339
						C396.275,216.665,396.346,218.124,396.322,219.423z"/>
				</g>
				<g>
					<path style="fill:#F6AB9D;" d="M391.363,219.044c0,0-18.316,2.495-19.167,2.267c-0.246-0.065-0.485-0.161-0.697-0.26
						c-0.52-0.246-0.892-0.533-0.892-0.533s-1.248,0.171-2.154,0.284c-0.366,0.044-0.656-0.13-0.875-0.355
						c-0.325-0.335-0.485-0.779-0.485-0.779s-1.022,0.284-1.644,0.284c-0.626,0-1.022-0.338-1.08-0.906
						c-0.038-0.394,7.322-2.814,8.411-3.62c-0.284,0-0.978-0.106-1.672-0.301c-0.547-0.154-1.097-0.359-1.446-0.609
						c-0.793-0.567-0.868-1.453-0.284-1.702c0.397-0.167,1.757,0.229,2.608-0.113c0.95-0.379,5.842-2.892,7.203-3.063
						c0.904-0.111,4.01,1.467,6.235,2.888c1.197,0.765,2.621,1.089,4.03,0.907c0.238-0.031,0.502-0.063,0.795-0.097
						C393.428,215.774,391.363,219.044,391.363,219.044z"/>
					<path style="fill:#EA555D;" d="M378.327,213.27l-5.548,2.154c-0.284,0-0.978-0.106-1.672-0.301
						C373.644,214.483,378.102,213.328,378.327,213.27z"/>
					<path style="fill:#EA555D;" d="M375.344,217.458c-0.209,0.082-5.863,2.273-7.767,2.988c-0.325-0.335-0.485-0.779-0.485-0.779
						L375.344,217.458z"/>
					<path style="fill:#EA555D;" d="M376.1,218.91l-4.601,2.14c-0.52-0.246-0.892-0.533-0.892-0.533L376.1,218.91z"/>
				</g>
			</g>
		</g>
		<g>
			<path style="fill:#A5C3FF;" d="M309.253,243.191h-2.377c-0.438,0-0.792-0.355-0.792-0.792c0-0.438,0.354-0.792,0.792-0.792h2.377
				c0.438,0,0.792,0.355,0.792,0.792C310.045,242.837,309.691,243.191,309.253,243.191z M304.498,243.191h-2.377
				c-0.438,0-0.792-0.355-0.792-0.792c0-0.438,0.354-0.792,0.792-0.792h2.377c0.438,0,0.792,0.355,0.792,0.792
				C305.291,242.837,304.936,243.191,304.498,243.191z M299.744,243.191h-2.377c-0.438,0-0.792-0.355-0.792-0.792
				c0-0.438,0.354-0.792,0.792-0.792h2.377c0.438,0,0.792,0.355,0.792,0.792C300.536,242.837,300.182,243.191,299.744,243.191z
				 M294.989,243.191h-2.377c-0.438,0-0.792-0.355-0.792-0.792c0-0.438,0.354-0.792,0.792-0.792h2.377
				c0.438,0,0.793,0.355,0.793,0.792C295.782,242.837,295.427,243.191,294.989,243.191z M290.235,243.191h-2.377
				c-0.438,0-0.792-0.355-0.792-0.792c0-0.438,0.354-0.792,0.792-0.792h2.377c0.438,0,0.792,0.355,0.792,0.792
				C291.027,242.837,290.673,243.191,290.235,243.191z M285.48,243.191h-2.377c-0.438,0-0.792-0.355-0.792-0.792
				c0-0.438,0.354-0.792,0.792-0.792h2.377c0.438,0,0.792,0.355,0.792,0.792C286.273,242.837,285.918,243.191,285.48,243.191z
				 M280.726,243.191h-2.377c-0.438,0-0.793-0.355-0.793-0.792c0-0.438,0.355-0.792,0.793-0.792h2.377
				c0.438,0,0.792,0.355,0.792,0.792C281.518,242.837,281.164,243.191,280.726,243.191z M275.971,243.191h-2.377
				c-0.438,0-0.792-0.355-0.792-0.792c0-0.438,0.354-0.792,0.792-0.792h2.377c0.438,0,0.792,0.355,0.792,0.792
				C276.764,242.837,276.409,243.191,275.971,243.191z M271.217,243.191h-2.377c-0.438,0-0.792-0.355-0.792-0.792
				c0-0.438,0.354-0.792,0.792-0.792h2.377c0.438,0,0.792,0.355,0.792,0.792C272.009,242.837,271.655,243.191,271.217,243.191z
				 M266.463,243.191h-2.377c-0.438,0-0.792-0.355-0.792-0.792c0-0.438,0.354-0.792,0.792-0.792h2.377
				c0.438,0,0.792,0.355,0.792,0.792C267.255,242.837,266.901,243.191,266.463,243.191z M261.708,243.191h-2.377
				c-0.438,0-0.792-0.355-0.792-0.792c0-0.438,0.354-0.792,0.792-0.792h2.377c0.438,0,0.792,0.355,0.792,0.792
				C262.501,242.837,262.146,243.191,261.708,243.191z M256.954,243.191h-2.377c-0.438,0-0.792-0.355-0.792-0.792
				c0-0.438,0.354-0.792,0.792-0.792h2.377c0.438,0,0.792,0.355,0.792,0.792C257.746,242.837,257.392,243.191,256.954,243.191z
				 M252.199,243.191h-2.377c-0.438,0-0.792-0.355-0.792-0.792c0-0.438,0.354-0.792,0.792-0.792h2.377
				c0.438,0,0.792,0.355,0.792,0.792C252.992,242.837,252.637,243.191,252.199,243.191z M247.445,243.191h-2.377
				c-0.438,0-0.793-0.355-0.793-0.792c0-0.438,0.355-0.792,0.793-0.792h2.377c0.438,0,0.792,0.355,0.792,0.792
				C248.237,242.837,247.883,243.191,247.445,243.191z M242.69,243.191h-2.377c-0.438,0-0.792-0.355-0.792-0.792
				c0-0.438,0.354-0.792,0.792-0.792h2.377c0.438,0,0.792,0.355,0.792,0.792C243.483,242.837,243.128,243.191,242.69,243.191z
				 M237.936,243.191h-2.377c-0.438,0-0.792-0.355-0.792-0.792c0-0.438,0.355-0.792,0.792-0.792h2.377
				c0.438,0,0.792,0.355,0.792,0.792C238.728,242.837,238.374,243.191,237.936,243.191z M233.181,243.191h-2.377
				c-0.438,0-0.792-0.355-0.792-0.792c0-0.438,0.354-0.792,0.792-0.792h2.377c0.438,0,0.792,0.355,0.792,0.792
				C233.974,242.837,233.619,243.191,233.181,243.191z M228.427,243.191h-2.377c-0.438,0-0.792-0.355-0.792-0.792
				c0-0.438,0.354-0.792,0.792-0.792h2.377c0.438,0,0.792,0.355,0.792,0.792C229.219,242.837,228.865,243.191,228.427,243.191z
				 M223.672,243.191h-2.377c-0.438,0-0.792-0.355-0.792-0.792c0-0.438,0.354-0.792,0.792-0.792h2.377
				c0.438,0,0.792,0.355,0.792,0.792C224.465,242.837,224.11,243.191,223.672,243.191z M218.918,243.191h-2.377
				c-0.438,0-0.792-0.355-0.792-0.792c0-0.438,0.354-0.792,0.792-0.792h2.377c0.438,0,0.792,0.355,0.792,0.792
				C219.71,242.837,219.356,243.191,218.918,243.191z M214.164,243.191h-2.377c-0.438,0-0.792-0.355-0.792-0.792
				c0-0.438,0.354-0.792,0.792-0.792h2.377c0.438,0,0.792,0.355,0.792,0.792C214.956,242.837,214.602,243.191,214.164,243.191z
				 M209.409,243.191h-2.377c-0.438,0-0.792-0.355-0.792-0.792c0-0.438,0.354-0.792,0.792-0.792h2.377
				c0.438,0,0.792,0.355,0.792,0.792C210.201,242.837,209.847,243.191,209.409,243.191z M204.655,243.191h-2.377
				c-0.438,0-0.792-0.355-0.792-0.792c0-0.438,0.354-0.792,0.792-0.792h2.377c0.438,0,0.792,0.355,0.792,0.792
				C205.447,242.837,205.093,243.191,204.655,243.191z M199.9,243.191h-2.377c-0.438,0-0.792-0.355-0.792-0.792
				c0-0.438,0.354-0.792,0.792-0.792h2.377c0.438,0,0.792,0.355,0.792,0.792C200.693,242.837,200.338,243.191,199.9,243.191z
				 M195.146,243.191h-2.377c-0.438,0-0.792-0.355-0.792-0.792c0-0.438,0.354-0.792,0.792-0.792h2.377
				c0.438,0,0.792,0.355,0.792,0.792C195.938,242.837,195.584,243.191,195.146,243.191z M190.391,243.191h-2.377
				c-0.438,0-0.792-0.355-0.792-0.792c0-0.438,0.354-0.792,0.792-0.792h2.377c0.438,0,0.792,0.355,0.792,0.792
				C191.184,242.837,190.829,243.191,190.391,243.191z M185.637,243.191h-2.377c-0.438,0-0.792-0.355-0.792-0.792
				c0-0.438,0.354-0.792,0.792-0.792h2.377c0.438,0,0.792,0.355,0.792,0.792C186.429,242.837,186.075,243.191,185.637,243.191z
				 M180.882,243.191h-2.377c-0.438,0-0.792-0.355-0.792-0.792c0-0.438,0.354-0.792,0.792-0.792h2.377
				c0.438,0,0.792,0.355,0.792,0.792C181.675,242.837,181.32,243.191,180.882,243.191z M176.128,243.191h-2.377
				c-0.438,0-0.792-0.355-0.792-0.792c0-0.438,0.354-0.792,0.792-0.792h2.377c0.438,0,0.792,0.355,0.792,0.792
				C176.92,242.837,176.566,243.191,176.128,243.191z M171.373,243.191h-2.377c-0.438,0-0.792-0.355-0.792-0.792
				c0-0.438,0.354-0.792,0.792-0.792h2.377c0.438,0,0.792,0.355,0.792,0.792C172.166,242.837,171.811,243.191,171.373,243.191z
				 M166.619,243.191h-2.377c-0.438,0-0.792-0.355-0.792-0.792c0-0.438,0.354-0.792,0.792-0.792h2.377
				c0.438,0,0.792,0.355,0.792,0.792C167.411,242.837,167.057,243.191,166.619,243.191z M161.865,243.191h-2.377
				c-0.438,0-0.792-0.355-0.792-0.792c0-0.438,0.355-0.792,0.792-0.792h2.377c0.438,0,0.792,0.355,0.792,0.792
				C162.657,242.837,162.303,243.191,161.865,243.191z M157.11,243.191h-2.377c-0.438,0-0.792-0.355-0.792-0.792
				c0-0.438,0.354-0.792,0.792-0.792h2.377c0.438,0,0.792,0.355,0.792,0.792C157.902,242.837,157.548,243.191,157.11,243.191z
				 M152.356,243.191h-2.377c-0.438,0-0.792-0.355-0.792-0.792c0-0.438,0.354-0.792,0.792-0.792h2.377
				c0.438,0,0.792,0.355,0.792,0.792C153.148,242.837,152.794,243.191,152.356,243.191z M147.631,242.928
				c-0.084,0-0.169-0.014-0.252-0.042c-0.866-0.291-1.664-0.791-2.308-1.445c-0.307-0.312-0.303-0.814,0.009-1.121
				c0.311-0.308,0.813-0.303,1.12,0.009c0.47,0.478,1.052,0.843,1.683,1.055c0.415,0.139,0.638,0.589,0.499,1.004
				C148.271,242.719,147.962,242.928,147.631,242.928z M311.599,242.911c-0.328,0-0.635-0.205-0.748-0.532
				c-0.144-0.413,0.074-0.865,0.488-1.009c0.629-0.219,1.207-0.59,1.671-1.073c0.304-0.315,0.806-0.324,1.121-0.022
				c0.316,0.304,0.325,0.805,0.022,1.12c-0.637,0.661-1.429,1.17-2.292,1.471C311.774,242.896,311.686,242.911,311.599,242.911z
				 M144.418,239.663c-0.336,0-0.648-0.215-0.755-0.553c-0.182-0.572-0.274-1.17-0.274-1.776v-0.817
				c0-0.438,0.354-0.792,0.792-0.792c0.438,0,0.793,0.355,0.793,0.792v0.817c0,0.443,0.067,0.879,0.2,1.296
				c0.132,0.417-0.098,0.863-0.515,0.995C144.578,239.65,144.497,239.663,144.418,239.663z M314.776,239.61
				c-0.077,0-0.154-0.011-0.231-0.035c-0.419-0.128-0.654-0.571-0.526-0.989c0.123-0.404,0.186-0.825,0.186-1.252v-0.872
				c0-0.438,0.354-0.792,0.792-0.792c0.438,0,0.792,0.355,0.792,0.792v0.872c0,0.583-0.086,1.16-0.255,1.714
				C315.429,239.39,315.115,239.61,314.776,239.61z M144.181,234.932c-0.438,0-0.792-0.355-0.792-0.792v-2.377
				c0-0.438,0.354-0.792,0.792-0.792c0.438,0,0.793,0.355,0.793,0.792v2.377C144.973,234.577,144.619,234.932,144.181,234.932z
				 M314.996,234.877c-0.438,0-0.792-0.355-0.792-0.792v-2.377c0-0.438,0.354-0.792,0.792-0.792c0.438,0,0.792,0.355,0.792,0.792
				v2.377C315.788,234.522,315.434,234.877,314.996,234.877z M314.996,230.122c-0.438,0-0.792-0.355-0.792-0.792v-2.377
				c0-0.438,0.354-0.792,0.792-0.792c0.438,0,0.792,0.355,0.792,0.792v2.377C315.788,229.768,315.434,230.122,314.996,230.122z
				 M314.996,225.368c-0.438,0-0.792-0.355-0.792-0.792v-2.377c0-0.438,0.354-0.792,0.792-0.792c0.438,0,0.792,0.355,0.792,0.792
				v2.377C315.788,225.013,315.434,225.368,314.996,225.368z M314.996,220.613c-0.438,0-0.792-0.355-0.792-0.792v-2.377
				c0-0.438,0.354-0.792,0.792-0.792c0.438,0,0.792,0.355,0.792,0.792v2.377C315.788,220.259,315.434,220.613,314.996,220.613z
				 M314.996,215.859c-0.438,0-0.792-0.355-0.792-0.792v-2.377c0-0.438,0.354-0.792,0.792-0.792c0.438,0,0.792,0.355,0.792,0.792
				v2.377C315.788,215.504,315.434,215.859,314.996,215.859z M314.996,211.105c-0.438,0-0.792-0.355-0.792-0.792v-1.059
				c0-0.438,0.354-0.792,0.792-0.792c0.438,0,0.792,0.355,0.792,0.792v1.059C315.788,210.75,315.434,211.105,314.996,211.105z"/>
			<g>
				<g>
					<g>
						<path style="fill:#6E91F4;" d="M178.386,164.37H95.431c-3.439,0-6.227,2.788-6.227,6.227v48.614
							c0,3.439,2.788,6.227,6.227,6.227h77.6l11.582,11.582c0,0,0-17.251,0-17.809v-48.614
							C184.613,167.158,181.825,164.37,178.386,164.37z"/>
						<rect x="94.144" y="168.986" style="fill:#3E3F59;" width="85.528" height="51.754"/>
						<path style="fill:#EB008B;" d="M172.039,173.967h-71.071c-0.57,0-1.033-0.462-1.033-1.033v0c0-0.57,0.462-1.033,1.033-1.033
							h71.071c0.57,0,1.033,0.462,1.033,1.033v0C173.072,173.505,172.609,173.967,172.039,173.967z"/>
						<path style="fill:#EB008B;" d="M172.039,201.059h-71.071c-0.57,0-1.033-0.462-1.033-1.033l0,0c0-0.57,0.462-1.033,1.033-1.033
							h71.071c0.57,0,1.033,0.462,1.033,1.033l0,0C173.072,200.597,172.609,201.059,172.039,201.059z"/>
						<path style="fill:#8BC53F;" d="M128.667,179.556h-27.699c-0.57,0-1.033-0.462-1.033-1.033v0c0-0.57,0.462-1.033,1.033-1.033
							h27.699c0.57,0,1.033,0.462,1.033,1.033v0C129.7,179.094,129.238,179.556,128.667,179.556z"/>
						<path style="fill:#8BC53F;" d="M128.667,207.498h-27.699c-0.57,0-1.033-0.462-1.033-1.033l0,0c0-0.57,0.462-1.033,1.033-1.033
							h27.699c0.57,0,1.033,0.462,1.033,1.033l0,0C129.7,207.036,129.238,207.498,128.667,207.498z"/>
						<path style="fill:#8BC53F;" d="M128.667,213.33h-27.699c-0.57,0-1.033-0.462-1.033-1.033v0c0-0.57,0.462-1.033,1.033-1.033
							h27.699c0.57,0,1.033,0.462,1.033,1.033v0C129.7,212.868,129.238,213.33,128.667,213.33z"/>
						<path style="fill:#8BC53F;" d="M135.835,186.724h-27.7c-0.57,0-1.033-0.462-1.033-1.033l0,0c0-0.57,0.462-1.033,1.033-1.033
							h27.7c0.57,0,1.033,0.462,1.033,1.033l0,0C136.868,186.262,136.406,186.724,135.835,186.724z"/>
						<path style="fill:#8BC53F;" d="M135.835,194.499h-27.7c-0.57,0-1.033-0.462-1.033-1.033l0,0c0-0.57,0.462-1.033,1.033-1.033
							h27.7c0.57,0,1.033,0.462,1.033,1.033l0,0C136.868,194.037,136.406,194.499,135.835,194.499z"/>
						<path style="fill:#8BC53F;" d="M168.516,186.724h-27.699c-0.57,0-1.033-0.462-1.033-1.033l0,0c0-0.57,0.462-1.033,1.033-1.033
							h27.699c0.57,0,1.033,0.462,1.033,1.033l0,0C169.548,186.262,169.086,186.724,168.516,186.724z"/>
					</g>
				</g>
			</g>
			<g>
				<path style="fill:#002734;" d="M316.356,202.476h-45.031c-2.488,0-4.505-2.017-4.505-4.505l0,0c0-2.488,2.017-4.505,4.505-4.505
					h45.031c2.488,0,4.505,2.017,4.505,4.505l0,0C320.861,200.459,318.844,202.476,316.356,202.476z"/>
				<path style="fill:#3E3F59;" d="M316.122,200.482h-44.359c-1.386,0-2.51-1.124-2.51-2.51l0,0c0-1.386,1.124-2.51,2.51-2.51
					h44.359c1.386,0,2.51,1.124,2.51,2.51l0,0C318.632,199.358,317.508,200.482,316.122,200.482z"/>
				<path style="fill:#8BC53F;" d="M294.075,197.973c0,0.697-0.285,1.323-0.737,1.775c-0.452,0.46-1.086,0.737-1.775,0.737h-19.802
					c-0.253,0-0.499-0.04-0.729-0.103c-1.03-0.317-1.783-1.276-1.783-2.409c0-0.697,0.277-1.323,0.737-1.775
					c0.452-0.46,1.078-0.737,1.775-0.737h19.802c0.032,0,0.071,0,0.103,0.008C293.005,195.517,294.075,196.618,294.075,197.973z"/>
				<path style="fill:#7FAF33;" d="M275.065,195.461l-1.292,5.024h-2.013c-0.253,0-0.499-0.04-0.729-0.103l1.26-4.921H275.065z"/>
				<polygon style="fill:#7FAF33;" points="280.596,195.461 279.304,200.485 276.539,200.485 277.831,195.461 				"/>
				<polygon style="fill:#7FAF33;" points="286.127,195.461 284.835,200.485 282.07,200.485 283.362,195.461 				"/>
				<path style="fill:#7FAF33;" d="M291.666,195.469l-1.292,5.016h-2.766l1.292-5.024h2.662
					C291.595,195.461,291.634,195.461,291.666,195.469z"/>
			</g>
			<g>
				<rect x="278.488" y="204.987" style="fill:#FFCD08;" width="27.535" height="17.817"/>
				<polygon style="fill:#F9A11B;" points="306.023,204.987 306.023,206.034 292.417,215.455 278.488,206.331 278.488,204.987 
					292.255,213.896 				"/>
				<polygon style="fill:#F9A11B;" points="289.26,212.599 280.231,222.804 278.488,222.804 288.286,211.929 				"/>
				<polygon style="fill:#F9A11B;" points="306.023,222.804 304.28,222.804 295.25,212.599 296.224,211.929 				"/>
			</g>
			<g>
				<path style="fill:#A5C3FF;" d="M191.335,214.688c-0.437,0-0.792-0.354-0.792-0.791c-0.001-0.438,0.354-0.793,0.792-0.794
					l2.378-0.002h0.001c0.437,0,0.792,0.354,0.792,0.792c0,0.438-0.354,0.793-0.792,0.793L191.335,214.688L191.335,214.688z
					 M196.091,214.684c-0.437,0-0.792-0.354-0.792-0.792c0-0.438,0.354-0.792,0.792-0.793l2.337,0c0.438,0,0.813,0.355,0.813,0.792
					c0,0.438-0.334,0.792-0.772,0.792L196.091,214.684C196.091,214.684,196.091,214.684,196.091,214.684z M200.99,214.684h-0.144
					c-0.438,0-0.792-0.355-0.792-0.792c0-0.438,0.355-0.792,0.792-0.792h0.144c0.684,0,1.363-0.083,2.019-0.246
					c0.422-0.107,0.854,0.153,0.96,0.577c0.105,0.425-0.153,0.855-0.578,0.96C202.611,214.586,201.803,214.684,200.99,214.684z
					 M205.407,213.547c-0.279,0-0.549-0.147-0.694-0.409c-0.212-0.383-0.074-0.865,0.31-1.077c0.632-0.35,1.219-0.783,1.741-1.285
					c0.316-0.304,0.817-0.294,1.12,0.022c0.303,0.315,0.293,0.817-0.022,1.12c-0.622,0.598-1.319,1.113-2.072,1.53
					C205.668,213.515,205.537,213.547,205.407,213.547z M208.794,210.29c-0.14,0-0.282-0.037-0.411-0.115
					c-0.374-0.227-0.493-0.715-0.265-1.089c0.376-0.619,0.67-1.285,0.872-1.979c0.122-0.42,0.556-0.664,0.983-0.539
					c0.419,0.122,0.661,0.562,0.539,0.982c-0.241,0.827-0.59,1.62-1.039,2.359C209.322,210.155,209.062,210.29,208.794,210.29z
					 M210.112,205.779c-0.005,0-0.011,0-0.017,0c-0.437-0.01-0.785-0.372-0.775-0.809l0.002-2.36c0-0.438,0.354-0.792,0.792-0.792
					s0.792,0.355,0.792,0.792l-0.002,2.394C210.895,205.436,210.542,205.779,210.112,205.779z M210.114,201.025
					c-0.438,0-0.792-0.355-0.792-0.792v-2.377c0-0.438,0.354-0.792,0.792-0.792s0.792,0.355,0.792,0.792v2.377
					C210.906,200.67,210.552,201.025,210.114,201.025z M210.114,196.27c-0.438,0-0.792-0.355-0.792-0.792v-2.377
					c0-0.438,0.354-0.792,0.792-0.792s0.792,0.355,0.792,0.792v2.377C210.906,195.916,210.552,196.27,210.114,196.27z
					 M210.114,191.516c-0.438,0-0.792-0.355-0.792-0.792v-2.377c0-0.438,0.354-0.792,0.792-0.792s0.792,0.355,0.792,0.792v2.377
					C210.906,191.161,210.552,191.516,210.114,191.516z M210.114,186.762c-0.438,0-0.792-0.355-0.792-0.792v-2.377
					c0-0.438,0.354-0.792,0.792-0.792s0.792,0.355,0.792,0.792v2.377C210.906,186.407,210.552,186.762,210.114,186.762z
					 M210.114,182.007c-0.438,0-0.792-0.355-0.792-0.792v-2.377c0-0.438,0.354-0.792,0.792-0.792s0.792,0.355,0.792,0.792v2.377
					C210.906,181.652,210.552,182.007,210.114,182.007z M210.114,177.253c-0.438,0-0.792-0.355-0.792-0.792v-2.377
					c0-0.438,0.354-0.792,0.792-0.792s0.792,0.355,0.792,0.792v2.377C210.906,176.898,210.552,177.253,210.114,177.253z
					 M210.114,172.498c-0.438,0-0.792-0.355-0.792-0.792v-2.377c0-0.438,0.354-0.792,0.792-0.792s0.792,0.355,0.792,0.792v2.377
					C210.906,172.143,210.552,172.498,210.114,172.498z M210.114,167.744c-0.438,0-0.792-0.355-0.792-0.792v-2.377
					c0-0.438,0.354-0.792,0.792-0.792s0.792,0.355,0.792,0.792v2.377C210.906,167.389,210.552,167.744,210.114,167.744z
					 M210.114,162.989c-0.438,0-0.792-0.355-0.792-0.792v-2.377c0-0.438,0.354-0.792,0.792-0.792s0.792,0.355,0.792,0.792v2.377
					C210.906,162.635,210.552,162.989,210.114,162.989z M210.114,158.235c-0.438,0-0.792-0.355-0.792-0.792v-2.377
					c0-0.438,0.354-0.792,0.792-0.792s0.792,0.355,0.792,0.792v2.377C210.906,157.88,210.552,158.235,210.114,158.235z
					 M210.114,153.48c-0.438,0-0.792-0.355-0.792-0.792v-1.956c0-0.152,0.003-0.305,0.01-0.456c0.019-0.425,0.37-0.757,0.791-0.757
					c0.012,0,0.024,0,0.036,0.001c0.437,0.019,0.776,0.39,0.757,0.827c-0.005,0.128-0.008,0.256-0.008,0.385v1.956
					C210.906,153.126,210.552,153.48,210.114,153.48z M210.537,148.77c-0.079,0-0.159-0.012-0.239-0.037
					c-0.417-0.132-0.648-0.577-0.516-0.994c0.259-0.821,0.627-1.607,1.092-2.335c0.234-0.369,0.724-0.477,1.094-0.241
					c0.369,0.236,0.477,0.725,0.242,1.094c-0.391,0.612-0.699,1.271-0.917,1.96C211.186,148.554,210.874,148.77,210.537,148.77z
					 M213.064,144.807c-0.214,0-0.427-0.086-0.584-0.256c-0.296-0.322-0.275-0.823,0.047-1.12c0.635-0.584,1.344-1.083,2.105-1.483
					c0.389-0.203,0.867-0.053,1.07,0.333c0.204,0.388,0.054,0.867-0.334,1.07c-0.639,0.335-1.234,0.755-1.769,1.246
					C213.448,144.738,213.256,144.807,213.064,144.807z M217.225,142.625c-0.362,0-0.689-0.25-0.772-0.619
					c-0.096-0.427,0.173-0.851,0.599-0.947c0.712-0.16,1.446-0.241,2.183-0.242h0.351c0.438,0,0.792,0.355,0.792,0.792
					c0,0.438-0.354,0.792-0.792,0.792h-0.351c-0.62,0-1.238,0.069-1.835,0.203C217.341,142.619,217.282,142.625,217.225,142.625z
					 M227.464,142.402h-0.747c-0.438,0-0.792-0.355-0.792-0.792c0-0.438,0.354-0.792,0.792-0.792h0.747
					c0.438,0,0.792,0.355,0.792,0.792C228.257,142.048,227.902,142.402,227.464,142.402z M224.34,142.402h-2.377
					c-0.438,0-0.792-0.355-0.792-0.792c0-0.438,0.354-0.792,0.792-0.792h2.377c0.438,0,0.792,0.355,0.792,0.792
					C225.133,142.048,224.778,142.402,224.34,142.402z"/>
				<path style="fill:#6E91F4;" d="M193.37,214c0,1.41-1.143,2.554-2.554,2.554s-2.554-1.143-2.554-2.554
					c0-1.41,1.143-2.554,2.554-2.554S193.37,212.589,193.37,214z"/>
				<path style="fill:#6E91F4;" d="M230.018,141.61c0,1.41-1.143,2.554-2.554,2.554s-2.554-1.143-2.554-2.554
					c0-1.41,1.143-2.554,2.554-2.554S230.018,140.2,230.018,141.61z"/>
			</g>
			<g>
				<path style="fill:#6E91F4;" d="M322.115,118.01H239.16c-3.439,0-6.227,2.788-6.227,6.227v48.614
					c0,3.439,2.788,6.227,6.227,6.227h77.601l11.582,11.582c0,0,0-17.251,0-17.809v-48.614
					C328.342,120.798,325.554,118.01,322.115,118.01z"/>
				<rect x="237.873" y="122.626" style="fill:#3E3F59;" width="85.528" height="51.754"/>
				<path style="fill:#EB008B;" d="M315.768,127.607h-71.071c-0.57,0-1.033-0.462-1.033-1.033l0,0c0-0.57,0.462-1.033,1.033-1.033
					h71.071c0.57,0,1.033,0.462,1.033,1.033l0,0C316.8,127.145,316.338,127.607,315.768,127.607z"/>
				<path style="fill:#EB008B;" d="M276.828,154.699h-32.131c-0.57,0-1.033-0.462-1.033-1.033l0,0c0-0.57,0.462-1.033,1.033-1.033
					h32.131c0.57,0,1.033,0.462,1.033,1.033l0,0C277.861,154.237,277.398,154.699,276.828,154.699z"/>
				<path style="fill:#8BC53F;" d="M272.396,133.196h-27.7c-0.57,0-1.033-0.462-1.033-1.033l0,0c0-0.57,0.462-1.033,1.033-1.033
					h27.7c0.57,0,1.033,0.462,1.033,1.033l0,0C273.429,132.733,272.967,133.196,272.396,133.196z"/>
				<path style="fill:#8BC53F;" d="M272.396,161.138h-27.7c-0.57,0-1.033-0.462-1.033-1.033l0,0c0-0.57,0.462-1.033,1.033-1.033
					h27.7c0.57,0,1.033,0.462,1.033,1.033l0,0C273.429,160.676,272.967,161.138,272.396,161.138z"/>
				<path style="fill:#8BC53F;" d="M272.396,166.97h-27.7c-0.57,0-1.033-0.462-1.033-1.033l0,0c0-0.57,0.462-1.033,1.033-1.033h27.7
					c0.57,0,1.033,0.462,1.033,1.033l0,0C273.429,166.507,272.967,166.97,272.396,166.97z"/>
				<path style="fill:#8BC53F;" d="M279.564,140.363h-27.699c-0.57,0-1.033-0.462-1.033-1.033l0,0c0-0.57,0.462-1.033,1.033-1.033
					h27.699c0.57,0,1.033,0.462,1.033,1.033l0,0C280.597,139.901,280.134,140.363,279.564,140.363z"/>
				<path style="fill:#8BC53F;" d="M279.564,148.139h-27.699c-0.57,0-1.033-0.462-1.033-1.033l0,0c0-0.57,0.462-1.033,1.033-1.033
					h27.699c0.57,0,1.033,0.462,1.033,1.033l0,0C280.597,147.676,280.134,148.139,279.564,148.139z"/>
			</g>
			<g>
				<path style="fill:#6E91F4;" d="M200.647,114.207h-38.872c-1.612,0-2.918,1.306-2.918,2.918v22.78
					c0,1.612,1.306,2.918,2.918,2.918h36.363l5.427,5.427c0,0,0-8.084,0-8.345v-22.78
					C203.565,115.514,202.259,114.207,200.647,114.207z"/>
				<g>
					<path style="fill:#FFFFFF;" d="M166.116,128.165l6.672,3.167c0.376,0.178,0.639,0.354,0.789,0.528
						c0.15,0.174,0.225,0.384,0.225,0.63c0,0.287-0.089,0.519-0.266,0.697c-0.178,0.178-0.413,0.266-0.707,0.266
						c-0.123,0-0.258-0.02-0.405-0.061c-0.147-0.041-0.326-0.109-0.538-0.205l-8.076-3.72c-0.041-0.02-0.106-0.048-0.195-0.082
						c-0.724-0.335-1.086-0.728-1.086-1.179c0-0.458,0.379-0.861,1.138-1.209l0.082-0.051l8.137-3.792
						c0.273-0.123,0.475-0.203,0.605-0.241c0.13-0.037,0.242-0.056,0.338-0.056c0.294,0,0.529,0.089,0.707,0.266
						c0.178,0.178,0.266,0.41,0.266,0.697c0,0.246-0.077,0.46-0.23,0.64c-0.154,0.181-0.415,0.36-0.784,0.538L166.116,128.165z"/>
					<path style="fill:#FFFFFF;" d="M185.158,121.893l-6.005,12.862c-0.184,0.403-0.355,0.683-0.512,0.84
						c-0.157,0.157-0.342,0.236-0.553,0.236c-0.314,0-0.593-0.099-0.835-0.297c-0.242-0.198-0.364-0.444-0.364-0.738
						c0-0.198,0.092-0.506,0.277-0.922l0.02-0.041l5.995-12.841c0.191-0.417,0.366-0.704,0.523-0.861
						c0.157-0.157,0.342-0.236,0.553-0.236c0.308,0,0.584,0.099,0.83,0.297c0.246,0.198,0.369,0.444,0.369,0.738
						c0,0.123-0.021,0.253-0.062,0.389C185.352,121.456,185.274,121.647,185.158,121.893z"/>
					<path style="fill:#FFFFFF;" d="M195.949,128.165l-6.682-3.167c-0.362-0.178-0.62-0.357-0.774-0.538
						c-0.154-0.181-0.231-0.395-0.231-0.64c0-0.287,0.085-0.519,0.256-0.697c0.171-0.178,0.4-0.266,0.687-0.266
						c0.109,0,0.234,0.021,0.374,0.062s0.34,0.119,0.6,0.236l8.117,3.792l0.082,0.051c0.758,0.349,1.138,0.752,1.138,1.209
						c0,0.458-0.366,0.851-1.097,1.179c-0.068,0.041-0.123,0.068-0.164,0.082l-8.106,3.72c-0.205,0.096-0.381,0.164-0.528,0.205
						c-0.147,0.041-0.285,0.061-0.415,0.061c-0.287,0-0.516-0.087-0.687-0.261c-0.171-0.174-0.256-0.408-0.256-0.702
						c0-0.246,0.073-0.456,0.22-0.63c0.147-0.174,0.408-0.35,0.784-0.528L195.949,128.165z"/>
				</g>
			</g>
		</g>
		<g>
			<path style="fill:#2E2D44;" d="M278.029,327.408h-47.582c-3.299,0-5.974-2.675-5.974-5.974v-81.599
				c0-3.299,2.675-5.974,5.974-5.974h47.582c3.299,0,5.974,2.674,5.974,5.974v81.599
				C284.003,324.733,281.329,327.408,278.029,327.408z"/>
			<g>
				<path style="fill:#242435;" d="M202.602,422.775h-17.967l6.567-5.746l41.497-2.28l43.868,2.827l4.378,4.925
					C280.944,422.501,203.377,423.55,202.602,422.775z"/>
				<rect x="231.231" y="349.108" style="fill:#BDD4FF;" width="6.947" height="45.326"/>
				<rect x="234.926" y="349.108" style="fill:#D3E7FF;" width="3.253" height="45.326"/>
				<path style="fill:#2E2D44;" d="M240.484,422.714h-11.559v-37.947c0-1.272,1.031-2.303,2.304-2.303h6.951
					c1.272,0,2.304,1.031,2.304,2.303V422.714z"/>
				<g>
					<path style="fill:#3E3F59;" d="M203.105,357.025c0.757,0,59.817,0,63.603,0s6.815-1.101,7.319-7.707
						c-13.377,0-79.756,0-79.756,0S194.271,357.025,203.105,357.025z"/>
					<path style="fill:#242435;" d="M277.524,346.165v4.651h-86.46v-4.651C191.065,346.165,277.251,346.165,277.524,346.165z"/>
					<path style="fill:#2E2D44;" d="M200.641,338.504c0.821,0,64.845,0,68.949,0s7.387,1.094,7.935,7.661c-14.501,0-86.46,0-86.46,0
						S191.065,338.504,200.641,338.504z"/>
				</g>
			</g>
			<g>
				<g>
					<g>
						<path style="fill:#F39E23;" d="M214.232,235.672c-1.563,1.34-3.974,4.917-8.273,18.385c-4.3,13.469-6.111,19.251-6.111,19.251
							l-20.81,14.306c0,0,3.27,5.49,4.41,6.617c12.311-0.068,24.476-2.928,27.223-4.077c2.909-1.312,16.824-28.638,17.243-40.789
							C228.333,237.214,221.662,229.304,214.232,235.672z"/>
					</g>
					<g>
						<g>
							<path style="fill:#EA555D;" d="M178.825,294.671l7.748-0.24c0,0,0.371-4.28-3.088-5.331s-5.426,0.335-5.721,0.49
								C177.469,289.744,178.825,294.671,178.825,294.671z"/>
							<path style="fill:#F6AB9D;" d="M189.805,296.514l-2.102,0.012c-1.545,0.008-2.837-1.167-2.97-2.708l-0.004-0.07
								c-0.09-0.97-0.704-2.911-1.069-3.315c-0.688-0.036-3.649-0.375-3.649-0.375l-0.383,5.546c0.003,0.443-0.351,0.8-0.794,0.803
								l-0.959-0.009l-0.952-0.009l-1.714-0.016l-0.82-0.007l-1.769-0.016l-1.146-0.008l-0.472-0.005
								c-0.132,0.001-0.264-0.031-0.381-0.097c-0.485-0.257-1.389-0.845-1.391-1.23c-0.002-0.447,0.59-2.555,0.874-2.919
								c0.178-0.235,0.8-0.389,1.228-0.468l0.04-0.008l0.117-0.019l0.143-0.023l0.07-0.011l0.059-0.008l0.201-0.69
								c0.197-0.177,0.753-0.312,1.217-0.395c0.391-0.068,0.721-0.103,0.721-0.103s0.079-0.93,0.319-1.338
								c0.131-0.224,0.884-0.316,1.532-0.349c0.524-0.032,0.978-0.027,0.978-0.027s0.031-1.622,0.352-1.946
								c0.324-0.328,9.56,0.676,10.791,3.463c0.204,0.464,0.049,2.347-0.307,3.403c0.287,0.888,1.912,1.406,2.277,1.851
								C190.208,295.864,189.805,296.514,189.805,296.514z"/>
							<path style="fill:#EA555D;" d="M177.875,296.396l-0.952-0.009c-0.333-1.902-0.923-5.396-1.174-7.708
								c0.524-0.032,0.978-0.027,0.978-0.027S177.351,293.697,177.875,296.396z"/>
							<path style="fill:#EA555D;" d="M175.209,296.371l-0.82-0.007c-0.295-1.097-1.111-4.256-1.211-5.896
								c0.391-0.068,0.721-0.103,0.721-0.103S174.608,294.298,175.209,296.371z"/>
							<path style="fill:#EA555D;" d="M172.62,296.348l-1.146-0.008c-0.244-0.394-0.54-0.971-0.576-1.542
								c-0.048-0.717,0.255-2.319,0.433-3.177l0.04-0.008l0.117-0.019l0.143-0.023l0.07-0.011l0.059-0.008
								c0,0-0.166,2.48-0.042,2.966C171.799,294.848,172.299,295.775,172.62,296.348z"/>
						</g>
					</g>
				</g>
				<g>
					<path style="fill:#2E2D44;" d="M244.317,325.222c-2.673,11.907-13.365,12.878-13.365,12.878l-41.397,1.249
						c0,0-2.299,57.325-2.962,67.651c-0.04,0.615-0.077,1.062-0.103,1.322c-0.487,4.617-2.673,13.848-2.673,13.848
						s-4.372-2.413-10.08-5.478c-0.769-0.414-1.567-0.839-2.376-1.274c-6.393-3.413-13.826-7.294-18.645-9.527
						c0.059-1.077,0.297-6.745,0.677-14.734c1.164-24.423,3.68-70.536,6.609-73.465c3.889-3.889,50.57-6.561,50.57-6.561
						l0.945-8.019h34.503C246.02,303.109,246.99,313.314,244.317,325.222z"/>
					<path style="fill:#242435;" d="M229.253,329.594c0,0-31.017-1.334-44.238-0.174c-1.107,0.097-2.022,0.89-2.275,1.972
						c-2.441,10.425-5.27,56.732-5.605,63.806c-0.271,5.672-2.343,16.345-3.398,21.493c-0.769-0.414-1.567-0.839-2.376-1.274
						c3.501-13.306,6.3-86.308,9.822-88.17c2.9-1.534,43.695-1.296,43.695-1.296L229.253,329.594z"/>
					<path style="fill:#242435;" d="M183.816,422.169h-53.455c0,0,0.162-5.265,1.458-6.884c1.296-1.62,20.248-12.959,22.354-12.797
						C156.279,402.65,175.231,409.292,183.816,422.169z"/>
				</g>
				<g>
					<path style="fill:#3E3F59;" d="M270.16,305.259c0,0,0,12.079-0.718,22.01c-0.505,6.942-6.287,12.317-13.244,12.317h-10.805
						c0,0,2.885,45.334,2.991,69.328c0.033,7.444-0.201,12.837-0.871,14.177c-2.746-0.89-5.284-1.743-7.623-2.556
						c-1.164-0.403-2.281-0.798-3.347-1.179c-17.264-6.192-22.292-9.71-22.292-9.71s-0.165-6.184-0.337-15.214
						c-0.436-23.368-0.901-65.783,1.399-69.357c3.186-4.954,22.295-9.198,22.295-9.198l0.707-11.677l24.415,0.813L270.16,305.259z"
						/>
					<path style="fill:#2E2D44;" d="M270.16,305.259c0,0,0,12.079-0.718,22.01c-0.505,6.942-6.287,12.317-13.244,12.317h-10.805
						c0,0-2.614-10.801-10.066-12.746c7.125-0.322,11.175,5.507,11.175,5.507l0,0c0-1.879,1.523-3.401,3.402-3.401
						c0,0,7.935,0.97,10.205-0.648c2.269-1.618,2.417-12.618,2.621-23.284L270.16,305.259z"/>
					<path style="fill:#2E2D44;" d="M247.719,337.612l-0.846-0.044c-4.405-0.238-8.092,3.303-8.03,7.715l1.047,75.252
						c-1.164-0.403-2.281-0.798-1.508-1.589V342.79c-1.838-4.42,2.076-8.334,6.909-8.334L247.719,337.612z"/>
					<path style="fill:#2E2D44;" d="M247.514,423.091h-47.337c0,0,0.486-4.404,1.944-6.348c1.458-1.944,13.607-10.529,16.522-11.339
						c2.916-0.81,8.423-0.324,12.959,2.592C236.137,410.911,247.514,423.091,247.514,423.091z"/>
				</g>
				<g>
					<g>
						<g>
							<path style="fill:#FFCD08;" d="M273.178,270.512c-0.029,0.743-0.058,1.483-0.09,2.219c-0.201,4.816-0.416,9.53-0.627,13.859
								c-0.585,12.079-1.114,21.167-1.114,21.167l-60.448,0.332c0,0,2.435-58.644,3.333-72.417
								c1.609-1.953,9.906-6.194,14.836-8.597c2.447-1.189,4.222-2.037,4.222-2.037l15.867-1.057c0,0,2.307,0.694,5.51,1.786
								c6.625,2.267,18.488,8.241,18.85,9.417c0.071,0.232,0.223,0.57,0.313,1.056c0.098,0.523,0.179,1.193,0.245,2.002
								c0.016,0.157,0.027,0.322,0.039,0.49c0.04,0.56,0.076,1.179,0.105,1.848C274.572,248.531,273.775,255.866,273.178,270.512z"
								/>
							<path style="fill:#F39E23;" d="M273.087,272.731c-0.201,4.816-0.416,9.53-0.627,13.859l-14.182-0.735l-0.102-4.98
								c0,0,1.206-3.379,2.767-4.464C262.505,275.323,273.12,271.995,273.087,272.731z"/>
							<path style="fill:#F39E23;" d="M274.076,238.241l-21.001-8.365c-2.434,4.246-6.937,8.266-10.077,9.956
								c-2.487-4.908-3.341-5.617-5.098-4.278c-1.558-3.682-3.382,0.326-5.213,2.797c-2.873-3.053-3.502-8.3-3.617-11.276
								c2.447-1.189,4.222-2.037,4.222-2.037l15.867-1.057c0,0,2.307,0.694,5.51,1.786c-0.174,0.986-0.527,1.995-1.013,3.005
								c6.195,1.976,15.482,5.407,20.176,7.469C273.928,236.762,274.009,237.432,274.076,238.241z"/>
							<path style="fill:#F39E23;" d="M239.246,307.933l-2.065,0.011c-0.093-3.665-0.319-12.1-0.607-21.86
								c-0.387-13.099,1.087-53.78,1.087-53.78l1.07-0.574c0,0-0.498,31.104-0.664,38.879
								C237.924,277.216,238.937,300.944,239.246,307.933z"/>
						</g>
					</g>
					<g>
						<path style="fill:#3E3F59;" d="M249.099,248.092v8.366h1.733v-8.366c0-0.535-0.481-0.943-1.009-0.855l0,0
							C249.405,247.307,249.099,247.669,249.099,248.092z"/>
						<path style="fill:#F39E23;" d="M247.427,252.09l12.764-0.073v8.237c-0.088,3.207-1.674,6.228-4.358,7.986
							c-0.754,0.494-1.538,0.877-2.29,1.023c-0.588-0.314-1.13-0.622-1.626-0.923c-2.977-1.802-4.801-5.022-4.82-8.503
							L247.427,252.09z"/>
					</g>
				</g>
				<g>
					<g>
						<path style="fill:#3E3F59;" d="M242.629,285.363c-1.016,3.103-6.319,10.91-6.442,11.152c-0.12,0.242-3.849-4.047-5.449-8.11
							c-0.434-3.029,4.518-41.38,5.701-51.437c0.192-1.634,0.304-2.59,0.304-2.616l2.914-0.137c0,0,0.079,1.058,0.217,2.877
							C240.518,245.785,241.716,274.42,242.629,285.363z"/>
						<path style="fill:#002734;" d="M239.874,237.092c-1.408,0.392-2.577,0.193-3.435-0.124c0.192-1.634,0.304-2.59,0.304-2.616
							l2.914-0.137C239.656,234.215,239.735,235.273,239.874,237.092z"/>
						<path style="fill:#3E3F59;" d="M241.711,232.322c-0.445,1.701-3.023,2.902-4.574,2.577c-1.551-0.328-2.656-2.962-2.656-2.962
							c0.027-0.355,0.215-0.814,0.509-1.277c0.621-0.999,1.717-2.016,2.691-2.084c1.109-0.076,3.196,1.198,3.866,2.571
							C241.736,231.542,241.812,231.94,241.711,232.322z"/>
						<path style="fill:#002734;" d="M241.547,231.147c-0.872,1.14-2.133,2.348-3.35,2.732c-2.226,0.701-3.298-3.058-3.177-3.139
							l-0.03-0.08c0.621-0.999,1.717-2.016,2.691-2.084C238.79,228.5,240.877,229.774,241.547,231.147z"/>
					</g>
					<g>
						<path style="fill:#FFCD08;" d="M234.933,222.194c0,0-3.265,2.812-3.416,4.838c-0.151,2.026,1.169,6.311,1.986,7.643
							c1.449-1.628,2.329-3.617,2.979-3.297c0.65,0.32,1.18,0.925,1.18,0.925s1.771-2.035,2.341-1.43
							c0.57,0.604,3.265,4.558,3.265,4.558s5.435-2.868,7.444-7.778c0.474-1.158,0.563-2.448,0.254-3.66
							c-0.862-3.382-3.036-5.104-4.186-5.306C245.442,218.451,237.269,219.913,234.933,222.194z"/>
						<g>
							<path style="fill:#F6AB9D;" d="M246.956,224.651c-0.403,0.665-0.97,1.36-1.754,1.899c-2.739,1.901-6.786,3.157-7.267,4.214
								c-2.194-1.529-3.987-3.867-4.076-4.675c-0.023-0.227,0.049-0.458,0.161-0.675c0.464-0.889,0.708-1.871,0.632-2.863
								c-0.008-0.113-0.02-0.223-0.035-0.337c-0.274-1.884-0.716-4.463-1.212-5.438c1.76-3.572,11.375-8.323,12.184-8.247
								l1.102,6.611l0.962,5.787C247.866,222.211,247.639,223.538,246.956,224.651z"/>
							<path style="fill:#EA555D;" d="M246.692,215.14c-1.136,2.544-2.549,3.877-4.728,5.214c-2.003,1.23-5.401,1.901-7.311,2.197
								c-0.008-0.113-0.02-0.223-0.035-0.337c-0.274-1.884-0.716-4.463-1.212-5.438c1.76-3.572,11.375-8.323,12.184-8.247
								L246.692,215.14z"/>
						</g>
					</g>
					<g>
						<path style="fill:#EA555D;" d="M225.658,205.716c-0.002-0.324-1.793-2.096-3.163-0.793c-1.153,1.097,0.441,6.639,4.17,7.186
							C227.207,207.733,225.658,205.716,225.658,205.716z"/>
						<g>
							<path style="fill:#3E3F59;" d="M250.655,200.395c0.01,1.783-0.376,4.861-2.429,7.75c-0.698,0.982-3.109,1.236-6.149,1.052
								c-4.619-0.282-10.686-1.586-14.391-2.902c-1.016-0.361-1.853-0.722-2.437-1.063c-3.728-2.188-3.115-5.135-2.971-5.652
								c-0.119,0.337-0.606,1.622-1.098,1.342c-0.939-1.009,0.248-6.116,1.209-7.824c0.965-1.704,3.264-3.013,11.559-4.194
								c8.298-1.181,8.305,0.075,11.039,3.828C250.736,193.104,250.645,198.615,250.655,200.395z"/>
							<path style="fill:#2E2D44;" d="M248.378,205.805c-0.558,0.816-1.459,1.517-2.558,2.087c-1.923,0.998-4.121,1.331-6.271,1.07
								c-3.279-0.398-6.894-1.158-9.776-1.997c-2.344-0.683-4.359-2.272-5.391-4.484c-0.244-0.523-0.439-1.08-0.576-1.674
								c-0.589-2.553,0.159-4.314,0.159-4.314s-1.234,1.889-1.299,1.497c-0.061-0.395,0.467-3.558,2.707-5.211
								c2.239-1.653,12.252-3.256,14.995-1.935c2.739,1.322,3.542,3.565,3.451,3.595c0,0.04,3.51,0.372,4.689,2.406
								C249.706,198.903,249.853,203.64,248.378,205.805z"/>
						</g>
						<g>
							<path style="fill:#F6AB9D;" d="M246.225,210.433c0.013,2.362-2.589,5.321-3.176,5.88c-2.258,2.136-4.441,2.858-6.703,3.599
								c-2.266,0.741-5.341,0.919-6.64,0.443c-1.299-0.48-3.283-7.759-3.944-10.187c-0.396-1.448-0.949-4.788-1.325-7.232
								c-0.053-0.351-0.106-0.68-0.152-0.988c-0.235-1.555,0.903-3.004,2.473-3.093c1.538-0.082,3.593,0.178,6.153,0.34
								c4.699,0.3,8.008-1.908,8.008-1.908s-0.881,2.356-0.794,2.842c0.083,0.483,0.73,0.238,1.448-1.711
								c-0.219,4.699,0.994,4.37,2.949,6.219c0.255,2.43,1.471,2.504,1.471,2.504S246.218,209.056,246.225,210.433z"/>
							<path style="fill:#EF9A8F;" d="M232.829,217.401c-0.158-0.334,0.601-1.218,1.389-1.405c0.789-0.187,2.13,0.657,1.949,1.022
								C235.988,217.383,233.259,218.31,232.829,217.401z"/>
							<path style="fill:#EF9A8F;" d="M245.994,207.143c-1.508,0.06-2.357-1.891-2.357-1.891s-1.763-0.261-2.623-1.535
								c-0.794-1.178-0.363-2.704-0.294-2.917c-0.094,0.22-0.802,1.883-1.623,1.803c-0.883-0.087-0.046-2.46-0.046-2.46
								s-1.544,0.829-4.429,0.936c-2.885,0.107-5.867-0.909-7.806-0.532c-1.214,0.234-1.98,1.472-2.378,2.389
								c-0.053-0.351-0.106-0.68-0.152-0.988c-0.235-1.555,0.903-3.004,2.473-3.093c1.538-0.082,3.593,0.178,6.153,0.34
								c4.699,0.3,8.008-1.908,8.008-1.908s-0.881,2.356-0.794,2.842c0.083,0.483,0.73,0.238,1.448-1.711
								c-0.219,4.699,0.994,4.37,2.949,6.219C244.778,207.069,245.994,207.143,245.994,207.143z"/>
						</g>
						<path style="fill:#EA555D;" d="M231.927,204.265c0.283-0.123,0.279,6.559,0.279,6.559s2.065,0.029,2.188,0.312
							c0.123,0.283-2.711,0.46-2.874,0.137C231.356,210.95,231.644,204.388,231.927,204.265z"/>
						<g>
							<path style="fill:#002734;" d="M237.973,206.459c0.004,0.716-0.573,1.299-1.289,1.303c-0.716,0.004-1.299-0.573-1.303-1.289
								c-0.004-0.716,0.573-1.299,1.289-1.303C237.385,205.166,237.969,205.743,237.973,206.459z"/>
							<path style="fill:#002734;" d="M235.144,203.822c0,0,0.767-0.45,1.638-0.353c0.871,0.096,1.967,0.617,1.967,0.617
								s-0.596-1.596-1.973-1.609C235.379,202.463,235.144,203.822,235.144,203.822z"/>
						</g>
						<g>
							<path style="fill:#002734;" d="M230.157,206.502c0.004,0.716-0.573,1.299-1.289,1.303c-0.716,0.004-1.299-0.573-1.303-1.289
								c-0.004-0.716,0.573-1.299,1.289-1.303C229.57,205.209,230.153,205.786,230.157,206.502z"/>
							<path style="fill:#002734;" d="M226.817,203.867c0,0,0.767-0.45,1.638-0.353c0.871,0.096,1.968,0.617,1.968,0.617
								s-0.596-1.596-1.973-1.609C227.053,202.509,226.817,203.867,226.817,203.867z"/>
						</g>
						<path style="fill:#EA555D;" d="M230.867,214.03c-0.06-0.012,1.363,1.383,3.387,1.034c2.792-0.481,3.527-2.955,3.527-2.955
							S234.961,214.838,230.867,214.03z"/>
					</g>
					<g>
						<path style="fill:#F6AB9D;" d="M245.995,207.144c0,0-0.853-4.085,0.902-5.432c1.754-1.346,3.282,0.225,3.474,2.046
							c0.192,1.821-0.07,6.459-4.038,5.914C245.907,209.615,245.995,207.144,245.995,207.144z"/>
						<path style="fill:#EF9A8F;" d="M247.024,204.77c0.083-0.084,0.413-0.817,1.164-1.03c0.751-0.213,1.044-0.089,1.044-0.089
							s-0.445-1.063-1.196-0.933C247.285,202.847,247.024,204.77,247.024,204.77z"/>
						<path style="fill:#EA555D;" d="M249.563,204.249c0-0.061-0.233-1.821-1.306-1.916c-1.074-0.095-1.629,1.953-1.396,3.916
							c0.156-1.034,0.661-1.279,0.967-0.856c0.306,0.424-0.091,1.803-0.657,2.089c0.824,0.393,1.675,0.342,2.034-0.611
							c0.359-0.954,0.16-1.689,0.16-1.689s-0.435,1.906-0.959,1.96c-0.163,0.017-0.148,0.031-0.356-0.008
							c0.785-0.973,0.526-3.244-0.752-2.305c0.118-0.568,0.314-1.804,0.86-1.868C248.705,202.897,249.563,204.249,249.563,204.249z"
							/>
					</g>
				</g>
				<g>
					<g>
						<path style="fill:#FFCD08;" d="M292.675,289.753c-2.733,1.033-6.075,0.681-8.655,0.201
							c-5.718-1.06-16.884-29.222-17.528-35.78c-0.625-6.415,5.751-19.639,6.951-19.053c0.015,0.007,0.029,0.018,0.04,0.029
							c0.004,0,0.007,0.007,0.007,0.007c0.011,0.007,0.018,0.015,0.026,0.025c2.529,3.142,22.344,28.588,24.002,42.427
							C298.424,285.199,295.997,288.497,292.675,289.753z"/>
						<path style="fill:#F39E23;" d="M292.675,289.753c-2.733,1.033-6.075,0.681-8.655,0.201
							c-5.718-1.06-16.884-29.222-17.528-35.78c-0.625-6.415,5.751-19.639,6.951-19.053c0.015,0.011,0.029,0.018,0.04,0.029
							c0.004,0,0.007,0.007,0.007,0.007c0.092,0.062,0.11,0.08,0.026,0.025c0,0-5.967,12.306-3.988,18.612
							c1.979,6.305,9.475,15.535,9.475,15.535s5.574-3.07,6.059-2.831c0.488,0.243-3.013,4.15-3.013,4.15s5.948-1.127,5.707-0.277
							c-0.237,0.851-4.96,3.55-4.96,3.55S288.501,283.712,292.675,289.753z"/>
						<path style="fill:#FFCD08;" d="M293.573,289.173c-2.178,2.037-5.413,2.381-7.116,2.47c-1.314,0.069-17.958,0.465-25.981,0.307
							c-2.358-0.046-3.97-0.143-4.231-0.306c-1.135-0.723-2.608-3.468-1.75-9.302c0.042-0.289,0.72-1.626,0.961-1.627
							c0.245-0.001,3.649,0.306,3.649,0.306s-0.009-1.703,1.283-2.438c1.292-0.736,25.88-6.784,28.554-6.473
							c2.675,0.308,5.611,4.261,6.281,8.307C295.894,284.462,295.747,287.136,293.573,289.173z"/>
						<path style="fill:#F39E23;" d="M260.476,291.951c-2.358-0.046-3.97-0.143-4.231-0.306c-1.135-0.723-2.608-3.468-1.75-9.302
							c0.042-0.289,0.72-1.626,0.961-1.627c0.245-0.001,3.649,0.306,3.649,0.306s3.004,1.602,3.186,5.328
							C262.402,288.586,261.34,290.657,260.476,291.951z"/>
					</g>
					<g>
						<g>
							<path style="fill:#F6AB9D;" d="M257.237,289.504c-0.31,0.302-0.678,0.546-1.087,0.724c-1.472,0.642-3.469,1.033-5.248,1.124
								c-3.035,0.156-4.992-1.631-4.992-1.631s-2.331,2.847-2.697,3.01c-0.752,0.341-1.419-0.318-1.291-1.025
								c-0.648,0.685-1.254,0.955-1.698,0.914c-0.469-0.049-0.76-0.446-0.735-1.083c-0.304,0.599-0.713,0.927-1.107,1.053
								c-0.768,0.242-1.484-0.277-1.291-1.04c0.892-3.527,2.372-6.842,2.505-7.224c0-0.004,0.004-0.011,0.004-0.015
								c-0.146,0.169-3.26,3.727-3.438,4.083c-0.17,0.349-1.268,1.768-2.051,2.563c-0.036,0.04-0.073,0.074-0.106,0.107
								c-0.969,0.957-1.7,0.493-1.884,0.314c-0.18-0.182,1.079-2.8,1.74-3.898c0.664-1.098,5.198-8.23,5.955-8.52
								c1.94-0.739,13.313,3.903,15.071,4.022c1.637,0.108,3.024,1.272,3.392,2.874c0.015,0.062,0.03,0.121,0.041,0.183
								C258.605,287.332,258.158,288.638,257.237,289.504z"/>
							<path style="fill:#EA555D;" d="M240.673,281.122l-1.07,3.184c0,0,0,0.004-0.004,0.004c-0.146,0.169-3.26,3.727-3.438,4.083
								c-0.17,0.349-1.267,1.769-2.05,2.564c0.579-1.421,1.141-2.513,2.413-4.169C238.373,284.38,240.673,281.122,240.673,281.122z"
								/>
							<path style="fill:#EA555D;" d="M242.521,284.898c-0.357,1.064-3.032,6.637-3.032,6.637c-0.304,0.599-0.713,0.927-1.107,1.053
								c0.523-1.132,0.735-2.128,1.445-3.52c0.904-1.774,1.861-3.797,1.967-4.074c0.271-0.701,0.745-3.102,0.745-3.102
								S242.881,283.834,242.521,284.898z"/>
							<path style="fill:#EA555D;" d="M244.996,285.51c-0.115,1.055-2.626,5.254-3.075,6.194c-0.648,0.685-1.254,0.955-1.698,0.914
								c0.828-1.301,2.454-3.913,3.602-6.127c0.706-1.359,1.039-2.799,1.039-2.799S245.111,284.459,244.996,285.51z"/>
						</g>
						<path style="fill:#EA555D;" d="M257.237,289.504c-0.31,0.302-0.678,0.546-1.087,0.724c-1.472,0.642-3.469,1.033-5.248,1.124
							c-3.035,0.156-4.992-1.631-4.992-1.631l0.035-0.046c0.638-0.839,1.763-1.065,2.726-0.636c0.061,0.027,0.125,0.052,0.193,0.076
							C250.385,289.775,253.11,290.127,257.237,289.504z"/>
					</g>
				</g>
			</g>
			<g>
				<g>
					<polygon style="fill:#3545C3;" points="280.859,309.165 281.616,424.795 286.928,424.795 289.321,309.165 					"/>
					<polygon style="fill:#5275F4;" points="276.463,309.165 278.856,424.795 284.169,424.795 284.926,309.165 					"/>
				</g>
				<g>
					<polygon style="fill:#3545C3;" points="315.284,307.553 316.041,423.183 321.354,423.183 323.747,307.553 					"/>
					<polygon style="fill:#5275F4;" points="310.889,307.553 313.282,423.183 318.594,423.183 319.351,307.553 					"/>
				</g>
				<g>
					<polygon style="fill:#3545C3;" points="125.747,307.553 126.504,421.414 131.816,421.414 134.209,307.553 					"/>
					<polygon style="fill:#5275F4;" points="121.351,307.553 123.744,421.414 129.057,421.414 129.814,307.553 					"/>
				</g>
				<g>
					<polygon style="fill:#3545C3;" points="95.429,307.553 96.185,423.183 101.498,423.183 103.891,307.553 					"/>
					<polygon style="fill:#5275F4;" points="91.033,307.553 93.426,423.183 98.738,423.183 99.495,307.553 					"/>
				</g>
				<g>
					<rect x="90.817" y="298.818" style="fill:#96B7FF;" width="232.861" height="41.711"/>
					<rect x="90.817" y="298.818" style="fill:#6E91F4;" width="196.924" height="41.711"/>
					<rect x="90.817" y="298.818" style="fill:#5275F4;" width="232.861" height="16.401"/>
					<rect x="287.741" y="298.818" style="fill:#6E91F4;" width="35.937" height="16.401"/>
				</g>
			</g>
			<g>
				<g>
					<polygon style="fill:#2E2D44;" points="140.79,261.524 142.086,259.338 202.017,259.131 218.381,295.055 215.83,295.055 					
						"/>
					<polygon style="fill:#3E3F59;" points="140.79,261.524 200.478,261.642 215.83,295.055 156.211,295.055 					"/>
				</g>
				<rect x="156.211" y="295.055" style="fill:#2E2D44;" width="59.619" height="3.762"/>
				<polygon style="fill:#2E2D44;" points="215.83,298.818 248.912,298.818 248.912,294.97 215.83,295.055 				"/>
			</g>
			<g>
				<g>
					<path style="fill:#5275F4;" d="M271.672,280.825h6.567c2.054,0,3.719,1.665,3.719,3.719v6.411c0,2.054-1.665,3.719-3.719,3.719
						h-6.891v-1.782h6.095c1.151,0,2.085-0.933,2.085-2.085v-5.954c0-1.151-0.933-2.085-2.085-2.085h-5.771V280.825z"/>
					<path style="fill:#96B7FF;" d="M275.085,278.657v16.363c0,2.091-1.695,3.786-3.786,3.786h-10.703
						c-2.091,0-3.786-1.695-3.786-3.786v-16.363c0-0.992,0.806-1.802,1.801-1.802h14.672
						C274.279,276.855,275.085,277.664,275.085,278.657z"/>
					<path style="fill:#5275F4;" d="M275.085,278.657H256.81c0-0.992,0.806-1.802,1.801-1.802h14.672
						C274.279,276.855,275.085,277.664,275.085,278.657z"/>
					<path style="fill:#B2C7FF;" d="M259.118,280.744c0,0,0,13.728,0,14.822c0,1.093,1.458,2.43,2.551,2.308v-14.579
						C261.669,281.887,260.527,280.744,259.118,280.744L259.118,280.744z"/>
				</g>
				<path style="opacity:0.47;fill:#FFFFFF;" d="M270.611,267.542c1.398-1.069,2.785-2.259,3.531-3.853
					c0.975-2.083,0.705-4.501,0.602-6.798c-0.103-2.298,0.073-4.835,1.664-6.496c1.337-1.396,3.379-1.843,5.307-1.988
					c1.928-0.145,3.908-0.063,5.741-0.678c3.674-1.234,6.019-4.999,9.642-6.374c3.92-1.488,8.829,0.571,10.514,4.409
					c1.686,3.839-0.12,8.846-3.867,10.726c-2.033,1.02-4.376,1.158-6.608,1.594c-2.233,0.437-4.581,1.326-5.758,3.273
					c-0.908,1.502-0.957,3.377-1.718,4.959c-1.318,2.741-4.497,4.075-7.508,4.501c-2.357,0.334-4.75,0.249-7.109,0.558
					c-1.165,0.153-2.321,0.382-3.415,0.821c-0.858,0.344-1.693,1.144-2.575,1.34c-1.263,0.28-2.9-0.676-2.56-2.106
					C266.862,269.874,269.436,268.44,270.611,267.542z"/>
			</g>
		</g>
	</g>
</g>
<g id="DESIGN_BY_FREEPIK">
	<g id="XMLID_39_">
		<g id="XMLID_319_">
			<g id="XMLID_338_">
				<path id="XMLID_346_" style="fill:#1D262D;" d="M260.104,465.465c-0.432,0.443-0.803,0.931-1.108,1.453l-0.465-0.241
					c-0.067-0.298-0.349-0.503-0.659-0.466c-0.331,0.039-0.568,0.339-0.529,0.67c0.039,0.331,0.339,0.568,0.67,0.529
					c0.065-0.008,0.127-0.026,0.183-0.052l0.452,0.234c-0.251,0.554-0.433,1.139-0.539,1.744l0.747,0.132
					c0.23-1.306,0.85-2.507,1.792-3.473L260.104,465.465z"/>
				<path id="XMLID_345_" style="fill:#1D262D;" d="M265.592,463.163c-0.171,0-0.341,0.006-0.51,0.017l-0.074-0.626
					c0.188-0.149,0.296-0.389,0.266-0.645c-0.046-0.393-0.402-0.674-0.795-0.628c-0.393,0.046-0.674,0.402-0.628,0.795
					c0.03,0.254,0.189,0.461,0.405,0.564l0.073,0.624c-0.714,0.116-1.403,0.332-2.06,0.646l0.327,0.684
					c0.934-0.447,1.942-0.673,2.995-0.673c0.496,0,0.993,0.053,1.475,0.158l0.161-0.741
					C266.692,463.222,266.142,463.163,265.592,463.163z"/>
				<path id="XMLID_344_" style="fill:#1D262D;" d="M272.194,465.711c0.331-0.04,0.566-0.341,0.526-0.672
					c-0.04-0.331-0.341-0.566-0.672-0.526c-0.309,0.038-0.535,0.304-0.53,0.609l-0.416,0.363c-0.418-0.43-0.89-0.813-1.408-1.139
					l-0.404,0.641c1.134,0.715,2.021,1.726,2.563,2.925l0.691-0.313c-0.251-0.554-0.568-1.072-0.942-1.545l0.402-0.351
					C272.065,465.716,272.129,465.719,272.194,465.711z"/>
				<path id="XMLID_343_" style="fill:#1D262D;" d="M265.044,473.372c-0.386,0.023-0.775,0.035-1.157,0.035
					c-0.88,0-1.733-0.061-2.478-0.179c-0.39-0.062-0.846-0.155-1.27-0.292c1.046,1.861,3.069,3.125,5.388,3.125
					c2.855,0,5.262-1.916,5.95-4.504c-0.682,0.449-1.505,0.825-2.459,1.123C267.839,473.047,266.464,473.286,265.044,473.372z"/>
				<path id="XMLID_339_" style="fill:#1D262D;" d="M265.592,464.68c-3.352,0-6.08,2.666-6.08,5.943
					c0,0.426,0.046,0.849,0.137,1.261c0.673,0.483,2.706,0.89,5.348,0.731c2.879-0.173,5.297-0.957,6.672-2.159
					c-0.005-0.195-0.021-0.39-0.045-0.582C271.244,466.913,268.65,464.68,265.592,464.68z M263.432,471.194
					c-1.02,0-1.85-0.83-1.85-1.85c0-1.02,0.83-1.85,1.85-1.85c1.02,0,1.85,0.83,1.85,1.85
					C265.282,470.365,264.452,471.194,263.432,471.194z M268.17,470.286c-0.75,0-1.36-0.61-1.36-1.36s0.61-1.361,1.36-1.361
					c0.75,0,1.361,0.61,1.361,1.361S268.92,470.286,268.17,470.286z"/>
			</g>
			<path id="XMLID_336_" style="fill:#1D262D;" d="M281.595,466.547c-0.295-0.116-0.805-0.309-1.382-0.237
				c-0.551,0.069-0.844,0.341-0.844,1.007v0.866h2.228v1.717h-2.228v5.455h-1.932v-5.455h-1.34v-1.717h1.34v-0.888
				c0-1.68,0.896-2.783,2.568-2.783c0.643,0,1.157,0.122,1.59,0.308L281.595,466.547z"/>
			<path id="XMLID_334_" style="fill:#1D262D;" d="M286.298,469.879c-0.177-0.03-0.358-0.046-0.526-0.046
				c-0.896,0-1.51,0.548-1.51,1.614v3.908h-1.932v-7.172h1.873v0.785c0.451-0.673,1.14-0.977,2.021-0.977
				c0.414,0,0.848,0.128,1.094,0.337L286.298,469.879z"/>
			<path id="XMLID_331_" style="fill:#1D262D;" d="M293.965,471.757c0,0.222-0.015,0.489-0.037,0.651h-5.085
				c0.207,1.036,0.933,1.488,1.843,1.488c0.622,0,1.295-0.252,1.813-0.688l1.132,1.243c-0.814,0.748-1.85,1.088-3.057,1.088
				c-2.198,0-3.723-1.495-3.723-3.753c0-2.258,1.48-3.797,3.627-3.797C292.544,467.99,293.958,469.522,293.965,471.757z
				 M288.851,471.091h3.175c-0.177-0.918-0.733-1.436-1.562-1.436C289.554,469.655,289.021,470.203,288.851,471.091z"/>
			<path id="XMLID_328_" style="fill:#1D262D;" d="M301.618,471.757c0,0.222-0.015,0.489-0.037,0.651h-5.085
				c0.207,1.036,0.933,1.488,1.843,1.488c0.622,0,1.295-0.252,1.813-0.688l1.132,1.243c-0.814,0.748-1.85,1.088-3.057,1.088
				c-2.198,0-3.723-1.495-3.723-3.753c0-2.258,1.48-3.797,3.627-3.797C300.197,467.99,301.611,469.522,301.618,471.757z
				 M296.504,471.091h3.175c-0.178-0.918-0.733-1.436-1.562-1.436C297.207,469.655,296.674,470.203,296.504,471.091z"/>
			<path id="XMLID_325_" style="fill:#1D262D;" d="M309.964,471.764c0,2.154-1.495,3.775-3.471,3.775
				c-0.962,0-1.643-0.378-2.109-0.933v3.708h-1.924v-10.133h1.887v0.792c0.466-0.585,1.155-0.984,2.139-0.984
				C308.469,467.99,309.964,469.61,309.964,471.764z M304.287,471.764c0,1.132,0.747,1.976,1.843,1.976
				c1.14,0,1.85-0.881,1.85-1.976c0-1.095-0.71-1.976-1.85-1.976C305.035,469.788,304.287,470.632,304.287,471.764z"/>
			<path id="XMLID_322_" style="fill:#1D262D;" d="M313.068,465.836c0,0.696-0.54,1.229-1.236,1.229
				c-0.696,0-1.229-0.533-1.229-1.229c0-0.696,0.533-1.243,1.229-1.243C312.527,464.592,313.068,465.14,313.068,465.836z
				 M312.809,475.354h-1.932v-7.172h1.932V475.354z"/>
			<path id="XMLID_320_" style="fill:#1D262D;" d="M316.032,470.736l2.701-2.554h2.368l-3.479,3.375l3.501,3.797h-2.376
				l-2.716-2.901v2.901H314.1v-10.658h1.932V470.736z"/>
		</g>
		<g id="XMLID_40_">
			<path id="XMLID_80_" style="fill:#1D262D;" d="M184.412,475.289v-1.055c-0.527,0.718-1.391,1.23-2.387,1.23
				c-1.846,0-3.149-1.406-3.149-3.706c0-2.256,1.289-3.721,3.149-3.721c0.952,0,1.816,0.469,2.387,1.245v-3.765h1.099v9.77H184.412z
				 M184.412,473.37v-3.208c-0.395-0.615-1.245-1.143-2.124-1.143c-1.421,0-2.27,1.172-2.27,2.739c0,1.567,0.85,2.724,2.27,2.724
				C183.168,474.483,184.017,473.986,184.412,473.37z"/>
			<path id="XMLID_77_" style="fill:#1D262D;" d="M186.932,471.744c0-2.051,1.465-3.706,3.486-3.706c2.139,0,3.398,1.67,3.398,3.794
				v0.279h-5.727c0.088,1.333,1.025,2.446,2.549,2.446c0.805,0,1.626-0.322,2.182-0.894l0.527,0.718
				c-0.703,0.703-1.655,1.084-2.812,1.084C188.44,475.465,186.932,473.956,186.932,471.744z M190.403,468.947
				c-1.509,0-2.256,1.274-2.314,2.358h4.643C192.718,470.25,192.015,468.947,190.403,468.947z"/>
			<path id="XMLID_75_" style="fill:#1D262D;" d="M194.607,474.351l0.571-0.791c0.469,0.542,1.362,1.011,2.329,1.011
				c1.084,0,1.67-0.513,1.67-1.216c0-1.714-4.38-0.659-4.38-3.281c0-1.098,0.952-2.036,2.636-2.036c1.201,0,2.051,0.454,2.622,1.026
				l-0.513,0.762c-0.424-0.513-1.201-0.894-2.109-0.894c-0.967,0-1.567,0.483-1.567,1.113c0,1.552,4.38,0.527,4.38,3.281
				c0,1.187-0.952,2.138-2.783,2.138C196.306,475.465,195.325,475.113,194.607,474.351z"/>
			<path id="XMLID_72_" style="fill:#1D262D;" d="M201.477,466.471c0-0.41,0.337-0.747,0.732-0.747c0.41,0,0.747,0.337,0.747,0.747
				c0,0.41-0.337,0.732-0.747,0.732C201.814,467.203,201.477,466.881,201.477,466.471z M201.667,475.289v-7.075h1.099v7.075H201.667
				z"/>
			<path id="XMLID_67_" style="fill:#1D262D;" d="M204.582,477.105l0.556-0.82c0.586,0.703,1.289,0.967,2.3,0.967
				c1.172,0,2.27-0.571,2.27-2.124v-1.011c-0.513,0.718-1.377,1.26-2.373,1.26c-1.845,0-3.149-1.377-3.149-3.662
				c0-2.27,1.289-3.677,3.149-3.677c0.952,0,1.802,0.469,2.373,1.245v-1.069h1.098v6.87c0,2.344-1.641,3.076-3.369,3.076
				C206.237,478.16,205.417,477.926,204.582,477.105z M209.709,473.253v-3.091c-0.381-0.615-1.23-1.143-2.109-1.143
				c-1.421,0-2.27,1.128-2.27,2.695c0,1.553,0.849,2.695,2.27,2.695C208.478,474.41,209.328,473.868,209.709,473.253z"/>
			<path id="XMLID_65_" style="fill:#1D262D;" d="M217.413,475.289v-4.629c0-1.245-0.63-1.641-1.582-1.641
				c-0.865,0-1.685,0.527-2.095,1.099v5.17h-1.099v-7.075h1.099v1.025c0.498-0.586,1.465-1.201,2.519-1.201
				c1.48,0,2.256,0.747,2.256,2.285v4.966H217.413z"/>
			<path id="XMLID_62_" style="fill:#1D262D;" d="M219.932,471.744c0-2.051,1.465-3.706,3.486-3.706c2.139,0,3.398,1.67,3.398,3.794
				v0.279h-5.727c0.088,1.333,1.025,2.446,2.549,2.446c0.806,0,1.626-0.322,2.183-0.894l0.527,0.718
				c-0.703,0.703-1.655,1.084-2.812,1.084C221.441,475.465,219.932,473.956,219.932,471.744z M223.404,468.947
				c-1.509,0-2.256,1.274-2.314,2.358h4.643C225.718,470.25,225.015,468.947,223.404,468.947z"/>
			<path id="XMLID_54_" style="fill:#1D262D;" d="M233.35,475.289v-1.055c-0.527,0.718-1.392,1.23-2.388,1.23
				c-1.846,0-3.149-1.406-3.149-3.706c0-2.256,1.289-3.721,3.149-3.721c0.952,0,1.817,0.469,2.388,1.245v-3.765h1.098v9.77H233.35z
				 M233.35,473.37v-3.208c-0.396-0.615-1.245-1.143-2.124-1.143c-1.421,0-2.27,1.172-2.27,2.739c0,1.567,0.849,2.724,2.27,2.724
				C232.105,474.483,232.954,473.986,233.35,473.37z"/>
			<path id="XMLID_46_" style="fill:#1D262D;" d="M239.692,475.289v-9.77h1.098v3.765c0.572-0.776,1.421-1.245,2.388-1.245
				c1.845,0,3.149,1.465,3.149,3.721c0,2.299-1.304,3.706-3.149,3.706c-0.996,0-1.86-0.513-2.388-1.23v1.055H239.692z
				 M242.9,474.483c1.436,0,2.285-1.157,2.285-2.724c0-1.568-0.85-2.739-2.285-2.739c-0.864,0-1.728,0.527-2.109,1.143v3.208
				C241.171,473.986,242.036,474.483,242.9,474.483z"/>
			<path id="XMLID_44_" style="fill:#1D262D;" d="M247.528,477.061c0.161,0.073,0.425,0.117,0.601,0.117
				c0.483,0,0.805-0.161,1.055-0.747l0.469-1.069l-2.959-7.148h1.187l2.358,5.8l2.344-5.8h1.201l-3.545,8.51
				c-0.425,1.025-1.143,1.421-2.08,1.435c-0.234,0-0.601-0.044-0.806-0.103L247.528,477.061z"/>
		</g>
	</g>
</g>
</svg>
