<svg width="110" height="110" viewBox="0 0 110 110" fill="none" xmlns="http://www.w3.org/2000/svg">
    <g clip-path="url(#clip0_2705_2923)">
        <path
            d="M54.5342 0.031189C26.6766 0.031191 28.4162 12.1593 28.4162 12.1593L28.4472 24.7239H55.0311V28.4964H17.8882C17.8882 28.4964 0.0621338 26.4669 0.0621338 54.6857C0.0621318 82.9045 15.6211 81.9038 15.6211 81.9038H24.9069V68.8092C24.9069 68.8092 24.4063 53.1891 40.2174 53.1891H66.5839C66.5839 53.1891 81.3975 53.4296 81.3975 38.8162V14.6535C81.3975 14.6535 83.6467 0.031189 54.5342 0.031189ZM39.8758 8.48034C42.5207 8.48034 44.6584 10.6264 44.6584 13.2817C44.6584 15.937 42.5207 18.0831 39.8758 18.0831C37.2309 18.0831 35.0932 15.937 35.0932 13.2817C35.0932 10.6264 37.2309 8.48034 39.8758 8.48034Z"
            fill="url(#paint0_linear_2705_2923)" />
        <path
            d="M55.3254 109.623C83.183 109.623 81.4434 97.495 81.4434 97.495L81.4123 84.9304H54.8285V81.1579H91.9714C91.9714 81.1579 109.797 83.1874 109.797 54.9686C109.797 26.7498 94.2384 27.7505 94.2384 27.7505H84.9527V40.8451C84.9527 40.8451 85.4532 56.4651 69.6422 56.4651H43.2757C43.2757 56.4651 28.462 56.2247 28.462 70.8381V95.0008C28.462 95.0008 26.2129 109.623 55.3254 109.623ZM69.9838 101.174C67.3389 101.174 65.2012 99.0279 65.2012 96.3726C65.2012 93.7173 67.3389 91.5712 69.9838 91.5712C72.6287 91.5712 74.7664 93.7173 74.7664 96.3726C74.7664 99.0279 72.6287 101.174 69.9838 101.174Z"
            fill="url(#paint1_linear_2705_2923)" />
    </g>
    <defs>
        <linearGradient id="paint0_linear_2705_2923" x1="1054.64" y1="985.781" x2="6513.79"
            y2="6369.36" gradientUnits="userSpaceOnUse">
            <stop stop-color="#387EB8" />
            <stop offset="1" stop-color="#366994" />
        </linearGradient>
        <linearGradient id="paint1_linear_2705_2923" x1="1584.94" y1="1712.71" x2="7446.43"
            y2="7232.1" gradientUnits="userSpaceOnUse">
            <stop stop-color="#FFE052" />
            <stop offset="1" stop-color="#FFC331" />
        </linearGradient>
        <clipPath id="clip0_2705_2923">
            <rect width="110" height="110" fill="white" />
        </clipPath>
    </defs>
</svg>
    