<svg width="110" height="59" viewBox="0 0 110 59" fill="none" xmlns="http://www.w3.org/2000/svg">
    <g clip-path="url(#clip0_2712_2958)">
        <path
            d="M84.3729 50.1353C97.8072 36.775 100.04 17.3348 89.3596 6.71342C78.6809 -3.90674 59.135 -1.68653 45.7015 11.673C32.268 25.0329 36.154 50.5575 40.7155 55.0949C44.4016 58.761 70.9402 63.4949 84.3729 50.1353Z"
            fill="#F89939" />
        <path
            d="M29.2499 30.8299C21.4564 23.0789 10.1144 21.7885 3.91672 27.9521C-2.27942 34.1149 -0.983947 45.3966 6.81111 53.1464C14.6062 60.8998 29.4978 58.6571 32.1427 56.0243C34.283 53.8991 37.0457 38.5817 29.2499 30.8299Z"
            fill="#3499CD" />
        <path
            d="M56.1403 46.8606C54.7635 48.121 53.5557 49.0513 52.5177 49.6489C51.4796 50.2485 50.4896 50.548 49.5475 50.548C48.4639 50.548 47.5896 50.1302 46.9268 49.2943C46.2628 48.4575 45.932 47.3356 45.932 45.9241C45.932 43.8092 46.3929 41.2703 47.3147 38.31C48.235 35.3473 49.3555 32.6174 50.6716 30.1199L54.5307 28.6989C54.6517 28.6587 54.7437 28.6382 54.8048 28.6382C55.0975 28.6382 55.3395 28.8528 55.5251 29.28C55.7127 29.7092 55.8071 30.286 55.8071 31.0111C55.8071 33.066 55.3315 35.0554 54.3784 36.9794C53.4256 38.9041 51.9374 40.9582 49.912 43.1441C49.8307 44.1919 49.7903 44.9114 49.7903 45.3047C49.7903 46.1817 49.9521 46.8756 50.2762 47.3896C50.6006 47.9045 51.0306 48.1601 51.5677 48.1601C52.1155 48.1601 52.6973 47.9652 53.3153 47.5723C53.9321 47.1786 54.8742 46.3636 56.1399 45.1237V46.8606H56.1403ZM50.3222 40.9539C51.6081 39.5317 52.6525 37.9368 53.4522 36.1722C54.2518 34.4069 54.6513 32.8885 54.6513 31.6162C54.6513 31.2454 54.5961 30.944 54.4855 30.7176C54.374 30.4907 54.2312 30.3767 54.0595 30.3767C53.6862 30.3767 53.1408 31.3046 52.4264 33.1607C51.7121 35.0164 51.0108 37.6145 50.3222 40.9539Z"
            fill="#010101" />
        <path
            d="M67.5053 46.8606C66.2193 48.121 65.065 49.0512 64.0417 49.6489C63.0183 50.2485 61.8902 50.5479 60.6538 50.5479C59.2763 50.5479 58.1648 50.1096 57.318 49.2342C56.4727 48.3565 56.0507 47.2042 56.0507 45.7734C56.0507 43.6384 56.7944 41.7065 58.285 39.979C59.7725 38.2508 61.4241 37.3872 63.2369 37.3872C64.1789 37.3872 64.9326 37.6298 65.5006 38.1131C66.0678 38.5971 66.3514 39.2311 66.3514 40.0169C66.3514 42.1026 64.1234 43.7938 59.667 45.0936C60.0715 47.057 61.1298 48.0401 62.8418 48.0401C63.5105 48.0401 64.148 47.8614 64.7552 47.5048C65.3641 47.1466 66.28 46.3521 67.5056 45.124L67.5053 46.8606ZM59.5444 44.066C62.1365 43.3401 63.4336 42.0012 63.4336 40.0469C63.4336 39.08 63.0786 38.5967 62.3706 38.5967C61.7018 38.5967 61.0644 39.1021 60.4571 40.1155C59.8478 41.1274 59.5444 42.4434 59.5444 44.066Z"
            fill="#010101" />
        <path
            d="M83.7309 46.8607C82.1101 48.3918 80.9503 49.3902 80.2522 49.8541C79.5533 50.3173 78.8849 50.5484 78.2463 50.5484C76.6458 50.5484 75.8918 49.1437 75.9826 46.3329C74.9699 47.7728 74.035 48.8356 73.1791 49.522C72.3239 50.2068 71.4405 50.5484 70.5278 50.5484C69.6377 50.5484 68.8809 50.1338 68.257 49.3026C67.633 48.4714 67.3232 47.4521 67.3232 46.2422C67.3232 44.732 67.7401 43.2913 68.5751 41.9205C69.4116 40.5504 70.4826 39.4435 71.7888 38.5973C73.095 37.7511 74.2508 37.3274 75.2524 37.3274C76.5189 37.3274 77.4054 37.9069 77.9119 39.0647L81.017 37.3582H81.869L80.5279 41.7848C79.8393 44.0117 79.4938 45.538 79.4938 46.3637C79.4938 47.2296 79.802 47.6627 80.4204 47.6627C80.8139 47.6627 81.2494 47.454 81.7258 47.0355C82.2022 46.6169 82.8693 45.9798 83.7301 45.1238V46.8607H83.7309ZM72.6099 47.6927C73.6225 47.6927 74.5769 46.8343 75.4749 45.1171C76.3713 43.399 76.8192 41.814 76.8192 40.3638C76.8192 39.8005 76.6914 39.359 76.4396 39.0423C76.1853 38.7239 75.8462 38.5661 75.4217 38.5661C74.4083 38.5661 73.4476 39.4221 72.5428 41.135C71.6365 42.8479 71.1823 44.4243 71.1823 45.8634C71.1823 46.4082 71.3172 46.8489 71.5853 47.1866C71.8534 47.5243 72.1938 47.6927 72.6099 47.6927Z"
            fill="#010101" />
        <path
            d="M95.0803 46.8606C92.5378 49.3384 90.5775 50.5783 89.2003 50.5783C88.5819 50.5783 88.0599 50.3188 87.6355 49.8016C87.2111 49.2824 86.9973 48.6398 86.9973 47.8737C86.9973 46.4535 87.7628 44.5505 89.2919 42.1626C88.5419 42.5456 87.7224 42.8115 86.8307 42.963C86.1722 44.1717 85.1386 45.4716 83.7312 46.8602H83.3826V45.502C84.1719 44.6862 84.8863 43.8092 85.5245 42.8723C84.6523 42.4892 84.2175 41.92 84.2175 41.1657C84.2175 40.3889 84.4825 39.5609 85.0156 38.6784C85.5471 37.7979 86.2785 37.3577 87.2111 37.3577C88.0012 37.3577 88.3955 37.7593 88.3955 38.5656C88.3955 39.2003 88.1678 40.1065 87.7113 41.2856C89.3923 41.1038 90.8611 39.8256 92.1177 37.4476L93.4996 37.3869L92.0868 41.2549C91.4997 42.8869 91.1197 43.9986 90.948 44.5872C90.7762 45.1757 90.6893 45.6981 90.6893 46.1505C90.6893 46.5742 90.7885 46.9127 90.9852 47.1628C91.1828 47.4165 91.4493 47.5411 91.7833 47.5411C92.1475 47.5411 92.4977 47.4173 92.8317 47.1719C93.1657 46.923 93.9153 46.2413 95.0807 45.1233V46.8606H95.0803Z"
            fill="#010101" />
        <path
            d="M110 46.8606C107.661 49.3199 105.654 50.5483 103.984 50.5483C103.305 50.5483 102.758 50.3116 102.343 49.8378C101.927 49.3648 101.719 48.7305 101.719 47.9348C101.719 46.857 102.165 45.2096 103.057 42.9945C103.533 41.8055 103.771 41.0489 103.771 40.7278C103.771 40.4051 103.644 40.2437 103.392 40.2437C103.25 40.2437 103.062 40.3147 102.829 40.4548C102.616 40.5956 102.368 40.7937 102.084 41.045C101.831 41.2761 101.547 41.5582 101.233 41.8896C100.959 42.174 100.665 42.4959 100.353 42.8573L99.5011 43.8403C99.127 44.2932 98.8938 44.771 98.8029 45.2751C98.6502 46.1312 98.5495 46.9178 98.4983 47.6338C98.4674 48.1664 98.4527 48.8859 98.4527 49.7944L95.095 50.5787C94.9843 49.2189 94.9276 48.2062 94.9276 47.5423C94.9276 45.9205 95.1176 44.3839 95.498 42.9338C95.8776 41.482 96.4873 39.8512 97.3286 38.0373L101.035 37.3276C100.255 39.4133 99.7442 41.0544 99.5011 42.2525C101.162 40.4094 102.479 39.1336 103.455 38.4224C104.43 37.7119 105.298 37.3584 106.056 37.3584C106.571 37.3584 107.002 37.5517 107.345 37.9387C107.69 38.3261 107.861 38.8125 107.861 39.394C107.861 40.3601 107.426 41.9519 106.556 44.169C105.958 45.6893 105.659 46.676 105.659 47.1316C105.659 47.7379 105.907 48.0409 106.405 48.0409C107.145 48.0409 108.345 47.0685 110 45.1244V46.8606Z"
            fill="#010101" />
        <path
            d="M63.5136 40.4359C63.5737 41.1121 63.7427 41.6305 64.0207 41.9911C64.5315 42.6447 65.4181 42.9715 66.6802 42.9715C67.4315 42.9715 68.0926 42.81 68.6636 42.4869C69.2346 42.1564 69.5201 41.6493 69.5201 40.9656C69.5201 40.4472 69.2909 40.0528 68.8327 39.7823C68.5397 39.617 67.9612 39.4255 67.0972 39.2076L65.4857 38.8019C64.4564 38.5464 63.6976 38.261 63.2093 37.9454C62.3378 37.397 61.902 36.6382 61.902 35.669C61.902 34.5271 62.3115 33.603 63.1304 32.8968C63.9568 32.1906 65.065 31.8375 66.4548 31.8375C68.2729 31.8375 69.5839 32.3709 70.3878 33.4377C70.8912 34.1139 71.1353 34.8426 71.1203 35.6239H69.2045C69.167 35.1657 69.0054 34.7487 68.72 34.3731C68.2542 33.8396 67.4465 33.5729 66.2971 33.5729C65.5308 33.5729 64.9485 33.7194 64.5503 34.0124C64.1597 34.3054 63.9643 34.6924 63.9643 35.1732C63.9643 35.6991 64.2235 36.1198 64.7419 36.4353C65.0424 36.6232 65.4857 36.7884 66.0717 36.9312L67.4127 37.258C68.8702 37.6111 69.8469 37.9529 70.3427 38.2835C71.1316 38.8019 71.526 39.617 71.526 40.7289C71.526 41.8033 71.1166 42.7311 70.2977 43.5124C69.4863 44.2938 68.2467 44.6845 66.5788 44.6845C64.7832 44.6845 63.5098 44.2788 62.7585 43.4674C62.0147 42.6485 61.6166 41.638 61.564 40.4359H63.5136ZM66.962 58.8037C68.3218 58.8037 69.4262 59.1342 70.2751 59.7954C71.1316 60.4565 71.6462 61.5947 71.819 63.2099H69.8469C69.7267 62.4662 69.4525 61.8501 69.0242 61.3618C68.596 60.8659 67.9086 60.618 66.962 60.618C65.6697 60.618 64.7457 61.2491 64.1897 62.5113C63.8291 63.3302 63.6488 64.3406 63.6488 65.5427C63.6488 66.7523 63.9042 67.7703 64.4151 68.5967C64.926 69.4231 65.7298 69.8363 66.8267 69.8363C67.6682 69.8363 68.333 69.5809 68.8214 69.07C69.3172 68.5516 69.6591 67.8454 69.8469 66.9514H71.819C71.5936 68.5516 71.0302 69.7236 70.1286 70.4674C69.2271 71.2036 68.0739 71.5718 66.669 71.5718C65.0913 71.5718 63.8328 70.997 62.8937 69.8476C61.9546 68.6906 61.4851 67.2481 61.4851 65.5202C61.4851 63.4015 61.9997 61.7525 63.029 60.5729C64.0582 59.3934 65.3692 58.8037 66.962 58.8037ZM73.8475 59.2094H75.9098V71.2224H73.8475V59.2094ZM73.8475 54.6678H75.9098V56.9668H73.8475V54.6678ZM62.2627 81.6678H64.2122V91.2805L69.4187 86.153H72.0106L67.3902 90.672L72.2698 98.2224H69.6779L65.9139 92.137L64.2122 93.6922V98.2224H62.2627V81.6678ZM73.8475 86.2094H75.9098V98.2224H73.8475V86.2094ZM73.8475 81.6678H75.9098V83.9668H73.8475V81.6678ZM62.7134 109.783H64.7644V113.153H66.6915V114.81H64.7644V122.687C64.7644 123.108 64.9072 123.389 65.1927 123.532C65.3504 123.615 65.6134 123.656 65.9815 123.656C66.0792 123.656 66.1844 123.656 66.2971 123.656C66.4098 123.648 66.5412 123.637 66.6915 123.622V125.222C66.4586 125.29 66.2144 125.339 65.959 125.369C65.7111 125.399 65.4406 125.414 65.1476 125.414C64.201 125.414 63.5586 125.174 63.2205 124.693C62.8825 124.204 62.7134 123.573 62.7134 122.8V114.81H61.0794V113.153H62.7134V109.783Z"
            fill="white" />
    </g>
    <defs>
        <clipPath id="clip0_2712_2958">
            <rect width="110" height="59" fill="white" />
        </clipPath>
    </defs>
</svg>
    