<svg width="103" height="110" viewBox="0 0 103 110" fill="none" xmlns="http://www.w3.org/2000/svg">
    <g clip-path="url(#clip0_2709_2953)">
        <path
            d="M58.632 16.8875V33.7767L87.9471 50.6659V33.7767L58.632 16.8875ZM0 33.7767V50.6659L14.6576 59.1088V42.2213L0 33.7767ZM43.9727 42.2213L29.3151 50.6659V101.33L43.9727 109.775V75.998L58.632 84.4427V67.5534L43.9727 59.1088V42.2213Z"
            fill="#E55B2D" />
        <path
            d="M58.632 16.8875L14.6575 42.2213V59.1088L43.9726 42.2213V59.1088L58.632 50.6659V16.8875ZM102.606 25.3321L87.9471 33.7767V50.6659L102.606 42.2213V25.3321ZM73.2895 59.1088L58.632 67.5534V84.4427L73.2895 75.998V59.1088ZM58.632 84.4427L43.9726 75.998V109.775L58.632 101.33V84.4427Z"
            fill="#ED8E24" />
        <path
            d="M58.632 0L0 33.7767L14.6576 42.2214L58.632 16.8875L87.9471 33.7767L102.606 25.3321L58.632 0ZM58.632 50.666L43.9727 59.1089L58.632 67.5535L73.2895 59.1089L58.632 50.666Z"
            fill="#F8BF3C" />
    </g>
    <defs>
        <clipPath id="clip0_2709_2953">
            <rect width="103" height="110" fill="white" />
        </clipPath>
    </defs>
</svg>
    