<svg width="66" height="36" viewBox="0 0 66 36" fill="none" xmlns="http://www.w3.org/2000/svg">
    <g clip-path="url(#clip0_2728_6845)">
        <path fill-rule="evenodd" clip-rule="evenodd"
            d="M34.0024 6.91191C31.5408 10.0778 30.2034 13.9811 30.2034 18H35.7966C35.7966 15.237 36.7161 12.5535 38.4085 10.3769C40.1009 8.20041 42.4689 6.65608 45.1352 5.98999C47.8016 5.3239 50.6129 5.57436 53.1213 6.70148C55.6297 7.8286 57.6909 9.76752 58.9765 12.2094C60.2621 14.6512 60.6981 17.4555 60.2151 20.1755C59.7321 22.8954 58.3579 25.3746 56.3114 27.2181C54.2649 29.0615 51.6638 30.1631 48.9225 30.3474C46.1813 30.5317 43.4575 29.7881 41.1852 28.2351L38.0414 32.8874C41.3465 35.1464 45.3084 36.228 49.2957 35.9599C53.283 35.6918 57.0664 34.0894 60.0431 31.4081C63.0199 28.7267 65.0187 25.1206 65.7212 21.1643C66.4238 17.208 65.7895 13.129 63.9196 9.57726C62.0496 6.02549 59.0516 3.20523 55.403 1.56579C51.7544 -0.0736533 47.6652 -0.437964 43.7869 0.530895C39.9085 1.49975 36.4641 3.74605 34.0024 6.91191ZM31.9976 29.0881C34.4592 25.9222 35.7966 22.0189 35.7966 18H30.2034C30.2034 20.763 29.2839 23.4465 27.5915 25.6231C25.8991 27.7996 23.5311 29.3439 20.8648 30.01C18.1984 30.6761 15.3871 30.4256 12.8787 29.2985C10.3703 28.1714 8.3091 26.2325 7.02351 23.7906C5.73793 21.3488 5.30189 18.5445 5.78487 15.8245C6.26785 13.1046 7.64207 10.6254 9.68858 8.78196C11.7351 6.93853 14.3362 5.83691 17.0775 5.65259C19.8187 5.46827 22.5425 6.21186 24.8148 7.7649L27.9586 3.11257C24.6535 0.853608 20.6916 -0.227978 16.7043 0.0401216C12.717 0.308221 8.93363 1.91058 5.95688 4.59193C2.98013 7.27328 0.98128 10.8794 0.278762 14.8357C-0.423755 18.792 0.210479 22.871 2.08042 26.4227C3.95037 29.9745 6.94845 32.7948 10.597 34.4342C14.2456 36.0737 18.3348 36.438 22.2131 35.4691C26.0915 34.5003 29.5359 32.254 31.9976 29.0881Z"
            fill="#1E44B1" />
    </g>
    <defs>
        <clipPath id="clip0_2728_6845">
            <rect width="66" height="36" fill="white" />
        </clipPath>
    </defs>
</svg>
    