<svg width="89" height="48" viewBox="0 0 89 48" fill="none"
    xmlns="http://www.w3.org/2000/svg">
    <path fill-rule="evenodd" clip-rule="evenodd"
        d="M45.8518 9.21588C42.5322 13.437 40.7288 18.6414 40.7288 24H48.2712C48.2712 20.316 49.511 16.738 51.7932 13.8359C54.0754 10.9339 57.2686 8.87477 60.8642 7.98665C64.4597 7.09853 68.2508 7.43248 71.6333 8.93531C75.0158 10.4381 77.7953 13.0234 79.5289 16.2792C81.2625 19.535 81.8505 23.274 81.1992 26.9006C80.5479 30.5273 78.6948 33.8328 75.9351 36.2907C73.1754 38.7486 69.6679 40.2175 65.9713 40.4632C62.2748 40.709 58.6018 39.7175 55.5376 37.6468L51.2982 43.8499C55.7552 46.8619 61.0977 48.304 66.4745 47.9465C71.8513 47.5891 76.9531 45.4526 80.9672 41.8774C84.9813 38.3023 87.6768 33.4942 88.6241 28.2191C89.5714 22.944 88.7162 17.5054 86.1946 12.7697C83.673 8.03399 79.6301 4.27364 74.7101 2.08772C69.79 -0.0982044 64.2758 -0.583953 59.0459 0.70786C53.816 1.99967 49.1713 4.99473 45.8518 9.21588ZM43.1482 38.7841C46.4678 34.563 48.2712 29.3586 48.2712 24H40.7288C40.7288 27.684 39.489 31.262 37.2068 34.1641C34.9246 37.0661 31.7314 39.1252 28.1358 40.0134C24.5403 40.9015 20.7492 40.5675 17.3667 39.0647C13.9842 37.5619 11.2047 34.9766 9.4711 31.7208C7.73751 28.4651 7.14952 24.726 7.80081 21.0994C8.4521 17.4727 10.3052 14.1672 13.0649 11.7093C15.8246 9.25137 19.3321 7.78254 23.0287 7.53678C26.7252 7.29102 30.3982 8.28247 33.4624 10.3532L37.7018 4.15009C33.2448 1.13814 27.9024 -0.303975 22.5255 0.0534908C17.1487 0.410957 12.0469 2.54744 8.03277 6.12257C4.01866 9.6977 1.32324 14.5058 0.375907 19.7809C-0.571427 25.056 0.283827 30.4946 2.80542 35.2303C5.32701 39.966 9.36987 43.7264 14.2899 45.9123C19.21 48.0982 24.7242 48.584 29.9541 47.2921C35.184 46.0003 39.8287 43.0053 43.1482 38.7841Z"
        fill="#1E44B1" />
</svg>