<svg width="75" height="40" viewBox="0 0 75 40" fill="none" xmlns="http://www.w3.org/2000/svg">
    <path fill-rule="evenodd" clip-rule="evenodd"
        d="M38.2098 7.6799C35.4435 11.1975 33.9407 15.5345 33.9407 20H40.226C40.226 16.93 41.2592 13.9483 43.161 11.5299C45.0628 9.11156 47.7238 7.39564 50.7201 6.65554C53.7164 5.91544 56.8756 6.19374 59.6944 7.44609C62.5132 8.69844 64.8294 10.8528 66.2741 13.566C67.7187 16.2791 68.2087 19.395 67.666 22.4172C67.1232 25.4394 65.579 28.194 63.2792 30.2423C60.9795 32.2905 58.0565 33.5146 54.9761 33.7194C51.8956 33.9241 48.8348 33.0979 46.2813 31.3723L42.7485 36.5416C46.4626 39.0515 50.9147 40.2533 55.3954 39.9554C59.8761 39.6575 64.1276 37.8771 67.4727 34.8979C70.8178 31.9186 73.0639 27.9118 73.8534 23.5159C74.6428 19.12 73.9301 14.5878 71.8288 10.6414C69.7275 6.69499 66.3584 3.56137 62.2584 1.73977C58.1583 -0.081837 53.5631 -0.486627 49.2049 0.589883C44.8467 1.66639 40.9761 4.16227 38.2098 7.6799ZM35.9568 32.3201C38.7231 28.8025 40.226 24.4655 40.226 20H33.9407C33.9407 23.07 32.9075 26.0517 31.0056 28.4701C29.1038 30.8884 26.4428 32.6044 23.4465 33.3445C20.4502 34.0846 17.291 33.8063 14.4723 32.5539C11.6535 31.3016 9.33725 29.1472 7.89258 26.434C6.44792 23.7209 5.95793 20.605 6.50068 17.5828C7.04342 14.5606 8.58767 11.806 10.8874 9.75773C13.1872 7.70947 16.1101 6.48545 19.1906 6.28065C22.271 6.07585 25.3318 6.90206 27.8853 8.62766L31.4182 3.45841C27.704 0.948452 23.252 -0.25331 18.7713 0.044578C14.2906 0.342466 10.0391 2.12287 6.69397 5.10214C3.34889 8.08142 1.1027 12.0882 0.313256 16.4841C-0.476189 20.88 0.236523 25.4122 2.33785 29.3586C4.43917 33.305 7.80823 36.4386 11.9083 38.2602C16.0083 40.0818 20.6035 40.4866 24.9617 39.4101C29.32 38.3336 33.1906 35.8377 35.9568 32.3201Z"
        fill="#1E44B1" />
</svg>
    